<?xml version="1.0" encoding="utf-8" standalone="no"?>
<!DOCTYPE svg PUBLIC "-//W3C//DTD SVG 1.1//EN"
  "http://www.w3.org/Graphics/SVG/1.1/DTD/svg11.dtd">
<!-- Created with matplotlib (https://matplotlib.org/) -->
<svg height="432pt" version="1.1" viewBox="0 0 1008 432" width="1008pt" xmlns="http://www.w3.org/2000/svg" xmlns:xlink="http://www.w3.org/1999/xlink">
 <defs>
  <style type="text/css">
*{stroke-linecap:butt;stroke-linejoin:round;}
  </style>
 </defs>
 <g id="figure_1">
  <g id="patch_1">
   <path d="M 0 432 
L 1008 432 
L 1008 0 
L 0 0 
z
" style="fill:#ffffff;"/>
  </g>
  <g id="axes_1">
   <g id="patch_2">
    <path d="M 126 384.48 
L 907.2 384.48 
L 907.2 51.84 
L 126 51.84 
z
" style="fill:#c0c0c0;"/>
   </g>
   <g id="patch_3">
    <path clip-path="url(#pa125c23258)" d="M 126 361.328005 
L 126 66.96 
L 907.2 66.96 
L 907.2 361.328005 
z
" style="fill:#008000;opacity:0.5;"/>
   </g>
   <g id="matplotlib.axis_1">
    <g id="xtick_1">
     <g id="line2d_1">
      <defs>
       <path d="M 0 0 
L 0 3.5 
" id="m1db1edb7c6" style="stroke:#000000;stroke-width:0.8;"/>
      </defs>
      <g>
       <use style="stroke:#000000;stroke-width:0.8;" x="142.275" xlink:href="#m1db1edb7c6" y="384.48"/>
      </g>
     </g>
     <g id="text_1">
      <!-- 0 -->
      <defs>
       <path d="M 31.78125 66.40625 
Q 24.171875 66.40625 20.328125 58.90625 
Q 16.5 51.421875 16.5 36.375 
Q 16.5 21.390625 20.328125 13.890625 
Q 24.171875 6.390625 31.78125 6.390625 
Q 39.453125 6.390625 43.28125 13.890625 
Q 47.125 21.390625 47.125 36.375 
Q 47.125 51.421875 43.28125 58.90625 
Q 39.453125 66.40625 31.78125 66.40625 
z
M 31.78125 74.21875 
Q 44.046875 74.21875 50.515625 64.515625 
Q 56.984375 54.828125 56.984375 36.375 
Q 56.984375 17.96875 50.515625 8.265625 
Q 44.046875 -1.421875 31.78125 -1.421875 
Q 19.53125 -1.421875 13.0625 8.265625 
Q 6.59375 17.96875 6.59375 36.375 
Q 6.59375 54.828125 13.0625 64.515625 
Q 19.53125 74.21875 31.78125 74.21875 
z
" id="DejaVuSans-48"/>
      </defs>
      <g transform="translate(139.09375 399.078438)scale(0.1 -0.1)">
       <use xlink:href="#DejaVuSans-48"/>
      </g>
     </g>
    </g>
    <g id="xtick_2">
     <g id="line2d_2">
      <g>
       <use style="stroke:#000000;stroke-width:0.8;" x="174.825" xlink:href="#m1db1edb7c6" y="384.48"/>
      </g>
     </g>
     <g id="text_2">
      <!-- 1 -->
      <defs>
       <path d="M 12.40625 8.296875 
L 28.515625 8.296875 
L 28.515625 63.921875 
L 10.984375 60.40625 
L 10.984375 69.390625 
L 28.421875 72.90625 
L 38.28125 72.90625 
L 38.28125 8.296875 
L 54.390625 8.296875 
L 54.390625 0 
L 12.40625 0 
z
" id="DejaVuSans-49"/>
      </defs>
      <g transform="translate(171.64375 399.078438)scale(0.1 -0.1)">
       <use xlink:href="#DejaVuSans-49"/>
      </g>
     </g>
    </g>
    <g id="xtick_3">
     <g id="line2d_3">
      <g>
       <use style="stroke:#000000;stroke-width:0.8;" x="207.375" xlink:href="#m1db1edb7c6" y="384.48"/>
      </g>
     </g>
     <g id="text_3">
      <!-- 2 -->
      <defs>
       <path d="M 19.1875 8.296875 
L 53.609375 8.296875 
L 53.609375 0 
L 7.328125 0 
L 7.328125 8.296875 
Q 12.9375 14.109375 22.625 23.890625 
Q 32.328125 33.6875 34.8125 36.53125 
Q 39.546875 41.84375 41.421875 45.53125 
Q 43.3125 49.21875 43.3125 52.78125 
Q 43.3125 58.59375 39.234375 62.25 
Q 35.15625 65.921875 28.609375 65.921875 
Q 23.96875 65.921875 18.8125 64.3125 
Q 13.671875 62.703125 7.8125 59.421875 
L 7.8125 69.390625 
Q 13.765625 71.78125 18.9375 73 
Q 24.125 74.21875 28.421875 74.21875 
Q 39.75 74.21875 46.484375 68.546875 
Q 53.21875 62.890625 53.21875 53.421875 
Q 53.21875 48.921875 51.53125 44.890625 
Q 49.859375 40.875 45.40625 35.40625 
Q 44.1875 33.984375 37.640625 27.21875 
Q 31.109375 20.453125 19.1875 8.296875 
z
" id="DejaVuSans-50"/>
      </defs>
      <g transform="translate(204.19375 399.078438)scale(0.1 -0.1)">
       <use xlink:href="#DejaVuSans-50"/>
      </g>
     </g>
    </g>
    <g id="xtick_4">
     <g id="line2d_4">
      <g>
       <use style="stroke:#000000;stroke-width:0.8;" x="239.925" xlink:href="#m1db1edb7c6" y="384.48"/>
      </g>
     </g>
     <g id="text_4">
      <!-- 3 -->
      <defs>
       <path d="M 40.578125 39.3125 
Q 47.65625 37.796875 51.625 33 
Q 55.609375 28.21875 55.609375 21.1875 
Q 55.609375 10.40625 48.1875 4.484375 
Q 40.765625 -1.421875 27.09375 -1.421875 
Q 22.515625 -1.421875 17.65625 -0.515625 
Q 12.796875 0.390625 7.625 2.203125 
L 7.625 11.71875 
Q 11.71875 9.328125 16.59375 8.109375 
Q 21.484375 6.890625 26.8125 6.890625 
Q 36.078125 6.890625 40.9375 10.546875 
Q 45.796875 14.203125 45.796875 21.1875 
Q 45.796875 27.640625 41.28125 31.265625 
Q 36.765625 34.90625 28.71875 34.90625 
L 20.21875 34.90625 
L 20.21875 43.015625 
L 29.109375 43.015625 
Q 36.375 43.015625 40.234375 45.921875 
Q 44.09375 48.828125 44.09375 54.296875 
Q 44.09375 59.90625 40.109375 62.90625 
Q 36.140625 65.921875 28.71875 65.921875 
Q 24.65625 65.921875 20.015625 65.03125 
Q 15.375 64.15625 9.8125 62.3125 
L 9.8125 71.09375 
Q 15.4375 72.65625 20.34375 73.4375 
Q 25.25 74.21875 29.59375 74.21875 
Q 40.828125 74.21875 47.359375 69.109375 
Q 53.90625 64.015625 53.90625 55.328125 
Q 53.90625 49.265625 50.4375 45.09375 
Q 46.96875 40.921875 40.578125 39.3125 
z
" id="DejaVuSans-51"/>
      </defs>
      <g transform="translate(236.74375 399.078438)scale(0.1 -0.1)">
       <use xlink:href="#DejaVuSans-51"/>
      </g>
     </g>
    </g>
    <g id="xtick_5">
     <g id="line2d_5">
      <g>
       <use style="stroke:#000000;stroke-width:0.8;" x="272.475" xlink:href="#m1db1edb7c6" y="384.48"/>
      </g>
     </g>
     <g id="text_5">
      <!-- 4 -->
      <defs>
       <path d="M 37.796875 64.3125 
L 12.890625 25.390625 
L 37.796875 25.390625 
z
M 35.203125 72.90625 
L 47.609375 72.90625 
L 47.609375 25.390625 
L 58.015625 25.390625 
L 58.015625 17.1875 
L 47.609375 17.1875 
L 47.609375 0 
L 37.796875 0 
L 37.796875 17.1875 
L 4.890625 17.1875 
L 4.890625 26.703125 
z
" id="DejaVuSans-52"/>
      </defs>
      <g transform="translate(269.29375 399.078438)scale(0.1 -0.1)">
       <use xlink:href="#DejaVuSans-52"/>
      </g>
     </g>
    </g>
    <g id="xtick_6">
     <g id="line2d_6">
      <g>
       <use style="stroke:#000000;stroke-width:0.8;" x="305.025" xlink:href="#m1db1edb7c6" y="384.48"/>
      </g>
     </g>
     <g id="text_6">
      <!-- 5 -->
      <defs>
       <path d="M 10.796875 72.90625 
L 49.515625 72.90625 
L 49.515625 64.59375 
L 19.828125 64.59375 
L 19.828125 46.734375 
Q 21.96875 47.46875 24.109375 47.828125 
Q 26.265625 48.1875 28.421875 48.1875 
Q 40.625 48.1875 47.75 41.5 
Q 54.890625 34.8125 54.890625 23.390625 
Q 54.890625 11.625 47.5625 5.09375 
Q 40.234375 -1.421875 26.90625 -1.421875 
Q 22.3125 -1.421875 17.546875 -0.640625 
Q 12.796875 0.140625 7.71875 1.703125 
L 7.71875 11.625 
Q 12.109375 9.234375 16.796875 8.0625 
Q 21.484375 6.890625 26.703125 6.890625 
Q 35.15625 6.890625 40.078125 11.328125 
Q 45.015625 15.765625 45.015625 23.390625 
Q 45.015625 31 40.078125 35.4375 
Q 35.15625 39.890625 26.703125 39.890625 
Q 22.75 39.890625 18.8125 39.015625 
Q 14.890625 38.140625 10.796875 36.28125 
z
" id="DejaVuSans-53"/>
      </defs>
      <g transform="translate(301.84375 399.078438)scale(0.1 -0.1)">
       <use xlink:href="#DejaVuSans-53"/>
      </g>
     </g>
    </g>
    <g id="xtick_7">
     <g id="line2d_7">
      <g>
       <use style="stroke:#000000;stroke-width:0.8;" x="337.575" xlink:href="#m1db1edb7c6" y="384.48"/>
      </g>
     </g>
     <g id="text_7">
      <!-- 6 -->
      <defs>
       <path d="M 33.015625 40.375 
Q 26.375 40.375 22.484375 35.828125 
Q 18.609375 31.296875 18.609375 23.390625 
Q 18.609375 15.53125 22.484375 10.953125 
Q 26.375 6.390625 33.015625 6.390625 
Q 39.65625 6.390625 43.53125 10.953125 
Q 47.40625 15.53125 47.40625 23.390625 
Q 47.40625 31.296875 43.53125 35.828125 
Q 39.65625 40.375 33.015625 40.375 
z
M 52.59375 71.296875 
L 52.59375 62.3125 
Q 48.875 64.0625 45.09375 64.984375 
Q 41.3125 65.921875 37.59375 65.921875 
Q 27.828125 65.921875 22.671875 59.328125 
Q 17.53125 52.734375 16.796875 39.40625 
Q 19.671875 43.65625 24.015625 45.921875 
Q 28.375 48.1875 33.59375 48.1875 
Q 44.578125 48.1875 50.953125 41.515625 
Q 57.328125 34.859375 57.328125 23.390625 
Q 57.328125 12.15625 50.6875 5.359375 
Q 44.046875 -1.421875 33.015625 -1.421875 
Q 20.359375 -1.421875 13.671875 8.265625 
Q 6.984375 17.96875 6.984375 36.375 
Q 6.984375 53.65625 15.1875 63.9375 
Q 23.390625 74.21875 37.203125 74.21875 
Q 40.921875 74.21875 44.703125 73.484375 
Q 48.484375 72.75 52.59375 71.296875 
z
" id="DejaVuSans-54"/>
      </defs>
      <g transform="translate(334.39375 399.078438)scale(0.1 -0.1)">
       <use xlink:href="#DejaVuSans-54"/>
      </g>
     </g>
    </g>
    <g id="xtick_8">
     <g id="line2d_8">
      <g>
       <use style="stroke:#000000;stroke-width:0.8;" x="370.125" xlink:href="#m1db1edb7c6" y="384.48"/>
      </g>
     </g>
     <g id="text_8">
      <!-- 7 -->
      <defs>
       <path d="M 8.203125 72.90625 
L 55.078125 72.90625 
L 55.078125 68.703125 
L 28.609375 0 
L 18.3125 0 
L 43.21875 64.59375 
L 8.203125 64.59375 
z
" id="DejaVuSans-55"/>
      </defs>
      <g transform="translate(366.94375 399.078438)scale(0.1 -0.1)">
       <use xlink:href="#DejaVuSans-55"/>
      </g>
     </g>
    </g>
    <g id="xtick_9">
     <g id="line2d_9">
      <g>
       <use style="stroke:#000000;stroke-width:0.8;" x="402.675" xlink:href="#m1db1edb7c6" y="384.48"/>
      </g>
     </g>
     <g id="text_9">
      <!-- 8 -->
      <defs>
       <path d="M 31.78125 34.625 
Q 24.75 34.625 20.71875 30.859375 
Q 16.703125 27.09375 16.703125 20.515625 
Q 16.703125 13.921875 20.71875 10.15625 
Q 24.75 6.390625 31.78125 6.390625 
Q 38.8125 6.390625 42.859375 10.171875 
Q 46.921875 13.96875 46.921875 20.515625 
Q 46.921875 27.09375 42.890625 30.859375 
Q 38.875 34.625 31.78125 34.625 
z
M 21.921875 38.8125 
Q 15.578125 40.375 12.03125 44.71875 
Q 8.5 49.078125 8.5 55.328125 
Q 8.5 64.0625 14.71875 69.140625 
Q 20.953125 74.21875 31.78125 74.21875 
Q 42.671875 74.21875 48.875 69.140625 
Q 55.078125 64.0625 55.078125 55.328125 
Q 55.078125 49.078125 51.53125 44.71875 
Q 48 40.375 41.703125 38.8125 
Q 48.828125 37.15625 52.796875 32.3125 
Q 56.78125 27.484375 56.78125 20.515625 
Q 56.78125 9.90625 50.3125 4.234375 
Q 43.84375 -1.421875 31.78125 -1.421875 
Q 19.734375 -1.421875 13.25 4.234375 
Q 6.78125 9.90625 6.78125 20.515625 
Q 6.78125 27.484375 10.78125 32.3125 
Q 14.796875 37.15625 21.921875 38.8125 
z
M 18.3125 54.390625 
Q 18.3125 48.734375 21.84375 45.5625 
Q 25.390625 42.390625 31.78125 42.390625 
Q 38.140625 42.390625 41.71875 45.5625 
Q 45.3125 48.734375 45.3125 54.390625 
Q 45.3125 60.0625 41.71875 63.234375 
Q 38.140625 66.40625 31.78125 66.40625 
Q 25.390625 66.40625 21.84375 63.234375 
Q 18.3125 60.0625 18.3125 54.390625 
z
" id="DejaVuSans-56"/>
      </defs>
      <g transform="translate(399.49375 399.078438)scale(0.1 -0.1)">
       <use xlink:href="#DejaVuSans-56"/>
      </g>
     </g>
    </g>
    <g id="xtick_10">
     <g id="line2d_10">
      <g>
       <use style="stroke:#000000;stroke-width:0.8;" x="435.225" xlink:href="#m1db1edb7c6" y="384.48"/>
      </g>
     </g>
     <g id="text_10">
      <!-- 9 -->
      <defs>
       <path d="M 10.984375 1.515625 
L 10.984375 10.5 
Q 14.703125 8.734375 18.5 7.8125 
Q 22.3125 6.890625 25.984375 6.890625 
Q 35.75 6.890625 40.890625 13.453125 
Q 46.046875 20.015625 46.78125 33.40625 
Q 43.953125 29.203125 39.59375 26.953125 
Q 35.25 24.703125 29.984375 24.703125 
Q 19.046875 24.703125 12.671875 31.3125 
Q 6.296875 37.9375 6.296875 49.421875 
Q 6.296875 60.640625 12.9375 67.421875 
Q 19.578125 74.21875 30.609375 74.21875 
Q 43.265625 74.21875 49.921875 64.515625 
Q 56.59375 54.828125 56.59375 36.375 
Q 56.59375 19.140625 48.40625 8.859375 
Q 40.234375 -1.421875 26.421875 -1.421875 
Q 22.703125 -1.421875 18.890625 -0.6875 
Q 15.09375 0.046875 10.984375 1.515625 
z
M 30.609375 32.421875 
Q 37.25 32.421875 41.125 36.953125 
Q 45.015625 41.5 45.015625 49.421875 
Q 45.015625 57.28125 41.125 61.84375 
Q 37.25 66.40625 30.609375 66.40625 
Q 23.96875 66.40625 20.09375 61.84375 
Q 16.21875 57.28125 16.21875 49.421875 
Q 16.21875 41.5 20.09375 36.953125 
Q 23.96875 32.421875 30.609375 32.421875 
z
" id="DejaVuSans-57"/>
      </defs>
      <g transform="translate(432.04375 399.078438)scale(0.1 -0.1)">
       <use xlink:href="#DejaVuSans-57"/>
      </g>
     </g>
    </g>
    <g id="xtick_11">
     <g id="line2d_11">
      <g>
       <use style="stroke:#000000;stroke-width:0.8;" x="467.775" xlink:href="#m1db1edb7c6" y="384.48"/>
      </g>
     </g>
     <g id="text_11">
      <!-- 10 -->
      <g transform="translate(461.4125 399.078438)scale(0.1 -0.1)">
       <use xlink:href="#DejaVuSans-49"/>
       <use x="63.623047" xlink:href="#DejaVuSans-48"/>
      </g>
     </g>
    </g>
    <g id="xtick_12">
     <g id="line2d_12">
      <g>
       <use style="stroke:#000000;stroke-width:0.8;" x="500.325" xlink:href="#m1db1edb7c6" y="384.48"/>
      </g>
     </g>
     <g id="text_12">
      <!-- 11 -->
      <g transform="translate(493.9625 399.078438)scale(0.1 -0.1)">
       <use xlink:href="#DejaVuSans-49"/>
       <use x="63.623047" xlink:href="#DejaVuSans-49"/>
      </g>
     </g>
    </g>
    <g id="xtick_13">
     <g id="line2d_13">
      <g>
       <use style="stroke:#000000;stroke-width:0.8;" x="532.875" xlink:href="#m1db1edb7c6" y="384.48"/>
      </g>
     </g>
     <g id="text_13">
      <!-- 12 -->
      <g transform="translate(526.5125 399.078438)scale(0.1 -0.1)">
       <use xlink:href="#DejaVuSans-49"/>
       <use x="63.623047" xlink:href="#DejaVuSans-50"/>
      </g>
     </g>
    </g>
    <g id="xtick_14">
     <g id="line2d_14">
      <g>
       <use style="stroke:#000000;stroke-width:0.8;" x="565.425" xlink:href="#m1db1edb7c6" y="384.48"/>
      </g>
     </g>
     <g id="text_14">
      <!-- 13 -->
      <g transform="translate(559.0625 399.078438)scale(0.1 -0.1)">
       <use xlink:href="#DejaVuSans-49"/>
       <use x="63.623047" xlink:href="#DejaVuSans-51"/>
      </g>
     </g>
    </g>
    <g id="xtick_15">
     <g id="line2d_15">
      <g>
       <use style="stroke:#000000;stroke-width:0.8;" x="597.975" xlink:href="#m1db1edb7c6" y="384.48"/>
      </g>
     </g>
     <g id="text_15">
      <!-- 14 -->
      <g transform="translate(591.6125 399.078438)scale(0.1 -0.1)">
       <use xlink:href="#DejaVuSans-49"/>
       <use x="63.623047" xlink:href="#DejaVuSans-52"/>
      </g>
     </g>
    </g>
    <g id="xtick_16">
     <g id="line2d_16">
      <g>
       <use style="stroke:#000000;stroke-width:0.8;" x="630.525" xlink:href="#m1db1edb7c6" y="384.48"/>
      </g>
     </g>
     <g id="text_16">
      <!-- 15 -->
      <g transform="translate(624.1625 399.078438)scale(0.1 -0.1)">
       <use xlink:href="#DejaVuSans-49"/>
       <use x="63.623047" xlink:href="#DejaVuSans-53"/>
      </g>
     </g>
    </g>
    <g id="xtick_17">
     <g id="line2d_17">
      <g>
       <use style="stroke:#000000;stroke-width:0.8;" x="663.075" xlink:href="#m1db1edb7c6" y="384.48"/>
      </g>
     </g>
     <g id="text_17">
      <!-- 16 -->
      <g transform="translate(656.7125 399.078438)scale(0.1 -0.1)">
       <use xlink:href="#DejaVuSans-49"/>
       <use x="63.623047" xlink:href="#DejaVuSans-54"/>
      </g>
     </g>
    </g>
    <g id="xtick_18">
     <g id="line2d_18">
      <g>
       <use style="stroke:#000000;stroke-width:0.8;" x="695.625" xlink:href="#m1db1edb7c6" y="384.48"/>
      </g>
     </g>
     <g id="text_18">
      <!-- 17 -->
      <g transform="translate(689.2625 399.078438)scale(0.1 -0.1)">
       <use xlink:href="#DejaVuSans-49"/>
       <use x="63.623047" xlink:href="#DejaVuSans-55"/>
      </g>
     </g>
    </g>
    <g id="xtick_19">
     <g id="line2d_19">
      <g>
       <use style="stroke:#000000;stroke-width:0.8;" x="728.175" xlink:href="#m1db1edb7c6" y="384.48"/>
      </g>
     </g>
     <g id="text_19">
      <!-- 18 -->
      <g transform="translate(721.8125 399.078438)scale(0.1 -0.1)">
       <use xlink:href="#DejaVuSans-49"/>
       <use x="63.623047" xlink:href="#DejaVuSans-56"/>
      </g>
     </g>
    </g>
    <g id="xtick_20">
     <g id="line2d_20">
      <g>
       <use style="stroke:#000000;stroke-width:0.8;" x="760.725" xlink:href="#m1db1edb7c6" y="384.48"/>
      </g>
     </g>
     <g id="text_20">
      <!-- 19 -->
      <g transform="translate(754.3625 399.078438)scale(0.1 -0.1)">
       <use xlink:href="#DejaVuSans-49"/>
       <use x="63.623047" xlink:href="#DejaVuSans-57"/>
      </g>
     </g>
    </g>
    <g id="xtick_21">
     <g id="line2d_21">
      <g>
       <use style="stroke:#000000;stroke-width:0.8;" x="793.275" xlink:href="#m1db1edb7c6" y="384.48"/>
      </g>
     </g>
     <g id="text_21">
      <!-- 20 -->
      <g transform="translate(786.9125 399.078438)scale(0.1 -0.1)">
       <use xlink:href="#DejaVuSans-50"/>
       <use x="63.623047" xlink:href="#DejaVuSans-48"/>
      </g>
     </g>
    </g>
    <g id="xtick_22">
     <g id="line2d_22">
      <g>
       <use style="stroke:#000000;stroke-width:0.8;" x="825.825" xlink:href="#m1db1edb7c6" y="384.48"/>
      </g>
     </g>
     <g id="text_22">
      <!-- 21 -->
      <g transform="translate(819.4625 399.078438)scale(0.1 -0.1)">
       <use xlink:href="#DejaVuSans-50"/>
       <use x="63.623047" xlink:href="#DejaVuSans-49"/>
      </g>
     </g>
    </g>
    <g id="xtick_23">
     <g id="line2d_23">
      <g>
       <use style="stroke:#000000;stroke-width:0.8;" x="858.375" xlink:href="#m1db1edb7c6" y="384.48"/>
      </g>
     </g>
     <g id="text_23">
      <!-- 22 -->
      <g transform="translate(852.0125 399.078438)scale(0.1 -0.1)">
       <use xlink:href="#DejaVuSans-50"/>
       <use x="63.623047" xlink:href="#DejaVuSans-50"/>
      </g>
     </g>
    </g>
    <g id="xtick_24">
     <g id="line2d_24">
      <g>
       <use style="stroke:#000000;stroke-width:0.8;" x="890.925" xlink:href="#m1db1edb7c6" y="384.48"/>
      </g>
     </g>
     <g id="text_24">
      <!-- 23 -->
      <g transform="translate(884.5625 399.078438)scale(0.1 -0.1)">
       <use xlink:href="#DejaVuSans-50"/>
       <use x="63.623047" xlink:href="#DejaVuSans-51"/>
      </g>
     </g>
    </g>
   </g>
   <g id="matplotlib.axis_2">
    <g id="ytick_1">
     <g id="line2d_25">
      <path clip-path="url(#pa125c23258)" d="M 126 361.328005 
L 907.2 361.328005 
" style="fill:none;stroke:#b0b0b0;stroke-linecap:square;stroke-width:0.8;"/>
     </g>
     <g id="line2d_26">
      <defs>
       <path d="M 0 0 
L -3.5 0 
" id="m607a00bb6b" style="stroke:#000000;stroke-width:0.8;"/>
      </defs>
      <g>
       <use style="stroke:#000000;stroke-width:0.8;" x="126" xlink:href="#m607a00bb6b" y="361.328005"/>
      </g>
     </g>
     <g id="text_25">
      <!-- 0 -->
      <g transform="translate(112.6375 365.127224)scale(0.1 -0.1)">
       <use xlink:href="#DejaVuSans-48"/>
      </g>
     </g>
    </g>
    <g id="ytick_2">
     <g id="line2d_27">
      <path clip-path="url(#pa125c23258)" d="M 126 302.454404 
L 907.2 302.454404 
" style="fill:none;stroke:#b0b0b0;stroke-linecap:square;stroke-width:0.8;"/>
     </g>
     <g id="line2d_28">
      <g>
       <use style="stroke:#000000;stroke-width:0.8;" x="126" xlink:href="#m607a00bb6b" y="302.454404"/>
      </g>
     </g>
     <g id="text_26">
      <!-- 20 -->
      <g transform="translate(106.275 306.253623)scale(0.1 -0.1)">
       <use xlink:href="#DejaVuSans-50"/>
       <use x="63.623047" xlink:href="#DejaVuSans-48"/>
      </g>
     </g>
    </g>
    <g id="ytick_3">
     <g id="line2d_29">
      <path clip-path="url(#pa125c23258)" d="M 126 243.580803 
L 907.2 243.580803 
" style="fill:none;stroke:#b0b0b0;stroke-linecap:square;stroke-width:0.8;"/>
     </g>
     <g id="line2d_30">
      <g>
       <use style="stroke:#000000;stroke-width:0.8;" x="126" xlink:href="#m607a00bb6b" y="243.580803"/>
      </g>
     </g>
     <g id="text_27">
      <!-- 40 -->
      <g transform="translate(106.275 247.380022)scale(0.1 -0.1)">
       <use xlink:href="#DejaVuSans-52"/>
       <use x="63.623047" xlink:href="#DejaVuSans-48"/>
      </g>
     </g>
    </g>
    <g id="ytick_4">
     <g id="line2d_31">
      <path clip-path="url(#pa125c23258)" d="M 126 184.707202 
L 907.2 184.707202 
" style="fill:none;stroke:#b0b0b0;stroke-linecap:square;stroke-width:0.8;"/>
     </g>
     <g id="line2d_32">
      <g>
       <use style="stroke:#000000;stroke-width:0.8;" x="126" xlink:href="#m607a00bb6b" y="184.707202"/>
      </g>
     </g>
     <g id="text_28">
      <!-- 60 -->
      <g transform="translate(106.275 188.506421)scale(0.1 -0.1)">
       <use xlink:href="#DejaVuSans-54"/>
       <use x="63.623047" xlink:href="#DejaVuSans-48"/>
      </g>
     </g>
    </g>
    <g id="ytick_5">
     <g id="line2d_33">
      <path clip-path="url(#pa125c23258)" d="M 126 125.833601 
L 907.2 125.833601 
" style="fill:none;stroke:#b0b0b0;stroke-linecap:square;stroke-width:0.8;"/>
     </g>
     <g id="line2d_34">
      <g>
       <use style="stroke:#000000;stroke-width:0.8;" x="126" xlink:href="#m607a00bb6b" y="125.833601"/>
      </g>
     </g>
     <g id="text_29">
      <!-- 80 -->
      <g transform="translate(106.275 129.63282)scale(0.1 -0.1)">
       <use xlink:href="#DejaVuSans-56"/>
       <use x="63.623047" xlink:href="#DejaVuSans-48"/>
      </g>
     </g>
    </g>
    <g id="ytick_6">
     <g id="line2d_35">
      <path clip-path="url(#pa125c23258)" d="M 126 66.96 
L 907.2 66.96 
" style="fill:none;stroke:#b0b0b0;stroke-linecap:square;stroke-width:0.8;"/>
     </g>
     <g id="line2d_36">
      <g>
       <use style="stroke:#000000;stroke-width:0.8;" x="126" xlink:href="#m607a00bb6b" y="66.96"/>
      </g>
     </g>
     <g id="text_30">
      <!-- 100 -->
      <g transform="translate(99.9125 70.759219)scale(0.1 -0.1)">
       <use xlink:href="#DejaVuSans-49"/>
       <use x="63.623047" xlink:href="#DejaVuSans-48"/>
       <use x="127.246094" xlink:href="#DejaVuSans-48"/>
      </g>
     </g>
    </g>
    <g id="text_31">
     <!-- TCLs state of charge % -->
     <defs>
      <path d="M -0.296875 72.90625 
L 61.375 72.90625 
L 61.375 64.59375 
L 35.5 64.59375 
L 35.5 0 
L 25.59375 0 
L 25.59375 64.59375 
L -0.296875 64.59375 
z
" id="DejaVuSans-84"/>
      <path d="M 64.40625 67.28125 
L 64.40625 56.890625 
Q 59.421875 61.53125 53.78125 63.8125 
Q 48.140625 66.109375 41.796875 66.109375 
Q 29.296875 66.109375 22.65625 58.46875 
Q 16.015625 50.828125 16.015625 36.375 
Q 16.015625 21.96875 22.65625 14.328125 
Q 29.296875 6.6875 41.796875 6.6875 
Q 48.140625 6.6875 53.78125 8.984375 
Q 59.421875 11.28125 64.40625 15.921875 
L 64.40625 5.609375 
Q 59.234375 2.09375 53.4375 0.328125 
Q 47.65625 -1.421875 41.21875 -1.421875 
Q 24.65625 -1.421875 15.125 8.703125 
Q 5.609375 18.84375 5.609375 36.375 
Q 5.609375 53.953125 15.125 64.078125 
Q 24.65625 74.21875 41.21875 74.21875 
Q 47.75 74.21875 53.53125 72.484375 
Q 59.328125 70.75 64.40625 67.28125 
z
" id="DejaVuSans-67"/>
      <path d="M 9.8125 72.90625 
L 19.671875 72.90625 
L 19.671875 8.296875 
L 55.171875 8.296875 
L 55.171875 0 
L 9.8125 0 
z
" id="DejaVuSans-76"/>
      <path d="M 44.28125 53.078125 
L 44.28125 44.578125 
Q 40.484375 46.53125 36.375 47.5 
Q 32.28125 48.484375 27.875 48.484375 
Q 21.1875 48.484375 17.84375 46.4375 
Q 14.5 44.390625 14.5 40.28125 
Q 14.5 37.15625 16.890625 35.375 
Q 19.28125 33.59375 26.515625 31.984375 
L 29.59375 31.296875 
Q 39.15625 29.25 43.1875 25.515625 
Q 47.21875 21.78125 47.21875 15.09375 
Q 47.21875 7.46875 41.1875 3.015625 
Q 35.15625 -1.421875 24.609375 -1.421875 
Q 20.21875 -1.421875 15.453125 -0.5625 
Q 10.6875 0.296875 5.421875 2 
L 5.421875 11.28125 
Q 10.40625 8.6875 15.234375 7.390625 
Q 20.0625 6.109375 24.8125 6.109375 
Q 31.15625 6.109375 34.5625 8.28125 
Q 37.984375 10.453125 37.984375 14.40625 
Q 37.984375 18.0625 35.515625 20.015625 
Q 33.0625 21.96875 24.703125 23.78125 
L 21.578125 24.515625 
Q 13.234375 26.265625 9.515625 29.90625 
Q 5.8125 33.546875 5.8125 39.890625 
Q 5.8125 47.609375 11.28125 51.796875 
Q 16.75 56 26.8125 56 
Q 31.78125 56 36.171875 55.265625 
Q 40.578125 54.546875 44.28125 53.078125 
z
" id="DejaVuSans-115"/>
      <path id="DejaVuSans-32"/>
      <path d="M 18.3125 70.21875 
L 18.3125 54.6875 
L 36.8125 54.6875 
L 36.8125 47.703125 
L 18.3125 47.703125 
L 18.3125 18.015625 
Q 18.3125 11.328125 20.140625 9.421875 
Q 21.96875 7.515625 27.59375 7.515625 
L 36.8125 7.515625 
L 36.8125 0 
L 27.59375 0 
Q 17.1875 0 13.234375 3.875 
Q 9.28125 7.765625 9.28125 18.015625 
L 9.28125 47.703125 
L 2.6875 47.703125 
L 2.6875 54.6875 
L 9.28125 54.6875 
L 9.28125 70.21875 
z
" id="DejaVuSans-116"/>
      <path d="M 34.28125 27.484375 
Q 23.390625 27.484375 19.1875 25 
Q 14.984375 22.515625 14.984375 16.5 
Q 14.984375 11.71875 18.140625 8.90625 
Q 21.296875 6.109375 26.703125 6.109375 
Q 34.1875 6.109375 38.703125 11.40625 
Q 43.21875 16.703125 43.21875 25.484375 
L 43.21875 27.484375 
z
M 52.203125 31.203125 
L 52.203125 0 
L 43.21875 0 
L 43.21875 8.296875 
Q 40.140625 3.328125 35.546875 0.953125 
Q 30.953125 -1.421875 24.3125 -1.421875 
Q 15.921875 -1.421875 10.953125 3.296875 
Q 6 8.015625 6 15.921875 
Q 6 25.140625 12.171875 29.828125 
Q 18.359375 34.515625 30.609375 34.515625 
L 43.21875 34.515625 
L 43.21875 35.40625 
Q 43.21875 41.609375 39.140625 45 
Q 35.0625 48.390625 27.6875 48.390625 
Q 23 48.390625 18.546875 47.265625 
Q 14.109375 46.140625 10.015625 43.890625 
L 10.015625 52.203125 
Q 14.9375 54.109375 19.578125 55.046875 
Q 24.21875 56 28.609375 56 
Q 40.484375 56 46.34375 49.84375 
Q 52.203125 43.703125 52.203125 31.203125 
z
" id="DejaVuSans-97"/>
      <path d="M 56.203125 29.59375 
L 56.203125 25.203125 
L 14.890625 25.203125 
Q 15.484375 15.921875 20.484375 11.0625 
Q 25.484375 6.203125 34.421875 6.203125 
Q 39.59375 6.203125 44.453125 7.46875 
Q 49.3125 8.734375 54.109375 11.28125 
L 54.109375 2.78125 
Q 49.265625 0.734375 44.1875 -0.34375 
Q 39.109375 -1.421875 33.890625 -1.421875 
Q 20.796875 -1.421875 13.15625 6.1875 
Q 5.515625 13.8125 5.515625 26.8125 
Q 5.515625 40.234375 12.765625 48.109375 
Q 20.015625 56 32.328125 56 
Q 43.359375 56 49.78125 48.890625 
Q 56.203125 41.796875 56.203125 29.59375 
z
M 47.21875 32.234375 
Q 47.125 39.59375 43.09375 43.984375 
Q 39.0625 48.390625 32.421875 48.390625 
Q 24.90625 48.390625 20.390625 44.140625 
Q 15.875 39.890625 15.1875 32.171875 
z
" id="DejaVuSans-101"/>
      <path d="M 30.609375 48.390625 
Q 23.390625 48.390625 19.1875 42.75 
Q 14.984375 37.109375 14.984375 27.296875 
Q 14.984375 17.484375 19.15625 11.84375 
Q 23.34375 6.203125 30.609375 6.203125 
Q 37.796875 6.203125 41.984375 11.859375 
Q 46.1875 17.53125 46.1875 27.296875 
Q 46.1875 37.015625 41.984375 42.703125 
Q 37.796875 48.390625 30.609375 48.390625 
z
M 30.609375 56 
Q 42.328125 56 49.015625 48.375 
Q 55.71875 40.765625 55.71875 27.296875 
Q 55.71875 13.875 49.015625 6.21875 
Q 42.328125 -1.421875 30.609375 -1.421875 
Q 18.84375 -1.421875 12.171875 6.21875 
Q 5.515625 13.875 5.515625 27.296875 
Q 5.515625 40.765625 12.171875 48.375 
Q 18.84375 56 30.609375 56 
z
" id="DejaVuSans-111"/>
      <path d="M 37.109375 75.984375 
L 37.109375 68.5 
L 28.515625 68.5 
Q 23.6875 68.5 21.796875 66.546875 
Q 19.921875 64.59375 19.921875 59.515625 
L 19.921875 54.6875 
L 34.71875 54.6875 
L 34.71875 47.703125 
L 19.921875 47.703125 
L 19.921875 0 
L 10.890625 0 
L 10.890625 47.703125 
L 2.296875 47.703125 
L 2.296875 54.6875 
L 10.890625 54.6875 
L 10.890625 58.5 
Q 10.890625 67.625 15.140625 71.796875 
Q 19.390625 75.984375 28.609375 75.984375 
z
" id="DejaVuSans-102"/>
      <path d="M 48.78125 52.59375 
L 48.78125 44.1875 
Q 44.96875 46.296875 41.140625 47.34375 
Q 37.3125 48.390625 33.40625 48.390625 
Q 24.65625 48.390625 19.8125 42.84375 
Q 14.984375 37.3125 14.984375 27.296875 
Q 14.984375 17.28125 19.8125 11.734375 
Q 24.65625 6.203125 33.40625 6.203125 
Q 37.3125 6.203125 41.140625 7.25 
Q 44.96875 8.296875 48.78125 10.40625 
L 48.78125 2.09375 
Q 45.015625 0.34375 40.984375 -0.53125 
Q 36.96875 -1.421875 32.421875 -1.421875 
Q 20.0625 -1.421875 12.78125 6.34375 
Q 5.515625 14.109375 5.515625 27.296875 
Q 5.515625 40.671875 12.859375 48.328125 
Q 20.21875 56 33.015625 56 
Q 37.15625 56 41.109375 55.140625 
Q 45.0625 54.296875 48.78125 52.59375 
z
" id="DejaVuSans-99"/>
      <path d="M 54.890625 33.015625 
L 54.890625 0 
L 45.90625 0 
L 45.90625 32.71875 
Q 45.90625 40.484375 42.875 44.328125 
Q 39.84375 48.1875 33.796875 48.1875 
Q 26.515625 48.1875 22.3125 43.546875 
Q 18.109375 38.921875 18.109375 30.90625 
L 18.109375 0 
L 9.078125 0 
L 9.078125 75.984375 
L 18.109375 75.984375 
L 18.109375 46.1875 
Q 21.34375 51.125 25.703125 53.5625 
Q 30.078125 56 35.796875 56 
Q 45.21875 56 50.046875 50.171875 
Q 54.890625 44.34375 54.890625 33.015625 
z
" id="DejaVuSans-104"/>
      <path d="M 41.109375 46.296875 
Q 39.59375 47.171875 37.8125 47.578125 
Q 36.03125 48 33.890625 48 
Q 26.265625 48 22.1875 43.046875 
Q 18.109375 38.09375 18.109375 28.8125 
L 18.109375 0 
L 9.078125 0 
L 9.078125 54.6875 
L 18.109375 54.6875 
L 18.109375 46.1875 
Q 20.953125 51.171875 25.484375 53.578125 
Q 30.03125 56 36.53125 56 
Q 37.453125 56 38.578125 55.875 
Q 39.703125 55.765625 41.0625 55.515625 
z
" id="DejaVuSans-114"/>
      <path d="M 45.40625 27.984375 
Q 45.40625 37.75 41.375 43.109375 
Q 37.359375 48.484375 30.078125 48.484375 
Q 22.859375 48.484375 18.828125 43.109375 
Q 14.796875 37.75 14.796875 27.984375 
Q 14.796875 18.265625 18.828125 12.890625 
Q 22.859375 7.515625 30.078125 7.515625 
Q 37.359375 7.515625 41.375 12.890625 
Q 45.40625 18.265625 45.40625 27.984375 
z
M 54.390625 6.78125 
Q 54.390625 -7.171875 48.1875 -13.984375 
Q 42 -20.796875 29.203125 -20.796875 
Q 24.46875 -20.796875 20.265625 -20.09375 
Q 16.0625 -19.390625 12.109375 -17.921875 
L 12.109375 -9.1875 
Q 16.0625 -11.328125 19.921875 -12.34375 
Q 23.78125 -13.375 27.78125 -13.375 
Q 36.625 -13.375 41.015625 -8.765625 
Q 45.40625 -4.15625 45.40625 5.171875 
L 45.40625 9.625 
Q 42.625 4.78125 38.28125 2.390625 
Q 33.9375 0 27.875 0 
Q 17.828125 0 11.671875 7.65625 
Q 5.515625 15.328125 5.515625 27.984375 
Q 5.515625 40.671875 11.671875 48.328125 
Q 17.828125 56 27.875 56 
Q 33.9375 56 38.28125 53.609375 
Q 42.625 51.21875 45.40625 46.390625 
L 45.40625 54.6875 
L 54.390625 54.6875 
z
" id="DejaVuSans-103"/>
      <path d="M 72.703125 32.078125 
Q 68.453125 32.078125 66.03125 28.46875 
Q 63.625 24.859375 63.625 18.40625 
Q 63.625 12.0625 66.03125 8.421875 
Q 68.453125 4.78125 72.703125 4.78125 
Q 76.859375 4.78125 79.265625 8.421875 
Q 81.6875 12.0625 81.6875 18.40625 
Q 81.6875 24.8125 79.265625 28.4375 
Q 76.859375 32.078125 72.703125 32.078125 
z
M 72.703125 38.28125 
Q 80.421875 38.28125 84.953125 32.90625 
Q 89.5 27.546875 89.5 18.40625 
Q 89.5 9.28125 84.9375 3.921875 
Q 80.375 -1.421875 72.703125 -1.421875 
Q 64.890625 -1.421875 60.34375 3.921875 
Q 55.8125 9.28125 55.8125 18.40625 
Q 55.8125 27.59375 60.375 32.9375 
Q 64.9375 38.28125 72.703125 38.28125 
z
M 22.3125 68.015625 
Q 18.109375 68.015625 15.6875 64.375 
Q 13.28125 60.75 13.28125 54.390625 
Q 13.28125 47.953125 15.671875 44.328125 
Q 18.0625 40.71875 22.3125 40.71875 
Q 26.5625 40.71875 28.96875 44.328125 
Q 31.390625 47.953125 31.390625 54.390625 
Q 31.390625 60.6875 28.953125 64.34375 
Q 26.515625 68.015625 22.3125 68.015625 
z
M 66.40625 74.21875 
L 74.21875 74.21875 
L 28.609375 -1.421875 
L 20.796875 -1.421875 
z
M 22.3125 74.21875 
Q 30.03125 74.21875 34.609375 68.875 
Q 39.203125 63.53125 39.203125 54.390625 
Q 39.203125 45.171875 34.640625 39.84375 
Q 30.078125 34.515625 22.3125 34.515625 
Q 14.546875 34.515625 10.03125 39.859375 
Q 5.515625 45.21875 5.515625 54.390625 
Q 5.515625 63.484375 10.046875 68.84375 
Q 14.59375 74.21875 22.3125 74.21875 
z
" id="DejaVuSans-37"/>
     </defs>
     <g transform="translate(93.832812 275.595156)rotate(-90)scale(0.1 -0.1)">
      <use xlink:href="#DejaVuSans-84"/>
      <use x="55.208984" xlink:href="#DejaVuSans-67"/>
      <use x="125.033203" xlink:href="#DejaVuSans-76"/>
      <use x="180.746094" xlink:href="#DejaVuSans-115"/>
      <use x="232.845703" xlink:href="#DejaVuSans-32"/>
      <use x="264.632812" xlink:href="#DejaVuSans-115"/>
      <use x="316.732422" xlink:href="#DejaVuSans-116"/>
      <use x="355.941406" xlink:href="#DejaVuSans-97"/>
      <use x="417.220703" xlink:href="#DejaVuSans-116"/>
      <use x="456.429688" xlink:href="#DejaVuSans-101"/>
      <use x="517.953125" xlink:href="#DejaVuSans-32"/>
      <use x="549.740234" xlink:href="#DejaVuSans-111"/>
      <use x="610.921875" xlink:href="#DejaVuSans-102"/>
      <use x="646.126953" xlink:href="#DejaVuSans-32"/>
      <use x="677.914062" xlink:href="#DejaVuSans-99"/>
      <use x="732.894531" xlink:href="#DejaVuSans-104"/>
      <use x="796.273438" xlink:href="#DejaVuSans-97"/>
      <use x="857.552734" xlink:href="#DejaVuSans-114"/>
      <use x="896.916016" xlink:href="#DejaVuSans-103"/>
      <use x="960.392578" xlink:href="#DejaVuSans-101"/>
      <use x="1021.916016" xlink:href="#DejaVuSans-32"/>
      <use x="1053.703125" xlink:href="#DejaVuSans-37"/>
     </g>
    </g>
   </g>
   <g id="line2d_37">
    <path clip-path="url(#pa125c23258)" d="M 142.275 356.008026 
L 142.275 368.543353 
" style="fill:none;stroke:#000000;stroke-linecap:square;"/>
   </g>
   <g id="line2d_38">
    <path clip-path="url(#pa125c23258)" d="M 142.275 319.169046 
L 142.275 280.016263 
" style="fill:none;stroke:#000000;stroke-linecap:square;"/>
   </g>
   <g id="line2d_39">
    <path clip-path="url(#pa125c23258)" d="M 138.20625 368.543353 
L 146.34375 368.543353 
" style="fill:none;stroke:#000000;stroke-linecap:square;"/>
   </g>
   <g id="line2d_40">
    <path clip-path="url(#pa125c23258)" d="M 138.20625 280.016263 
L 146.34375 280.016263 
" style="fill:none;stroke:#000000;stroke-linecap:square;"/>
   </g>
   <g id="line2d_41"/>
   <g id="line2d_42">
    <path clip-path="url(#pa125c23258)" d="M 174.825 345.444847 
L 174.825 357.895118 
" style="fill:none;stroke:#000000;stroke-linecap:square;"/>
   </g>
   <g id="line2d_43">
    <path clip-path="url(#pa125c23258)" d="M 174.825 281.612004 
L 174.825 269.602511 
" style="fill:none;stroke:#000000;stroke-linecap:square;"/>
   </g>
   <g id="line2d_44">
    <path clip-path="url(#pa125c23258)" d="M 170.75625 357.895118 
L 178.89375 357.895118 
" style="fill:none;stroke:#000000;stroke-linecap:square;"/>
   </g>
   <g id="line2d_45">
    <path clip-path="url(#pa125c23258)" d="M 170.75625 269.602511 
L 178.89375 269.602511 
" style="fill:none;stroke:#000000;stroke-linecap:square;"/>
   </g>
   <g id="line2d_46"/>
   <g id="line2d_47">
    <path clip-path="url(#pa125c23258)" d="M 207.375 353.203852 
L 207.375 365.276604 
" style="fill:none;stroke:#000000;stroke-linecap:square;"/>
   </g>
   <g id="line2d_48">
    <path clip-path="url(#pa125c23258)" d="M 207.375 307.559474 
L 207.375 295.467699 
" style="fill:none;stroke:#000000;stroke-linecap:square;"/>
   </g>
   <g id="line2d_49">
    <path clip-path="url(#pa125c23258)" d="M 203.30625 365.276604 
L 211.44375 365.276604 
" style="fill:none;stroke:#000000;stroke-linecap:square;"/>
   </g>
   <g id="line2d_50">
    <path clip-path="url(#pa125c23258)" d="M 203.30625 295.467699 
L 211.44375 295.467699 
" style="fill:none;stroke:#000000;stroke-linecap:square;"/>
   </g>
   <g id="line2d_51"/>
   <g id="line2d_52">
    <path clip-path="url(#pa125c23258)" d="M 239.925 352.557063 
L 239.925 369.36 
" style="fill:none;stroke:#000000;stroke-linecap:square;"/>
   </g>
   <g id="line2d_53">
    <path clip-path="url(#pa125c23258)" d="M 239.925 321.323528 
L 239.925 281.060726 
" style="fill:none;stroke:#000000;stroke-linecap:square;"/>
   </g>
   <g id="line2d_54">
    <path clip-path="url(#pa125c23258)" d="M 235.85625 369.36 
L 243.99375 369.36 
" style="fill:none;stroke:#000000;stroke-linecap:square;"/>
   </g>
   <g id="line2d_55">
    <path clip-path="url(#pa125c23258)" d="M 235.85625 281.060726 
L 243.99375 281.060726 
" style="fill:none;stroke:#000000;stroke-linecap:square;"/>
   </g>
   <g id="line2d_56"/>
   <g id="line2d_57">
    <path clip-path="url(#pa125c23258)" d="M 272.475 339.61943 
L 272.475 355.191492 
" style="fill:none;stroke:#000000;stroke-linecap:square;"/>
   </g>
   <g id="line2d_58">
    <path clip-path="url(#pa125c23258)" d="M 272.475 282.303418 
L 272.475 266.938472 
" style="fill:none;stroke:#000000;stroke-linecap:square;"/>
   </g>
   <g id="line2d_59">
    <path clip-path="url(#pa125c23258)" d="M 268.40625 355.191492 
L 276.54375 355.191492 
" style="fill:none;stroke:#000000;stroke-linecap:square;"/>
   </g>
   <g id="line2d_60">
    <path clip-path="url(#pa125c23258)" d="M 268.40625 266.938472 
L 276.54375 266.938472 
" style="fill:none;stroke:#000000;stroke-linecap:square;"/>
   </g>
   <g id="line2d_61"/>
   <g id="line2d_62">
    <path clip-path="url(#pa125c23258)" d="M 305.025 298.280895 
L 305.025 314.462723 
" style="fill:none;stroke:#000000;stroke-linecap:square;"/>
   </g>
   <g id="line2d_63">
    <path clip-path="url(#pa125c23258)" d="M 305.025 252.032242 
L 305.025 230.719165 
" style="fill:none;stroke:#000000;stroke-linecap:square;"/>
   </g>
   <g id="line2d_64">
    <path clip-path="url(#pa125c23258)" d="M 300.95625 314.462723 
L 309.09375 314.462723 
" style="fill:none;stroke:#000000;stroke-linecap:square;"/>
   </g>
   <g id="line2d_65">
    <path clip-path="url(#pa125c23258)" d="M 300.95625 230.719165 
L 309.09375 230.719165 
" style="fill:none;stroke:#000000;stroke-linecap:square;"/>
   </g>
   <g id="line2d_66"/>
   <g id="line2d_67">
    <path clip-path="url(#pa125c23258)" d="M 337.575 314.767001 
L 337.575 332.875916 
" style="fill:none;stroke:#000000;stroke-linecap:square;"/>
   </g>
   <g id="line2d_68">
    <path clip-path="url(#pa125c23258)" d="M 337.575 279.193351 
L 337.575 263.998347 
" style="fill:none;stroke:#000000;stroke-linecap:square;"/>
   </g>
   <g id="line2d_69">
    <path clip-path="url(#pa125c23258)" d="M 333.50625 332.875916 
L 341.64375 332.875916 
" style="fill:none;stroke:#000000;stroke-linecap:square;"/>
   </g>
   <g id="line2d_70">
    <path clip-path="url(#pa125c23258)" d="M 333.50625 263.998347 
L 341.64375 263.998347 
" style="fill:none;stroke:#000000;stroke-linecap:square;"/>
   </g>
   <g id="line2d_71"/>
   <g id="line2d_72">
    <path clip-path="url(#pa125c23258)" d="M 370.125 325.302447 
L 370.125 340.468006 
" style="fill:none;stroke:#000000;stroke-linecap:square;"/>
   </g>
   <g id="line2d_73">
    <path clip-path="url(#pa125c23258)" d="M 370.125 294.716326 
L 370.125 251.403867 
" style="fill:none;stroke:#000000;stroke-linecap:square;"/>
   </g>
   <g id="line2d_74">
    <path clip-path="url(#pa125c23258)" d="M 366.05625 340.468006 
L 374.19375 340.468006 
" style="fill:none;stroke:#000000;stroke-linecap:square;"/>
   </g>
   <g id="line2d_75">
    <path clip-path="url(#pa125c23258)" d="M 366.05625 251.403867 
L 374.19375 251.403867 
" style="fill:none;stroke:#000000;stroke-linecap:square;"/>
   </g>
   <g id="line2d_76"/>
   <g id="line2d_77">
    <path clip-path="url(#pa125c23258)" d="M 402.675 334.533188 
L 402.675 350.444603 
" style="fill:none;stroke:#000000;stroke-linecap:square;"/>
   </g>
   <g id="line2d_78">
    <path clip-path="url(#pa125c23258)" d="M 402.675 305.634688 
L 402.675 280.246078 
" style="fill:none;stroke:#000000;stroke-linecap:square;"/>
   </g>
   <g id="line2d_79">
    <path clip-path="url(#pa125c23258)" d="M 398.60625 350.444603 
L 406.74375 350.444603 
" style="fill:none;stroke:#000000;stroke-linecap:square;"/>
   </g>
   <g id="line2d_80">
    <path clip-path="url(#pa125c23258)" d="M 398.60625 280.246078 
L 406.74375 280.246078 
" style="fill:none;stroke:#000000;stroke-linecap:square;"/>
   </g>
   <g id="line2d_81"/>
   <g id="line2d_82">
    <path clip-path="url(#pa125c23258)" d="M 435.225 342.437305 
L 435.225 359.00222 
" style="fill:none;stroke:#000000;stroke-linecap:square;"/>
   </g>
   <g id="line2d_83">
    <path clip-path="url(#pa125c23258)" d="M 435.225 314.467754 
L 435.225 297.716206 
" style="fill:none;stroke:#000000;stroke-linecap:square;"/>
   </g>
   <g id="line2d_84">
    <path clip-path="url(#pa125c23258)" d="M 431.15625 359.00222 
L 439.29375 359.00222 
" style="fill:none;stroke:#000000;stroke-linecap:square;"/>
   </g>
   <g id="line2d_85">
    <path clip-path="url(#pa125c23258)" d="M 431.15625 297.716206 
L 439.29375 297.716206 
" style="fill:none;stroke:#000000;stroke-linecap:square;"/>
   </g>
   <g id="line2d_86"/>
   <g id="line2d_87">
    <path clip-path="url(#pa125c23258)" d="M 467.775 348.947743 
L 467.775 366.575028 
" style="fill:none;stroke:#000000;stroke-linecap:square;"/>
   </g>
   <g id="line2d_88">
    <path clip-path="url(#pa125c23258)" d="M 467.775 321.864915 
L 467.775 309.148895 
" style="fill:none;stroke:#000000;stroke-linecap:square;"/>
   </g>
   <g id="line2d_89">
    <path clip-path="url(#pa125c23258)" d="M 463.70625 366.575028 
L 471.84375 366.575028 
" style="fill:none;stroke:#000000;stroke-linecap:square;"/>
   </g>
   <g id="line2d_90">
    <path clip-path="url(#pa125c23258)" d="M 463.70625 309.148895 
L 471.84375 309.148895 
" style="fill:none;stroke:#000000;stroke-linecap:square;"/>
   </g>
   <g id="line2d_91"/>
   <g id="line2d_92">
    <path clip-path="url(#pa125c23258)" d="M 500.325 352.966 
L 500.325 366.730931 
" style="fill:none;stroke:#000000;stroke-linecap:square;"/>
   </g>
   <g id="line2d_93">
    <path clip-path="url(#pa125c23258)" d="M 500.325 327.652819 
L 500.325 314.973768 
" style="fill:none;stroke:#000000;stroke-linecap:square;"/>
   </g>
   <g id="line2d_94">
    <path clip-path="url(#pa125c23258)" d="M 496.25625 366.730931 
L 504.39375 366.730931 
" style="fill:none;stroke:#000000;stroke-linecap:square;"/>
   </g>
   <g id="line2d_95">
    <path clip-path="url(#pa125c23258)" d="M 496.25625 314.973768 
L 504.39375 314.973768 
" style="fill:none;stroke:#000000;stroke-linecap:square;"/>
   </g>
   <g id="line2d_96">
    <defs>
     <path d="M 0 3 
C 0.795609 3 1.55874 2.683901 2.12132 2.12132 
C 2.683901 1.55874 3 0.795609 3 0 
C 3 -0.795609 2.683901 -1.55874 2.12132 -2.12132 
C 1.55874 -2.683901 0.795609 -3 0 -3 
C -0.795609 -3 -1.55874 -2.683901 -2.12132 -2.12132 
C -2.683901 -1.55874 -3 -0.795609 -3 0 
C -3 0.795609 -2.683901 1.55874 -2.12132 2.12132 
C -1.55874 2.683901 -0.795609 3 0 3 
z
" id="m4c8d89ab52" style="stroke:#000000;"/>
    </defs>
    <g clip-path="url(#pa125c23258)">
     <use style="fill-opacity:0;stroke:#000000;" x="500.325" xlink:href="#m4c8d89ab52" y="280.229303"/>
     <use style="fill-opacity:0;stroke:#000000;" x="500.325" xlink:href="#m4c8d89ab52" y="285.350967"/>
     <use style="fill-opacity:0;stroke:#000000;" x="500.325" xlink:href="#m4c8d89ab52" y="282.89912"/>
     <use style="fill-opacity:0;stroke:#000000;" x="500.325" xlink:href="#m4c8d89ab52" y="280.647024"/>
     <use style="fill-opacity:0;stroke:#000000;" x="500.325" xlink:href="#m4c8d89ab52" y="280.02147"/>
    </g>
   </g>
   <g id="line2d_97">
    <path clip-path="url(#pa125c23258)" d="M 532.875 353.845761 
L 532.875 367.811407 
" style="fill:none;stroke:#000000;stroke-linecap:square;"/>
   </g>
   <g id="line2d_98">
    <path clip-path="url(#pa125c23258)" d="M 532.875 331.903873 
L 532.875 305.980251 
" style="fill:none;stroke:#000000;stroke-linecap:square;"/>
   </g>
   <g id="line2d_99">
    <path clip-path="url(#pa125c23258)" d="M 528.80625 367.811407 
L 536.94375 367.811407 
" style="fill:none;stroke:#000000;stroke-linecap:square;"/>
   </g>
   <g id="line2d_100">
    <path clip-path="url(#pa125c23258)" d="M 528.80625 305.980251 
L 536.94375 305.980251 
" style="fill:none;stroke:#000000;stroke-linecap:square;"/>
   </g>
   <g id="line2d_101">
    <g clip-path="url(#pa125c23258)">
     <use style="fill-opacity:0;stroke:#000000;" x="532.875" xlink:href="#m4c8d89ab52" y="285.179498"/>
     <use style="fill-opacity:0;stroke:#000000;" x="532.875" xlink:href="#m4c8d89ab52" y="281.299876"/>
     <use style="fill-opacity:0;stroke:#000000;" x="532.875" xlink:href="#m4c8d89ab52" y="283.217107"/>
     <use style="fill-opacity:0;stroke:#000000;" x="532.875" xlink:href="#m4c8d89ab52" y="282.545187"/>
     <use style="fill-opacity:0;stroke:#000000;" x="532.875" xlink:href="#m4c8d89ab52" y="279.597182"/>
     <use style="fill-opacity:0;stroke:#000000;" x="532.875" xlink:href="#m4c8d89ab52" y="280.691827"/>
    </g>
   </g>
   <g id="line2d_102">
    <path clip-path="url(#pa125c23258)" d="M 565.425 349.410203 
L 565.425 367.288447 
" style="fill:none;stroke:#000000;stroke-linecap:square;"/>
   </g>
   <g id="line2d_103">
    <path clip-path="url(#pa125c23258)" d="M 565.425 327.372689 
L 565.425 305.331706 
" style="fill:none;stroke:#000000;stroke-linecap:square;"/>
   </g>
   <g id="line2d_104">
    <path clip-path="url(#pa125c23258)" d="M 561.35625 367.288447 
L 569.49375 367.288447 
" style="fill:none;stroke:#000000;stroke-linecap:square;"/>
   </g>
   <g id="line2d_105">
    <path clip-path="url(#pa125c23258)" d="M 561.35625 305.331706 
L 569.49375 305.331706 
" style="fill:none;stroke:#000000;stroke-linecap:square;"/>
   </g>
   <g id="line2d_106">
    <g clip-path="url(#pa125c23258)">
     <use style="fill-opacity:0;stroke:#000000;" x="565.425" xlink:href="#m4c8d89ab52" y="280.531587"/>
     <use style="fill-opacity:0;stroke:#000000;" x="565.425" xlink:href="#m4c8d89ab52" y="282.854758"/>
     <use style="fill-opacity:0;stroke:#000000;" x="565.425" xlink:href="#m4c8d89ab52" y="281.838981"/>
     <use style="fill-opacity:0;stroke:#000000;" x="565.425" xlink:href="#m4c8d89ab52" y="280.319637"/>
     <use style="fill-opacity:0;stroke:#000000;" x="565.425" xlink:href="#m4c8d89ab52" y="286.299112"/>
     <use style="fill-opacity:0;stroke:#000000;" x="565.425" xlink:href="#m4c8d89ab52" y="282.566928"/>
     <use style="fill-opacity:0;stroke:#000000;" x="565.425" xlink:href="#m4c8d89ab52" y="279.945428"/>
     <use style="fill-opacity:0;stroke:#000000;" x="565.425" xlink:href="#m4c8d89ab52" y="285.265903"/>
     <use style="fill-opacity:0;stroke:#000000;" x="565.425" xlink:href="#m4c8d89ab52" y="280.676445"/>
     <use style="fill-opacity:0;stroke:#000000;" x="565.425" xlink:href="#m4c8d89ab52" y="284.931848"/>
     <use style="fill-opacity:0;stroke:#000000;" x="565.425" xlink:href="#m4c8d89ab52" y="280.075352"/>
     <use style="fill-opacity:0;stroke:#000000;" x="565.425" xlink:href="#m4c8d89ab52" y="282.929855"/>
     <use style="fill-opacity:0;stroke:#000000;" x="565.425" xlink:href="#m4c8d89ab52" y="283.131852"/>
    </g>
   </g>
   <g id="line2d_107">
    <path clip-path="url(#pa125c23258)" d="M 597.975 352.118487 
L 597.975 366.569024 
" style="fill:none;stroke:#000000;stroke-linecap:square;"/>
   </g>
   <g id="line2d_108">
    <path clip-path="url(#pa125c23258)" d="M 597.975 321.576527 
L 597.975 279.534797 
" style="fill:none;stroke:#000000;stroke-linecap:square;"/>
   </g>
   <g id="line2d_109">
    <path clip-path="url(#pa125c23258)" d="M 593.90625 366.569024 
L 602.04375 366.569024 
" style="fill:none;stroke:#000000;stroke-linecap:square;"/>
   </g>
   <g id="line2d_110">
    <path clip-path="url(#pa125c23258)" d="M 593.90625 279.534797 
L 602.04375 279.534797 
" style="fill:none;stroke:#000000;stroke-linecap:square;"/>
   </g>
   <g id="line2d_111"/>
   <g id="line2d_112">
    <path clip-path="url(#pa125c23258)" d="M 630.525 357.201979 
L 630.525 367.183669 
" style="fill:none;stroke:#000000;stroke-linecap:square;"/>
   </g>
   <g id="line2d_113">
    <path clip-path="url(#pa125c23258)" d="M 630.525 327.660745 
L 630.525 283.51718 
" style="fill:none;stroke:#000000;stroke-linecap:square;"/>
   </g>
   <g id="line2d_114">
    <path clip-path="url(#pa125c23258)" d="M 626.45625 367.183669 
L 634.59375 367.183669 
" style="fill:none;stroke:#000000;stroke-linecap:square;"/>
   </g>
   <g id="line2d_115">
    <path clip-path="url(#pa125c23258)" d="M 626.45625 283.51718 
L 634.59375 283.51718 
" style="fill:none;stroke:#000000;stroke-linecap:square;"/>
   </g>
   <g id="line2d_116">
    <g clip-path="url(#pa125c23258)">
     <use style="fill-opacity:0;stroke:#000000;" x="630.525" xlink:href="#m4c8d89ab52" y="281.442067"/>
     <use style="fill-opacity:0;stroke:#000000;" x="630.525" xlink:href="#m4c8d89ab52" y="282.229914"/>
    </g>
   </g>
   <g id="line2d_117">
    <path clip-path="url(#pa125c23258)" d="M 663.075 358.501981 
L 663.075 366.495756 
" style="fill:none;stroke:#000000;stroke-linecap:square;"/>
   </g>
   <g id="line2d_118">
    <path clip-path="url(#pa125c23258)" d="M 663.075 329.237756 
L 663.075 305.32878 
" style="fill:none;stroke:#000000;stroke-linecap:square;"/>
   </g>
   <g id="line2d_119">
    <path clip-path="url(#pa125c23258)" d="M 659.00625 366.495756 
L 667.14375 366.495756 
" style="fill:none;stroke:#000000;stroke-linecap:square;"/>
   </g>
   <g id="line2d_120">
    <path clip-path="url(#pa125c23258)" d="M 659.00625 305.32878 
L 667.14375 305.32878 
" style="fill:none;stroke:#000000;stroke-linecap:square;"/>
   </g>
   <g id="line2d_121">
    <g clip-path="url(#pa125c23258)">
     <use style="fill-opacity:0;stroke:#000000;" x="663.075" xlink:href="#m4c8d89ab52" y="279.629223"/>
     <use style="fill-opacity:0;stroke:#000000;" x="663.075" xlink:href="#m4c8d89ab52" y="281.861788"/>
     <use style="fill-opacity:0;stroke:#000000;" x="663.075" xlink:href="#m4c8d89ab52" y="281.32919"/>
     <use style="fill-opacity:0;stroke:#000000;" x="663.075" xlink:href="#m4c8d89ab52" y="282.592812"/>
     <use style="fill-opacity:0;stroke:#000000;" x="663.075" xlink:href="#m4c8d89ab52" y="284.530028"/>
     <use style="fill-opacity:0;stroke:#000000;" x="663.075" xlink:href="#m4c8d89ab52" y="284.062868"/>
     <use style="fill-opacity:0;stroke:#000000;" x="663.075" xlink:href="#m4c8d89ab52" y="283.113537"/>
     <use style="fill-opacity:0;stroke:#000000;" x="663.075" xlink:href="#m4c8d89ab52" y="282.773819"/>
     <use style="fill-opacity:0;stroke:#000000;" x="663.075" xlink:href="#m4c8d89ab52" y="280.262578"/>
     <use style="fill-opacity:0;stroke:#000000;" x="663.075" xlink:href="#m4c8d89ab52" y="282.635865"/>
    </g>
   </g>
   <g id="line2d_122">
    <path clip-path="url(#pa125c23258)" d="M 695.625 356.484508 
L 695.625 367.333369 
" style="fill:none;stroke:#000000;stroke-linecap:square;"/>
   </g>
   <g id="line2d_123">
    <path clip-path="url(#pa125c23258)" d="M 695.625 309.136852 
L 695.625 278.754561 
" style="fill:none;stroke:#000000;stroke-linecap:square;"/>
   </g>
   <g id="line2d_124">
    <path clip-path="url(#pa125c23258)" d="M 691.55625 367.333369 
L 699.69375 367.333369 
" style="fill:none;stroke:#000000;stroke-linecap:square;"/>
   </g>
   <g id="line2d_125">
    <path clip-path="url(#pa125c23258)" d="M 691.55625 278.754561 
L 699.69375 278.754561 
" style="fill:none;stroke:#000000;stroke-linecap:square;"/>
   </g>
   <g id="line2d_126"/>
   <g id="line2d_127">
    <path clip-path="url(#pa125c23258)" d="M 728.175 354.198632 
L 728.175 366.508211 
" style="fill:none;stroke:#000000;stroke-linecap:square;"/>
   </g>
   <g id="line2d_128">
    <path clip-path="url(#pa125c23258)" d="M 728.175 306.7332 
L 728.175 278.468113 
" style="fill:none;stroke:#000000;stroke-linecap:square;"/>
   </g>
   <g id="line2d_129">
    <path clip-path="url(#pa125c23258)" d="M 724.10625 366.508211 
L 732.24375 366.508211 
" style="fill:none;stroke:#000000;stroke-linecap:square;"/>
   </g>
   <g id="line2d_130">
    <path clip-path="url(#pa125c23258)" d="M 724.10625 278.468113 
L 732.24375 278.468113 
" style="fill:none;stroke:#000000;stroke-linecap:square;"/>
   </g>
   <g id="line2d_131"/>
   <g id="line2d_132">
    <path clip-path="url(#pa125c23258)" d="M 760.725 352.038198 
L 760.725 366.826179 
" style="fill:none;stroke:#000000;stroke-linecap:square;"/>
   </g>
   <g id="line2d_133">
    <path clip-path="url(#pa125c23258)" d="M 760.725 307.972355 
L 760.725 278.303929 
" style="fill:none;stroke:#000000;stroke-linecap:square;"/>
   </g>
   <g id="line2d_134">
    <path clip-path="url(#pa125c23258)" d="M 756.65625 366.826179 
L 764.79375 366.826179 
" style="fill:none;stroke:#000000;stroke-linecap:square;"/>
   </g>
   <g id="line2d_135">
    <path clip-path="url(#pa125c23258)" d="M 756.65625 278.303929 
L 764.79375 278.303929 
" style="fill:none;stroke:#000000;stroke-linecap:square;"/>
   </g>
   <g id="line2d_136"/>
   <g id="line2d_137">
    <path clip-path="url(#pa125c23258)" d="M 793.275 354.60054 
L 793.275 368.003574 
" style="fill:none;stroke:#000000;stroke-linecap:square;"/>
   </g>
   <g id="line2d_138">
    <path clip-path="url(#pa125c23258)" d="M 793.275 319.296826 
L 793.275 279.282234 
" style="fill:none;stroke:#000000;stroke-linecap:square;"/>
   </g>
   <g id="line2d_139">
    <path clip-path="url(#pa125c23258)" d="M 789.20625 368.003574 
L 797.34375 368.003574 
" style="fill:none;stroke:#000000;stroke-linecap:square;"/>
   </g>
   <g id="line2d_140">
    <path clip-path="url(#pa125c23258)" d="M 789.20625 279.282234 
L 797.34375 279.282234 
" style="fill:none;stroke:#000000;stroke-linecap:square;"/>
   </g>
   <g id="line2d_141"/>
   <g id="line2d_142">
    <path clip-path="url(#pa125c23258)" d="M 825.825 350.366815 
L 825.825 367.148184 
" style="fill:none;stroke:#000000;stroke-linecap:square;"/>
   </g>
   <g id="line2d_143">
    <path clip-path="url(#pa125c23258)" d="M 825.825 320.247781 
L 825.825 278.130969 
" style="fill:none;stroke:#000000;stroke-linecap:square;"/>
   </g>
   <g id="line2d_144">
    <path clip-path="url(#pa125c23258)" d="M 821.75625 367.148184 
L 829.89375 367.148184 
" style="fill:none;stroke:#000000;stroke-linecap:square;"/>
   </g>
   <g id="line2d_145">
    <path clip-path="url(#pa125c23258)" d="M 821.75625 278.130969 
L 829.89375 278.130969 
" style="fill:none;stroke:#000000;stroke-linecap:square;"/>
   </g>
   <g id="line2d_146"/>
   <g id="line2d_147">
    <path clip-path="url(#pa125c23258)" d="M 858.375 349.577457 
L 858.375 367.885115 
" style="fill:none;stroke:#000000;stroke-linecap:square;"/>
   </g>
   <g id="line2d_148">
    <path clip-path="url(#pa125c23258)" d="M 858.375 319.805591 
L 858.375 278.452672 
" style="fill:none;stroke:#000000;stroke-linecap:square;"/>
   </g>
   <g id="line2d_149">
    <path clip-path="url(#pa125c23258)" d="M 854.30625 367.885115 
L 862.44375 367.885115 
" style="fill:none;stroke:#000000;stroke-linecap:square;"/>
   </g>
   <g id="line2d_150">
    <path clip-path="url(#pa125c23258)" d="M 854.30625 278.452672 
L 862.44375 278.452672 
" style="fill:none;stroke:#000000;stroke-linecap:square;"/>
   </g>
   <g id="line2d_151"/>
   <g id="line2d_152">
    <path clip-path="url(#pa125c23258)" d="M 890.925 351.711227 
L 890.925 366.076662 
" style="fill:none;stroke:#000000;stroke-linecap:square;"/>
   </g>
   <g id="line2d_153">
    <path clip-path="url(#pa125c23258)" d="M 890.925 324.80899 
L 890.925 286.989667 
" style="fill:none;stroke:#000000;stroke-linecap:square;"/>
   </g>
   <g id="line2d_154">
    <path clip-path="url(#pa125c23258)" d="M 886.85625 366.076662 
L 894.99375 366.076662 
" style="fill:none;stroke:#000000;stroke-linecap:square;"/>
   </g>
   <g id="line2d_155">
    <path clip-path="url(#pa125c23258)" d="M 886.85625 286.989667 
L 894.99375 286.989667 
" style="fill:none;stroke:#000000;stroke-linecap:square;"/>
   </g>
   <g id="line2d_156">
    <g clip-path="url(#pa125c23258)">
     <use style="fill-opacity:0;stroke:#000000;" x="890.925" xlink:href="#m4c8d89ab52" y="281.928523"/>
     <use style="fill-opacity:0;stroke:#000000;" x="890.925" xlink:href="#m4c8d89ab52" y="280.734199"/>
     <use style="fill-opacity:0;stroke:#000000;" x="890.925" xlink:href="#m4c8d89ab52" y="284.390243"/>
     <use style="fill-opacity:0;stroke:#000000;" x="890.925" xlink:href="#m4c8d89ab52" y="280.626778"/>
     <use style="fill-opacity:0;stroke:#000000;" x="890.925" xlink:href="#m4c8d89ab52" y="281.772191"/>
    </g>
   </g>
   <g id="patch_4">
    <path clip-path="url(#pa125c23258)" d="M 134.1375 356.008026 
L 150.4125 356.008026 
L 150.4125 319.169046 
L 134.1375 319.169046 
L 134.1375 356.008026 
z
" style="fill:#ffa500;stroke:#000000;stroke-linejoin:miter;"/>
   </g>
   <g id="patch_5">
    <path clip-path="url(#pa125c23258)" d="M 166.6875 345.444847 
L 182.9625 345.444847 
L 182.9625 281.612004 
L 166.6875 281.612004 
L 166.6875 345.444847 
z
" style="fill:#ffa500;stroke:#000000;stroke-linejoin:miter;"/>
   </g>
   <g id="patch_6">
    <path clip-path="url(#pa125c23258)" d="M 199.2375 353.203852 
L 215.5125 353.203852 
L 215.5125 307.559474 
L 199.2375 307.559474 
L 199.2375 353.203852 
z
" style="fill:#ffa500;stroke:#000000;stroke-linejoin:miter;"/>
   </g>
   <g id="patch_7">
    <path clip-path="url(#pa125c23258)" d="M 231.7875 352.557063 
L 248.0625 352.557063 
L 248.0625 321.323528 
L 231.7875 321.323528 
L 231.7875 352.557063 
z
" style="fill:#ffa500;stroke:#000000;stroke-linejoin:miter;"/>
   </g>
   <g id="patch_8">
    <path clip-path="url(#pa125c23258)" d="M 264.3375 339.61943 
L 280.6125 339.61943 
L 280.6125 282.303418 
L 264.3375 282.303418 
L 264.3375 339.61943 
z
" style="fill:#ffa500;stroke:#000000;stroke-linejoin:miter;"/>
   </g>
   <g id="patch_9">
    <path clip-path="url(#pa125c23258)" d="M 296.8875 298.280895 
L 313.1625 298.280895 
L 313.1625 252.032242 
L 296.8875 252.032242 
L 296.8875 298.280895 
z
" style="fill:#ffa500;stroke:#000000;stroke-linejoin:miter;"/>
   </g>
   <g id="patch_10">
    <path clip-path="url(#pa125c23258)" d="M 329.4375 314.767001 
L 345.7125 314.767001 
L 345.7125 279.193351 
L 329.4375 279.193351 
L 329.4375 314.767001 
z
" style="fill:#ffa500;stroke:#000000;stroke-linejoin:miter;"/>
   </g>
   <g id="patch_11">
    <path clip-path="url(#pa125c23258)" d="M 361.9875 325.302447 
L 378.2625 325.302447 
L 378.2625 294.716326 
L 361.9875 294.716326 
L 361.9875 325.302447 
z
" style="fill:#ffa500;stroke:#000000;stroke-linejoin:miter;"/>
   </g>
   <g id="patch_12">
    <path clip-path="url(#pa125c23258)" d="M 394.5375 334.533188 
L 410.8125 334.533188 
L 410.8125 305.634688 
L 394.5375 305.634688 
L 394.5375 334.533188 
z
" style="fill:#ffa500;stroke:#000000;stroke-linejoin:miter;"/>
   </g>
   <g id="patch_13">
    <path clip-path="url(#pa125c23258)" d="M 427.0875 342.437305 
L 443.3625 342.437305 
L 443.3625 314.467754 
L 427.0875 314.467754 
L 427.0875 342.437305 
z
" style="fill:#ffa500;stroke:#000000;stroke-linejoin:miter;"/>
   </g>
   <g id="patch_14">
    <path clip-path="url(#pa125c23258)" d="M 459.6375 348.947743 
L 475.9125 348.947743 
L 475.9125 321.864915 
L 459.6375 321.864915 
L 459.6375 348.947743 
z
" style="fill:#ffa500;stroke:#000000;stroke-linejoin:miter;"/>
   </g>
   <g id="patch_15">
    <path clip-path="url(#pa125c23258)" d="M 492.1875 352.966 
L 508.4625 352.966 
L 508.4625 327.652819 
L 492.1875 327.652819 
L 492.1875 352.966 
z
" style="fill:#ffa500;stroke:#000000;stroke-linejoin:miter;"/>
   </g>
   <g id="patch_16">
    <path clip-path="url(#pa125c23258)" d="M 524.7375 353.845761 
L 541.0125 353.845761 
L 541.0125 331.903873 
L 524.7375 331.903873 
L 524.7375 353.845761 
z
" style="fill:#ffa500;stroke:#000000;stroke-linejoin:miter;"/>
   </g>
   <g id="patch_17">
    <path clip-path="url(#pa125c23258)" d="M 557.2875 349.410203 
L 573.5625 349.410203 
L 573.5625 327.372689 
L 557.2875 327.372689 
L 557.2875 349.410203 
z
" style="fill:#ffa500;stroke:#000000;stroke-linejoin:miter;"/>
   </g>
   <g id="patch_18">
    <path clip-path="url(#pa125c23258)" d="M 589.8375 352.118487 
L 606.1125 352.118487 
L 606.1125 321.576527 
L 589.8375 321.576527 
L 589.8375 352.118487 
z
" style="fill:#ffa500;stroke:#000000;stroke-linejoin:miter;"/>
   </g>
   <g id="patch_19">
    <path clip-path="url(#pa125c23258)" d="M 622.3875 357.201979 
L 638.6625 357.201979 
L 638.6625 327.660745 
L 622.3875 327.660745 
L 622.3875 357.201979 
z
" style="fill:#ffa500;stroke:#000000;stroke-linejoin:miter;"/>
   </g>
   <g id="patch_20">
    <path clip-path="url(#pa125c23258)" d="M 654.9375 358.501981 
L 671.2125 358.501981 
L 671.2125 329.237756 
L 654.9375 329.237756 
L 654.9375 358.501981 
z
" style="fill:#ffa500;stroke:#000000;stroke-linejoin:miter;"/>
   </g>
   <g id="patch_21">
    <path clip-path="url(#pa125c23258)" d="M 687.4875 356.484508 
L 703.7625 356.484508 
L 703.7625 309.136852 
L 687.4875 309.136852 
L 687.4875 356.484508 
z
" style="fill:#ffa500;stroke:#000000;stroke-linejoin:miter;"/>
   </g>
   <g id="patch_22">
    <path clip-path="url(#pa125c23258)" d="M 720.0375 354.198632 
L 736.3125 354.198632 
L 736.3125 306.7332 
L 720.0375 306.7332 
L 720.0375 354.198632 
z
" style="fill:#ffa500;stroke:#000000;stroke-linejoin:miter;"/>
   </g>
   <g id="patch_23">
    <path clip-path="url(#pa125c23258)" d="M 752.5875 352.038198 
L 768.8625 352.038198 
L 768.8625 307.972355 
L 752.5875 307.972355 
L 752.5875 352.038198 
z
" style="fill:#ffa500;stroke:#000000;stroke-linejoin:miter;"/>
   </g>
   <g id="patch_24">
    <path clip-path="url(#pa125c23258)" d="M 785.1375 354.60054 
L 801.4125 354.60054 
L 801.4125 319.296826 
L 785.1375 319.296826 
L 785.1375 354.60054 
z
" style="fill:#ffa500;stroke:#000000;stroke-linejoin:miter;"/>
   </g>
   <g id="patch_25">
    <path clip-path="url(#pa125c23258)" d="M 817.6875 350.366815 
L 833.9625 350.366815 
L 833.9625 320.247781 
L 817.6875 320.247781 
L 817.6875 350.366815 
z
" style="fill:#ffa500;stroke:#000000;stroke-linejoin:miter;"/>
   </g>
   <g id="patch_26">
    <path clip-path="url(#pa125c23258)" d="M 850.2375 349.577457 
L 866.5125 349.577457 
L 866.5125 319.805591 
L 850.2375 319.805591 
L 850.2375 349.577457 
z
" style="fill:#ffa500;stroke:#000000;stroke-linejoin:miter;"/>
   </g>
   <g id="patch_27">
    <path clip-path="url(#pa125c23258)" d="M 882.7875 351.711227 
L 899.0625 351.711227 
L 899.0625 324.80899 
L 882.7875 324.80899 
L 882.7875 351.711227 
z
" style="fill:#ffa500;stroke:#000000;stroke-linejoin:miter;"/>
   </g>
   <g id="line2d_157">
    <path clip-path="url(#pa125c23258)" d="M 134.1375 340.341035 
L 150.4125 340.341035 
" style="fill:none;stroke:#000000;stroke-linecap:square;"/>
   </g>
   <g id="line2d_158">
    <path clip-path="url(#pa125c23258)" d="M 166.6875 319.582567 
L 182.9625 319.582567 
" style="fill:none;stroke:#000000;stroke-linecap:square;"/>
   </g>
   <g id="line2d_159">
    <path clip-path="url(#pa125c23258)" d="M 199.2375 331.618889 
L 215.5125 331.618889 
" style="fill:none;stroke:#000000;stroke-linecap:square;"/>
   </g>
   <g id="line2d_160">
    <path clip-path="url(#pa125c23258)" d="M 231.7875 337.256851 
L 248.0625 337.256851 
" style="fill:none;stroke:#000000;stroke-linecap:square;"/>
   </g>
   <g id="line2d_161">
    <path clip-path="url(#pa125c23258)" d="M 264.3375 328.471318 
L 280.6125 328.471318 
" style="fill:none;stroke:#000000;stroke-linecap:square;"/>
   </g>
   <g id="line2d_162">
    <path clip-path="url(#pa125c23258)" d="M 296.8875 263.166898 
L 313.1625 263.166898 
" style="fill:none;stroke:#000000;stroke-linecap:square;"/>
   </g>
   <g id="line2d_163">
    <path clip-path="url(#pa125c23258)" d="M 329.4375 289.806436 
L 345.7125 289.806436 
" style="fill:none;stroke:#000000;stroke-linecap:square;"/>
   </g>
   <g id="line2d_164">
    <path clip-path="url(#pa125c23258)" d="M 361.9875 304.484199 
L 378.2625 304.484199 
" style="fill:none;stroke:#000000;stroke-linecap:square;"/>
   </g>
   <g id="line2d_165">
    <path clip-path="url(#pa125c23258)" d="M 394.5375 315.058079 
L 410.8125 315.058079 
" style="fill:none;stroke:#000000;stroke-linecap:square;"/>
   </g>
   <g id="line2d_166">
    <path clip-path="url(#pa125c23258)" d="M 427.0875 324.015998 
L 443.3625 324.015998 
" style="fill:none;stroke:#000000;stroke-linecap:square;"/>
   </g>
   <g id="line2d_167">
    <path clip-path="url(#pa125c23258)" d="M 459.6375 330.824419 
L 475.9125 330.824419 
" style="fill:none;stroke:#000000;stroke-linecap:square;"/>
   </g>
   <g id="line2d_168">
    <path clip-path="url(#pa125c23258)" d="M 492.1875 335.026886 
L 508.4625 335.026886 
" style="fill:none;stroke:#000000;stroke-linecap:square;"/>
   </g>
   <g id="line2d_169">
    <path clip-path="url(#pa125c23258)" d="M 524.7375 340.039802 
L 541.0125 340.039802 
" style="fill:none;stroke:#000000;stroke-linecap:square;"/>
   </g>
   <g id="line2d_170">
    <path clip-path="url(#pa125c23258)" d="M 557.2875 340.801978 
L 573.5625 340.801978 
" style="fill:none;stroke:#000000;stroke-linecap:square;"/>
   </g>
   <g id="line2d_171">
    <path clip-path="url(#pa125c23258)" d="M 589.8375 344.05835 
L 606.1125 344.05835 
" style="fill:none;stroke:#000000;stroke-linecap:square;"/>
   </g>
   <g id="line2d_172">
    <path clip-path="url(#pa125c23258)" d="M 622.3875 346.182567 
L 638.6625 346.182567 
" style="fill:none;stroke:#000000;stroke-linecap:square;"/>
   </g>
   <g id="line2d_173">
    <path clip-path="url(#pa125c23258)" d="M 654.9375 348.349744 
L 671.2125 348.349744 
" style="fill:none;stroke:#000000;stroke-linecap:square;"/>
   </g>
   <g id="line2d_174">
    <path clip-path="url(#pa125c23258)" d="M 687.4875 344.518924 
L 703.7625 344.518924 
" style="fill:none;stroke:#000000;stroke-linecap:square;"/>
   </g>
   <g id="line2d_175">
    <path clip-path="url(#pa125c23258)" d="M 720.0375 336.28576 
L 736.3125 336.28576 
" style="fill:none;stroke:#000000;stroke-linecap:square;"/>
   </g>
   <g id="line2d_176">
    <path clip-path="url(#pa125c23258)" d="M 752.5875 329.868227 
L 768.8625 329.868227 
" style="fill:none;stroke:#000000;stroke-linecap:square;"/>
   </g>
   <g id="line2d_177">
    <path clip-path="url(#pa125c23258)" d="M 785.1375 334.061025 
L 801.4125 334.061025 
" style="fill:none;stroke:#000000;stroke-linecap:square;"/>
   </g>
   <g id="line2d_178">
    <path clip-path="url(#pa125c23258)" d="M 817.6875 335.758787 
L 833.9625 335.758787 
" style="fill:none;stroke:#000000;stroke-linecap:square;"/>
   </g>
   <g id="line2d_179">
    <path clip-path="url(#pa125c23258)" d="M 850.2375 338.752049 
L 866.5125 338.752049 
" style="fill:none;stroke:#000000;stroke-linecap:square;"/>
   </g>
   <g id="line2d_180">
    <path clip-path="url(#pa125c23258)" d="M 882.7875 341.66862 
L 899.0625 341.66862 
" style="fill:none;stroke:#000000;stroke-linecap:square;"/>
   </g>
   <g id="patch_28">
    <path d="M 126 384.48 
L 126 51.84 
" style="fill:none;stroke:#000000;stroke-linecap:square;stroke-linejoin:miter;stroke-width:0.8;"/>
   </g>
   <g id="patch_29">
    <path d="M 907.2 384.48 
L 907.2 51.84 
" style="fill:none;stroke:#000000;stroke-linecap:square;stroke-linejoin:miter;stroke-width:0.8;"/>
   </g>
   <g id="patch_30">
    <path d="M 126 384.48 
L 907.2 384.48 
" style="fill:none;stroke:#000000;stroke-linecap:square;stroke-linejoin:miter;stroke-width:0.8;"/>
   </g>
   <g id="patch_31">
    <path d="M 126 51.84 
L 907.2 51.84 
" style="fill:none;stroke:#000000;stroke-linecap:square;stroke-linejoin:miter;stroke-width:0.8;"/>
   </g>
   <g id="legend_1">
    <g id="patch_32">
     <path d="M 9.849687 24.622125 
L 197.12 24.622125 
Q 199.12 24.622125 199.12 22.622125 
L 199.12 8.944 
Q 199.12 6.944 197.12 6.944 
L 9.849687 6.944 
Q 7.849687 6.944 7.849687 8.944 
L 7.849687 22.622125 
Q 7.849687 24.622125 9.849687 24.622125 
z
" style="fill:#ffffff;opacity:0.8;stroke:#cccccc;stroke-linejoin:miter;"/>
    </g>
    <g id="patch_33">
     <path d="M 11.849687 18.542438 
L 31.849687 18.542438 
L 31.849687 11.542438 
L 11.849687 11.542438 
z
" style="fill:#ffa500;stroke:#000000;stroke-linejoin:miter;"/>
    </g>
    <g id="text_32">
     <!-- Distribution of states of charge -->
     <defs>
      <path d="M 19.671875 64.796875 
L 19.671875 8.109375 
L 31.59375 8.109375 
Q 46.6875 8.109375 53.6875 14.9375 
Q 60.6875 21.78125 60.6875 36.53125 
Q 60.6875 51.171875 53.6875 57.984375 
Q 46.6875 64.796875 31.59375 64.796875 
z
M 9.8125 72.90625 
L 30.078125 72.90625 
Q 51.265625 72.90625 61.171875 64.09375 
Q 71.09375 55.28125 71.09375 36.53125 
Q 71.09375 17.671875 61.125 8.828125 
Q 51.171875 0 30.078125 0 
L 9.8125 0 
z
" id="DejaVuSans-68"/>
      <path d="M 9.421875 54.6875 
L 18.40625 54.6875 
L 18.40625 0 
L 9.421875 0 
z
M 9.421875 75.984375 
L 18.40625 75.984375 
L 18.40625 64.59375 
L 9.421875 64.59375 
z
" id="DejaVuSans-105"/>
      <path d="M 48.6875 27.296875 
Q 48.6875 37.203125 44.609375 42.84375 
Q 40.53125 48.484375 33.40625 48.484375 
Q 26.265625 48.484375 22.1875 42.84375 
Q 18.109375 37.203125 18.109375 27.296875 
Q 18.109375 17.390625 22.1875 11.75 
Q 26.265625 6.109375 33.40625 6.109375 
Q 40.53125 6.109375 44.609375 11.75 
Q 48.6875 17.390625 48.6875 27.296875 
z
M 18.109375 46.390625 
Q 20.953125 51.265625 25.265625 53.625 
Q 29.59375 56 35.59375 56 
Q 45.5625 56 51.78125 48.09375 
Q 58.015625 40.1875 58.015625 27.296875 
Q 58.015625 14.40625 51.78125 6.484375 
Q 45.5625 -1.421875 35.59375 -1.421875 
Q 29.59375 -1.421875 25.265625 0.953125 
Q 20.953125 3.328125 18.109375 8.203125 
L 18.109375 0 
L 9.078125 0 
L 9.078125 75.984375 
L 18.109375 75.984375 
z
" id="DejaVuSans-98"/>
      <path d="M 8.5 21.578125 
L 8.5 54.6875 
L 17.484375 54.6875 
L 17.484375 21.921875 
Q 17.484375 14.15625 20.5 10.265625 
Q 23.53125 6.390625 29.59375 6.390625 
Q 36.859375 6.390625 41.078125 11.03125 
Q 45.3125 15.671875 45.3125 23.6875 
L 45.3125 54.6875 
L 54.296875 54.6875 
L 54.296875 0 
L 45.3125 0 
L 45.3125 8.40625 
Q 42.046875 3.421875 37.71875 1 
Q 33.40625 -1.421875 27.6875 -1.421875 
Q 18.265625 -1.421875 13.375 4.4375 
Q 8.5 10.296875 8.5 21.578125 
z
M 31.109375 56 
z
" id="DejaVuSans-117"/>
      <path d="M 54.890625 33.015625 
L 54.890625 0 
L 45.90625 0 
L 45.90625 32.71875 
Q 45.90625 40.484375 42.875 44.328125 
Q 39.84375 48.1875 33.796875 48.1875 
Q 26.515625 48.1875 22.3125 43.546875 
Q 18.109375 38.921875 18.109375 30.90625 
L 18.109375 0 
L 9.078125 0 
L 9.078125 54.6875 
L 18.109375 54.6875 
L 18.109375 46.1875 
Q 21.34375 51.125 25.703125 53.5625 
Q 30.078125 56 35.796875 56 
Q 45.21875 56 50.046875 50.171875 
Q 54.890625 44.34375 54.890625 33.015625 
z
" id="DejaVuSans-110"/>
     </defs>
     <g transform="translate(39.849687 18.542438)scale(0.1 -0.1)">
      <use xlink:href="#DejaVuSans-68"/>
      <use x="77.001953" xlink:href="#DejaVuSans-105"/>
      <use x="104.785156" xlink:href="#DejaVuSans-115"/>
      <use x="156.884766" xlink:href="#DejaVuSans-116"/>
      <use x="196.09375" xlink:href="#DejaVuSans-114"/>
      <use x="237.207031" xlink:href="#DejaVuSans-105"/>
      <use x="264.990234" xlink:href="#DejaVuSans-98"/>
      <use x="328.466797" xlink:href="#DejaVuSans-117"/>
      <use x="391.845703" xlink:href="#DejaVuSans-116"/>
      <use x="431.054688" xlink:href="#DejaVuSans-105"/>
      <use x="458.837891" xlink:href="#DejaVuSans-111"/>
      <use x="520.019531" xlink:href="#DejaVuSans-110"/>
      <use x="583.398438" xlink:href="#DejaVuSans-32"/>
      <use x="615.185547" xlink:href="#DejaVuSans-111"/>
      <use x="676.367188" xlink:href="#DejaVuSans-102"/>
      <use x="711.572266" xlink:href="#DejaVuSans-32"/>
      <use x="743.359375" xlink:href="#DejaVuSans-115"/>
      <use x="795.458984" xlink:href="#DejaVuSans-116"/>
      <use x="834.667969" xlink:href="#DejaVuSans-97"/>
      <use x="895.947266" xlink:href="#DejaVuSans-116"/>
      <use x="935.15625" xlink:href="#DejaVuSans-101"/>
      <use x="996.679688" xlink:href="#DejaVuSans-115"/>
      <use x="1048.779297" xlink:href="#DejaVuSans-32"/>
      <use x="1080.566406" xlink:href="#DejaVuSans-111"/>
      <use x="1141.748047" xlink:href="#DejaVuSans-102"/>
      <use x="1176.953125" xlink:href="#DejaVuSans-32"/>
      <use x="1208.740234" xlink:href="#DejaVuSans-99"/>
      <use x="1263.720703" xlink:href="#DejaVuSans-104"/>
      <use x="1327.099609" xlink:href="#DejaVuSans-97"/>
      <use x="1388.378906" xlink:href="#DejaVuSans-114"/>
      <use x="1427.742188" xlink:href="#DejaVuSans-103"/>
      <use x="1491.21875" xlink:href="#DejaVuSans-101"/>
     </g>
    </g>
   </g>
  </g>
  <g id="axes_2">
   <g id="matplotlib.axis_3">
    <g id="ytick_7">
     <g id="line2d_181">
      <defs>
       <path d="M 0 0 
L 3.5 0 
" id="m6de7ad2ae6" style="stroke:#000000;stroke-width:0.8;"/>
      </defs>
      <g>
       <use style="stroke:#000000;stroke-width:0.8;" x="907.2" xlink:href="#m6de7ad2ae6" y="348.262326"/>
      </g>
     </g>
     <g id="text_33">
      <!-- 3 -->
      <defs>
       <path d="M 10.59375 35.5 
L 73.1875 35.5 
L 73.1875 27.203125 
L 10.59375 27.203125 
z
" id="DejaVuSans-8722"/>
      </defs>
      <g transform="translate(914.2 352.061544)scale(0.1 -0.1)">
       <use xlink:href="#DejaVuSans-8722"/>
       <use x="83.789062" xlink:href="#DejaVuSans-51"/>
      </g>
     </g>
    </g>
    <g id="ytick_8">
     <g id="line2d_182">
      <g>
       <use style="stroke:#000000;stroke-width:0.8;" x="907.2" xlink:href="#m6de7ad2ae6" y="277.936744"/>
      </g>
     </g>
     <g id="text_34">
      <!-- 2 -->
      <g transform="translate(914.2 281.735963)scale(0.1 -0.1)">
       <use xlink:href="#DejaVuSans-8722"/>
       <use x="83.789062" xlink:href="#DejaVuSans-50"/>
      </g>
     </g>
    </g>
    <g id="ytick_9">
     <g id="line2d_183">
      <g>
       <use style="stroke:#000000;stroke-width:0.8;" x="907.2" xlink:href="#m6de7ad2ae6" y="207.611163"/>
      </g>
     </g>
     <g id="text_35">
      <!-- 1 -->
      <g transform="translate(914.2 211.410382)scale(0.1 -0.1)">
       <use xlink:href="#DejaVuSans-8722"/>
       <use x="83.789062" xlink:href="#DejaVuSans-49"/>
      </g>
     </g>
    </g>
    <g id="ytick_10">
     <g id="line2d_184">
      <g>
       <use style="stroke:#000000;stroke-width:0.8;" x="907.2" xlink:href="#m6de7ad2ae6" y="137.285581"/>
      </g>
     </g>
     <g id="text_36">
      <!-- 0 -->
      <g transform="translate(914.2 141.0848)scale(0.1 -0.1)">
       <use xlink:href="#DejaVuSans-48"/>
      </g>
     </g>
    </g>
    <g id="ytick_11">
     <g id="line2d_185">
      <g>
       <use style="stroke:#000000;stroke-width:0.8;" x="907.2" xlink:href="#m6de7ad2ae6" y="66.96"/>
      </g>
     </g>
     <g id="text_37">
      <!-- 1 -->
      <g transform="translate(914.2 70.759219)scale(0.1 -0.1)">
       <use xlink:href="#DejaVuSans-49"/>
      </g>
     </g>
    </g>
    <g id="text_38">
     <!-- Temperatures C -->
     <defs>
      <path d="M 52 44.1875 
Q 55.375 50.25 60.0625 53.125 
Q 64.75 56 71.09375 56 
Q 79.640625 56 84.28125 50.015625 
Q 88.921875 44.046875 88.921875 33.015625 
L 88.921875 0 
L 79.890625 0 
L 79.890625 32.71875 
Q 79.890625 40.578125 77.09375 44.375 
Q 74.3125 48.1875 68.609375 48.1875 
Q 61.625 48.1875 57.5625 43.546875 
Q 53.515625 38.921875 53.515625 30.90625 
L 53.515625 0 
L 44.484375 0 
L 44.484375 32.71875 
Q 44.484375 40.625 41.703125 44.40625 
Q 38.921875 48.1875 33.109375 48.1875 
Q 26.21875 48.1875 22.15625 43.53125 
Q 18.109375 38.875 18.109375 30.90625 
L 18.109375 0 
L 9.078125 0 
L 9.078125 54.6875 
L 18.109375 54.6875 
L 18.109375 46.1875 
Q 21.1875 51.21875 25.484375 53.609375 
Q 29.78125 56 35.6875 56 
Q 41.65625 56 45.828125 52.96875 
Q 50 49.953125 52 44.1875 
z
" id="DejaVuSans-109"/>
      <path d="M 18.109375 8.203125 
L 18.109375 -20.796875 
L 9.078125 -20.796875 
L 9.078125 54.6875 
L 18.109375 54.6875 
L 18.109375 46.390625 
Q 20.953125 51.265625 25.265625 53.625 
Q 29.59375 56 35.59375 56 
Q 45.5625 56 51.78125 48.09375 
Q 58.015625 40.1875 58.015625 27.296875 
Q 58.015625 14.40625 51.78125 6.484375 
Q 45.5625 -1.421875 35.59375 -1.421875 
Q 29.59375 -1.421875 25.265625 0.953125 
Q 20.953125 3.328125 18.109375 8.203125 
z
M 48.6875 27.296875 
Q 48.6875 37.203125 44.609375 42.84375 
Q 40.53125 48.484375 33.40625 48.484375 
Q 26.265625 48.484375 22.1875 42.84375 
Q 18.109375 37.203125 18.109375 27.296875 
Q 18.109375 17.390625 22.1875 11.75 
Q 26.265625 6.109375 33.40625 6.109375 
Q 40.53125 6.109375 44.609375 11.75 
Q 48.6875 17.390625 48.6875 27.296875 
z
" id="DejaVuSans-112"/>
      <path d="M 25 67.921875 
Q 21.09375 67.921875 18.40625 65.203125 
Q 15.71875 62.5 15.71875 58.59375 
Q 15.71875 54.734375 18.40625 52.078125 
Q 21.09375 49.421875 25 49.421875 
Q 28.90625 49.421875 31.59375 52.078125 
Q 34.28125 54.734375 34.28125 58.59375 
Q 34.28125 62.453125 31.5625 65.1875 
Q 28.859375 67.921875 25 67.921875 
z
M 25 74.21875 
Q 28.125 74.21875 31 73.015625 
Q 33.890625 71.828125 35.984375 69.578125 
Q 38.234375 67.390625 39.359375 64.59375 
Q 40.484375 61.8125 40.484375 58.59375 
Q 40.484375 52.15625 35.96875 47.6875 
Q 31.453125 43.21875 24.90625 43.21875 
Q 18.3125 43.21875 13.90625 47.609375 
Q 9.515625 52 9.515625 58.59375 
Q 9.515625 65.140625 14 69.671875 
Q 18.5 74.21875 25 74.21875 
z
" id="DejaVuSans-176"/>
     </defs>
     <g transform="translate(940.540625 260.014687)rotate(-90)scale(0.1 -0.1)">
      <use xlink:href="#DejaVuSans-84"/>
      <use x="44.083984" xlink:href="#DejaVuSans-101"/>
      <use x="105.607422" xlink:href="#DejaVuSans-109"/>
      <use x="203.019531" xlink:href="#DejaVuSans-112"/>
      <use x="266.496094" xlink:href="#DejaVuSans-101"/>
      <use x="328.019531" xlink:href="#DejaVuSans-114"/>
      <use x="369.132812" xlink:href="#DejaVuSans-97"/>
      <use x="430.412109" xlink:href="#DejaVuSans-116"/>
      <use x="469.621094" xlink:href="#DejaVuSans-117"/>
      <use x="533" xlink:href="#DejaVuSans-114"/>
      <use x="571.863281" xlink:href="#DejaVuSans-101"/>
      <use x="633.386719" xlink:href="#DejaVuSans-115"/>
      <use x="685.486328" xlink:href="#DejaVuSans-32"/>
      <use x="717.273438" xlink:href="#DejaVuSans-176"/>
      <use x="767.273438" xlink:href="#DejaVuSans-67"/>
     </g>
    </g>
   </g>
   <g id="line2d_186">
    <path clip-path="url(#pa125c23258)" d="M 142.275 284.969302 
L 174.825 277.936744 
L 207.375 313.099535 
L 239.925 369.36 
L 272.475 362.327442 
L 305.025 369.36 
L 337.575 348.262326 
L 370.125 327.164651 
L 402.675 299.034419 
L 435.225 263.871628 
L 467.775 207.611163 
L 500.325 165.415814 
L 532.875 158.383256 
L 565.425 158.383256 
L 597.975 158.383256 
L 630.525 151.350698 
L 663.075 81.025116 
L 695.625 165.415814 
L 728.175 179.48093 
L 760.725 165.415814 
L 793.275 151.350698 
L 825.825 144.31814 
L 858.375 123.220465 
L 890.925 66.96 
" style="fill:none;stroke:#1f77b4;stroke-dasharray:5.55,2.4;stroke-dashoffset:0;stroke-width:1.5;"/>
   </g>
   <g id="patch_34">
    <path d="M 126 384.48 
L 126 51.84 
" style="fill:none;stroke:#000000;stroke-linecap:square;stroke-linejoin:miter;stroke-width:0.8;"/>
   </g>
   <g id="patch_35">
    <path d="M 907.2 384.48 
L 907.2 51.84 
" style="fill:none;stroke:#000000;stroke-linecap:square;stroke-linejoin:miter;stroke-width:0.8;"/>
   </g>
   <g id="patch_36">
    <path d="M 126 384.48 
L 907.2 384.48 
" style="fill:none;stroke:#000000;stroke-linecap:square;stroke-linejoin:miter;stroke-width:0.8;"/>
   </g>
   <g id="patch_37">
    <path d="M 126 51.84 
L 907.2 51.84 
" style="fill:none;stroke:#000000;stroke-linecap:square;stroke-linejoin:miter;stroke-width:0.8;"/>
   </g>
   <g id="text_39">
    <!-- TCLs state of charge and outdoor Temperatures -->
    <defs>
     <path d="M 45.40625 46.390625 
L 45.40625 75.984375 
L 54.390625 75.984375 
L 54.390625 0 
L 45.40625 0 
L 45.40625 8.203125 
Q 42.578125 3.328125 38.25 0.953125 
Q 33.9375 -1.421875 27.875 -1.421875 
Q 17.96875 -1.421875 11.734375 6.484375 
Q 5.515625 14.40625 5.515625 27.296875 
Q 5.515625 40.1875 11.734375 48.09375 
Q 17.96875 56 27.875 56 
Q 33.9375 56 38.25 53.625 
Q 42.578125 51.265625 45.40625 46.390625 
z
M 14.796875 27.296875 
Q 14.796875 17.390625 18.875 11.75 
Q 22.953125 6.109375 30.078125 6.109375 
Q 37.203125 6.109375 41.296875 11.75 
Q 45.40625 17.390625 45.40625 27.296875 
Q 45.40625 37.203125 41.296875 42.84375 
Q 37.203125 48.484375 30.078125 48.484375 
Q 22.953125 48.484375 18.875 42.84375 
Q 14.796875 37.203125 14.796875 27.296875 
z
" id="DejaVuSans-100"/>
    </defs>
    <g transform="translate(373.703438 45.84)scale(0.12 -0.12)">
     <use xlink:href="#DejaVuSans-84"/>
     <use x="55.208984" xlink:href="#DejaVuSans-67"/>
     <use x="125.033203" xlink:href="#DejaVuSans-76"/>
     <use x="180.746094" xlink:href="#DejaVuSans-115"/>
     <use x="232.845703" xlink:href="#DejaVuSans-32"/>
     <use x="264.632812" xlink:href="#DejaVuSans-115"/>
     <use x="316.732422" xlink:href="#DejaVuSans-116"/>
     <use x="355.941406" xlink:href="#DejaVuSans-97"/>
     <use x="417.220703" xlink:href="#DejaVuSans-116"/>
     <use x="456.429688" xlink:href="#DejaVuSans-101"/>
     <use x="517.953125" xlink:href="#DejaVuSans-32"/>
     <use x="549.740234" xlink:href="#DejaVuSans-111"/>
     <use x="610.921875" xlink:href="#DejaVuSans-102"/>
     <use x="646.126953" xlink:href="#DejaVuSans-32"/>
     <use x="677.914062" xlink:href="#DejaVuSans-99"/>
     <use x="732.894531" xlink:href="#DejaVuSans-104"/>
     <use x="796.273438" xlink:href="#DejaVuSans-97"/>
     <use x="857.552734" xlink:href="#DejaVuSans-114"/>
     <use x="896.916016" xlink:href="#DejaVuSans-103"/>
     <use x="960.392578" xlink:href="#DejaVuSans-101"/>
     <use x="1021.916016" xlink:href="#DejaVuSans-32"/>
     <use x="1053.703125" xlink:href="#DejaVuSans-97"/>
     <use x="1114.982422" xlink:href="#DejaVuSans-110"/>
     <use x="1178.361328" xlink:href="#DejaVuSans-100"/>
     <use x="1241.837891" xlink:href="#DejaVuSans-32"/>
     <use x="1273.625" xlink:href="#DejaVuSans-111"/>
     <use x="1334.806641" xlink:href="#DejaVuSans-117"/>
     <use x="1398.185547" xlink:href="#DejaVuSans-116"/>
     <use x="1437.394531" xlink:href="#DejaVuSans-100"/>
     <use x="1500.871094" xlink:href="#DejaVuSans-111"/>
     <use x="1562.052734" xlink:href="#DejaVuSans-111"/>
     <use x="1623.234375" xlink:href="#DejaVuSans-114"/>
     <use x="1664.347656" xlink:href="#DejaVuSans-32"/>
     <use x="1696.134766" xlink:href="#DejaVuSans-84"/>
     <use x="1740.21875" xlink:href="#DejaVuSans-101"/>
     <use x="1801.742188" xlink:href="#DejaVuSans-109"/>
     <use x="1899.154297" xlink:href="#DejaVuSans-112"/>
     <use x="1962.630859" xlink:href="#DejaVuSans-101"/>
     <use x="2024.154297" xlink:href="#DejaVuSans-114"/>
     <use x="2065.267578" xlink:href="#DejaVuSans-97"/>
     <use x="2126.546875" xlink:href="#DejaVuSans-116"/>
     <use x="2165.755859" xlink:href="#DejaVuSans-117"/>
     <use x="2229.134766" xlink:href="#DejaVuSans-114"/>
     <use x="2267.998047" xlink:href="#DejaVuSans-101"/>
     <use x="2329.521484" xlink:href="#DejaVuSans-115"/>
    </g>
   </g>
   <g id="legend_2">
    <g id="patch_38">
     <path d="M 755.646875 24.622125 
L 900.2 24.622125 
Q 902.2 24.622125 902.2 22.622125 
L 902.2 8.944 
Q 902.2 6.944 900.2 6.944 
L 755.646875 6.944 
Q 753.646875 6.944 753.646875 8.944 
L 753.646875 22.622125 
Q 753.646875 24.622125 755.646875 24.622125 
z
" style="fill:#ffffff;opacity:0.8;stroke:#cccccc;stroke-linejoin:miter;"/>
    </g>
    <g id="line2d_187">
     <path d="M 757.646875 15.042438 
L 777.646875 15.042438 
" style="fill:none;stroke:#1f77b4;stroke-dasharray:5.55,2.4;stroke-dashoffset:0;stroke-width:1.5;"/>
    </g>
    <g id="line2d_188"/>
    <g id="text_40">
     <!-- Outdoor Temperatures -->
     <defs>
      <path d="M 39.40625 66.21875 
Q 28.65625 66.21875 22.328125 58.203125 
Q 16.015625 50.203125 16.015625 36.375 
Q 16.015625 22.609375 22.328125 14.59375 
Q 28.65625 6.59375 39.40625 6.59375 
Q 50.140625 6.59375 56.421875 14.59375 
Q 62.703125 22.609375 62.703125 36.375 
Q 62.703125 50.203125 56.421875 58.203125 
Q 50.140625 66.21875 39.40625 66.21875 
z
M 39.40625 74.21875 
Q 54.734375 74.21875 63.90625 63.9375 
Q 73.09375 53.65625 73.09375 36.375 
Q 73.09375 19.140625 63.90625 8.859375 
Q 54.734375 -1.421875 39.40625 -1.421875 
Q 24.03125 -1.421875 14.8125 8.828125 
Q 5.609375 19.09375 5.609375 36.375 
Q 5.609375 53.65625 14.8125 63.9375 
Q 24.03125 74.21875 39.40625 74.21875 
z
" id="DejaVuSans-79"/>
     </defs>
     <g transform="translate(785.646875 18.542438)scale(0.1 -0.1)">
      <use xlink:href="#DejaVuSans-79"/>
      <use x="78.710938" xlink:href="#DejaVuSans-117"/>
      <use x="142.089844" xlink:href="#DejaVuSans-116"/>
      <use x="181.298828" xlink:href="#DejaVuSans-100"/>
      <use x="244.775391" xlink:href="#DejaVuSans-111"/>
      <use x="305.957031" xlink:href="#DejaVuSans-111"/>
      <use x="367.138672" xlink:href="#DejaVuSans-114"/>
      <use x="408.251953" xlink:href="#DejaVuSans-32"/>
      <use x="440.039062" xlink:href="#DejaVuSans-84"/>
      <use x="484.123047" xlink:href="#DejaVuSans-101"/>
      <use x="545.646484" xlink:href="#DejaVuSans-109"/>
      <use x="643.058594" xlink:href="#DejaVuSans-112"/>
      <use x="706.535156" xlink:href="#DejaVuSans-101"/>
      <use x="768.058594" xlink:href="#DejaVuSans-114"/>
      <use x="809.171875" xlink:href="#DejaVuSans-97"/>
      <use x="870.451172" xlink:href="#DejaVuSans-116"/>
      <use x="909.660156" xlink:href="#DejaVuSans-117"/>
      <use x="973.039062" xlink:href="#DejaVuSans-114"/>
      <use x="1011.902344" xlink:href="#DejaVuSans-101"/>
      <use x="1073.425781" xlink:href="#DejaVuSans-115"/>
     </g>
    </g>
   </g>
  </g>
 </g>
 <defs>
  <clipPath id="pa125c23258">
   <rect height="332.64" width="781.2" x="126" y="51.84"/>
  </clipPath>
 </defs>
</svg>
