<?xml version="1.0" encoding="utf-8" standalone="no"?>
<!DOCTYPE svg PUBLIC "-//W3C//DTD SVG 1.1//EN"
  "http://www.w3.org/Graphics/SVG/1.1/DTD/svg11.dtd">
<!-- Created with matplotlib (https://matplotlib.org/) -->
<svg height="432pt" version="1.1" viewBox="0 0 1008 432" width="1008pt" xmlns="http://www.w3.org/2000/svg" xmlns:xlink="http://www.w3.org/1999/xlink">
 <defs>
  <style type="text/css">
*{stroke-linecap:butt;stroke-linejoin:round;}
  </style>
 </defs>
 <g id="figure_1">
  <g id="patch_1">
   <path d="M 0 432 
L 1008 432 
L 1008 0 
L 0 0 
z
" style="fill:#ffffff;"/>
  </g>
  <g id="axes_1">
   <g id="patch_2">
    <path d="M 126 384.48 
L 907.2 384.48 
L 907.2 51.84 
L 126 51.84 
z
" style="fill:#c0c0c0;"/>
   </g>
   <g id="matplotlib.axis_1">
    <g id="xtick_1">
     <g id="line2d_1">
      <defs>
       <path d="M 0 0 
L 0 3.5 
" id="me821efedea" style="stroke:#000000;stroke-width:0.8;"/>
      </defs>
      <g>
       <use style="stroke:#000000;stroke-width:0.8;" x="142.275" xlink:href="#me821efedea" y="384.48"/>
      </g>
     </g>
     <g id="text_1">
      <!-- 0 -->
      <defs>
       <path d="M 31.78125 66.40625 
Q 24.171875 66.40625 20.328125 58.90625 
Q 16.5 51.421875 16.5 36.375 
Q 16.5 21.390625 20.328125 13.890625 
Q 24.171875 6.390625 31.78125 6.390625 
Q 39.453125 6.390625 43.28125 13.890625 
Q 47.125 21.390625 47.125 36.375 
Q 47.125 51.421875 43.28125 58.90625 
Q 39.453125 66.40625 31.78125 66.40625 
z
M 31.78125 74.21875 
Q 44.046875 74.21875 50.515625 64.515625 
Q 56.984375 54.828125 56.984375 36.375 
Q 56.984375 17.96875 50.515625 8.265625 
Q 44.046875 -1.421875 31.78125 -1.421875 
Q 19.53125 -1.421875 13.0625 8.265625 
Q 6.59375 17.96875 6.59375 36.375 
Q 6.59375 54.828125 13.0625 64.515625 
Q 19.53125 74.21875 31.78125 74.21875 
z
" id="DejaVuSans-48"/>
      </defs>
      <g transform="translate(139.09375 399.078438)scale(0.1 -0.1)">
       <use xlink:href="#DejaVuSans-48"/>
      </g>
     </g>
    </g>
    <g id="xtick_2">
     <g id="line2d_2">
      <g>
       <use style="stroke:#000000;stroke-width:0.8;" x="174.825" xlink:href="#me821efedea" y="384.48"/>
      </g>
     </g>
     <g id="text_2">
      <!-- 1 -->
      <defs>
       <path d="M 12.40625 8.296875 
L 28.515625 8.296875 
L 28.515625 63.921875 
L 10.984375 60.40625 
L 10.984375 69.390625 
L 28.421875 72.90625 
L 38.28125 72.90625 
L 38.28125 8.296875 
L 54.390625 8.296875 
L 54.390625 0 
L 12.40625 0 
z
" id="DejaVuSans-49"/>
      </defs>
      <g transform="translate(171.64375 399.078438)scale(0.1 -0.1)">
       <use xlink:href="#DejaVuSans-49"/>
      </g>
     </g>
    </g>
    <g id="xtick_3">
     <g id="line2d_3">
      <g>
       <use style="stroke:#000000;stroke-width:0.8;" x="207.375" xlink:href="#me821efedea" y="384.48"/>
      </g>
     </g>
     <g id="text_3">
      <!-- 2 -->
      <defs>
       <path d="M 19.1875 8.296875 
L 53.609375 8.296875 
L 53.609375 0 
L 7.328125 0 
L 7.328125 8.296875 
Q 12.9375 14.109375 22.625 23.890625 
Q 32.328125 33.6875 34.8125 36.53125 
Q 39.546875 41.84375 41.421875 45.53125 
Q 43.3125 49.21875 43.3125 52.78125 
Q 43.3125 58.59375 39.234375 62.25 
Q 35.15625 65.921875 28.609375 65.921875 
Q 23.96875 65.921875 18.8125 64.3125 
Q 13.671875 62.703125 7.8125 59.421875 
L 7.8125 69.390625 
Q 13.765625 71.78125 18.9375 73 
Q 24.125 74.21875 28.421875 74.21875 
Q 39.75 74.21875 46.484375 68.546875 
Q 53.21875 62.890625 53.21875 53.421875 
Q 53.21875 48.921875 51.53125 44.890625 
Q 49.859375 40.875 45.40625 35.40625 
Q 44.1875 33.984375 37.640625 27.21875 
Q 31.109375 20.453125 19.1875 8.296875 
z
" id="DejaVuSans-50"/>
      </defs>
      <g transform="translate(204.19375 399.078438)scale(0.1 -0.1)">
       <use xlink:href="#DejaVuSans-50"/>
      </g>
     </g>
    </g>
    <g id="xtick_4">
     <g id="line2d_4">
      <g>
       <use style="stroke:#000000;stroke-width:0.8;" x="239.925" xlink:href="#me821efedea" y="384.48"/>
      </g>
     </g>
     <g id="text_4">
      <!-- 3 -->
      <defs>
       <path d="M 40.578125 39.3125 
Q 47.65625 37.796875 51.625 33 
Q 55.609375 28.21875 55.609375 21.1875 
Q 55.609375 10.40625 48.1875 4.484375 
Q 40.765625 -1.421875 27.09375 -1.421875 
Q 22.515625 -1.421875 17.65625 -0.515625 
Q 12.796875 0.390625 7.625 2.203125 
L 7.625 11.71875 
Q 11.71875 9.328125 16.59375 8.109375 
Q 21.484375 6.890625 26.8125 6.890625 
Q 36.078125 6.890625 40.9375 10.546875 
Q 45.796875 14.203125 45.796875 21.1875 
Q 45.796875 27.640625 41.28125 31.265625 
Q 36.765625 34.90625 28.71875 34.90625 
L 20.21875 34.90625 
L 20.21875 43.015625 
L 29.109375 43.015625 
Q 36.375 43.015625 40.234375 45.921875 
Q 44.09375 48.828125 44.09375 54.296875 
Q 44.09375 59.90625 40.109375 62.90625 
Q 36.140625 65.921875 28.71875 65.921875 
Q 24.65625 65.921875 20.015625 65.03125 
Q 15.375 64.15625 9.8125 62.3125 
L 9.8125 71.09375 
Q 15.4375 72.65625 20.34375 73.4375 
Q 25.25 74.21875 29.59375 74.21875 
Q 40.828125 74.21875 47.359375 69.109375 
Q 53.90625 64.015625 53.90625 55.328125 
Q 53.90625 49.265625 50.4375 45.09375 
Q 46.96875 40.921875 40.578125 39.3125 
z
" id="DejaVuSans-51"/>
      </defs>
      <g transform="translate(236.74375 399.078438)scale(0.1 -0.1)">
       <use xlink:href="#DejaVuSans-51"/>
      </g>
     </g>
    </g>
    <g id="xtick_5">
     <g id="line2d_5">
      <g>
       <use style="stroke:#000000;stroke-width:0.8;" x="272.475" xlink:href="#me821efedea" y="384.48"/>
      </g>
     </g>
     <g id="text_5">
      <!-- 4 -->
      <defs>
       <path d="M 37.796875 64.3125 
L 12.890625 25.390625 
L 37.796875 25.390625 
z
M 35.203125 72.90625 
L 47.609375 72.90625 
L 47.609375 25.390625 
L 58.015625 25.390625 
L 58.015625 17.1875 
L 47.609375 17.1875 
L 47.609375 0 
L 37.796875 0 
L 37.796875 17.1875 
L 4.890625 17.1875 
L 4.890625 26.703125 
z
" id="DejaVuSans-52"/>
      </defs>
      <g transform="translate(269.29375 399.078438)scale(0.1 -0.1)">
       <use xlink:href="#DejaVuSans-52"/>
      </g>
     </g>
    </g>
    <g id="xtick_6">
     <g id="line2d_6">
      <g>
       <use style="stroke:#000000;stroke-width:0.8;" x="305.025" xlink:href="#me821efedea" y="384.48"/>
      </g>
     </g>
     <g id="text_6">
      <!-- 5 -->
      <defs>
       <path d="M 10.796875 72.90625 
L 49.515625 72.90625 
L 49.515625 64.59375 
L 19.828125 64.59375 
L 19.828125 46.734375 
Q 21.96875 47.46875 24.109375 47.828125 
Q 26.265625 48.1875 28.421875 48.1875 
Q 40.625 48.1875 47.75 41.5 
Q 54.890625 34.8125 54.890625 23.390625 
Q 54.890625 11.625 47.5625 5.09375 
Q 40.234375 -1.421875 26.90625 -1.421875 
Q 22.3125 -1.421875 17.546875 -0.640625 
Q 12.796875 0.140625 7.71875 1.703125 
L 7.71875 11.625 
Q 12.109375 9.234375 16.796875 8.0625 
Q 21.484375 6.890625 26.703125 6.890625 
Q 35.15625 6.890625 40.078125 11.328125 
Q 45.015625 15.765625 45.015625 23.390625 
Q 45.015625 31 40.078125 35.4375 
Q 35.15625 39.890625 26.703125 39.890625 
Q 22.75 39.890625 18.8125 39.015625 
Q 14.890625 38.140625 10.796875 36.28125 
z
" id="DejaVuSans-53"/>
      </defs>
      <g transform="translate(301.84375 399.078438)scale(0.1 -0.1)">
       <use xlink:href="#DejaVuSans-53"/>
      </g>
     </g>
    </g>
    <g id="xtick_7">
     <g id="line2d_7">
      <g>
       <use style="stroke:#000000;stroke-width:0.8;" x="337.575" xlink:href="#me821efedea" y="384.48"/>
      </g>
     </g>
     <g id="text_7">
      <!-- 6 -->
      <defs>
       <path d="M 33.015625 40.375 
Q 26.375 40.375 22.484375 35.828125 
Q 18.609375 31.296875 18.609375 23.390625 
Q 18.609375 15.53125 22.484375 10.953125 
Q 26.375 6.390625 33.015625 6.390625 
Q 39.65625 6.390625 43.53125 10.953125 
Q 47.40625 15.53125 47.40625 23.390625 
Q 47.40625 31.296875 43.53125 35.828125 
Q 39.65625 40.375 33.015625 40.375 
z
M 52.59375 71.296875 
L 52.59375 62.3125 
Q 48.875 64.0625 45.09375 64.984375 
Q 41.3125 65.921875 37.59375 65.921875 
Q 27.828125 65.921875 22.671875 59.328125 
Q 17.53125 52.734375 16.796875 39.40625 
Q 19.671875 43.65625 24.015625 45.921875 
Q 28.375 48.1875 33.59375 48.1875 
Q 44.578125 48.1875 50.953125 41.515625 
Q 57.328125 34.859375 57.328125 23.390625 
Q 57.328125 12.15625 50.6875 5.359375 
Q 44.046875 -1.421875 33.015625 -1.421875 
Q 20.359375 -1.421875 13.671875 8.265625 
Q 6.984375 17.96875 6.984375 36.375 
Q 6.984375 53.65625 15.1875 63.9375 
Q 23.390625 74.21875 37.203125 74.21875 
Q 40.921875 74.21875 44.703125 73.484375 
Q 48.484375 72.75 52.59375 71.296875 
z
" id="DejaVuSans-54"/>
      </defs>
      <g transform="translate(334.39375 399.078438)scale(0.1 -0.1)">
       <use xlink:href="#DejaVuSans-54"/>
      </g>
     </g>
    </g>
    <g id="xtick_8">
     <g id="line2d_8">
      <g>
       <use style="stroke:#000000;stroke-width:0.8;" x="370.125" xlink:href="#me821efedea" y="384.48"/>
      </g>
     </g>
     <g id="text_8">
      <!-- 7 -->
      <defs>
       <path d="M 8.203125 72.90625 
L 55.078125 72.90625 
L 55.078125 68.703125 
L 28.609375 0 
L 18.3125 0 
L 43.21875 64.59375 
L 8.203125 64.59375 
z
" id="DejaVuSans-55"/>
      </defs>
      <g transform="translate(366.94375 399.078438)scale(0.1 -0.1)">
       <use xlink:href="#DejaVuSans-55"/>
      </g>
     </g>
    </g>
    <g id="xtick_9">
     <g id="line2d_9">
      <g>
       <use style="stroke:#000000;stroke-width:0.8;" x="402.675" xlink:href="#me821efedea" y="384.48"/>
      </g>
     </g>
     <g id="text_9">
      <!-- 8 -->
      <defs>
       <path d="M 31.78125 34.625 
Q 24.75 34.625 20.71875 30.859375 
Q 16.703125 27.09375 16.703125 20.515625 
Q 16.703125 13.921875 20.71875 10.15625 
Q 24.75 6.390625 31.78125 6.390625 
Q 38.8125 6.390625 42.859375 10.171875 
Q 46.921875 13.96875 46.921875 20.515625 
Q 46.921875 27.09375 42.890625 30.859375 
Q 38.875 34.625 31.78125 34.625 
z
M 21.921875 38.8125 
Q 15.578125 40.375 12.03125 44.71875 
Q 8.5 49.078125 8.5 55.328125 
Q 8.5 64.0625 14.71875 69.140625 
Q 20.953125 74.21875 31.78125 74.21875 
Q 42.671875 74.21875 48.875 69.140625 
Q 55.078125 64.0625 55.078125 55.328125 
Q 55.078125 49.078125 51.53125 44.71875 
Q 48 40.375 41.703125 38.8125 
Q 48.828125 37.15625 52.796875 32.3125 
Q 56.78125 27.484375 56.78125 20.515625 
Q 56.78125 9.90625 50.3125 4.234375 
Q 43.84375 -1.421875 31.78125 -1.421875 
Q 19.734375 -1.421875 13.25 4.234375 
Q 6.78125 9.90625 6.78125 20.515625 
Q 6.78125 27.484375 10.78125 32.3125 
Q 14.796875 37.15625 21.921875 38.8125 
z
M 18.3125 54.390625 
Q 18.3125 48.734375 21.84375 45.5625 
Q 25.390625 42.390625 31.78125 42.390625 
Q 38.140625 42.390625 41.71875 45.5625 
Q 45.3125 48.734375 45.3125 54.390625 
Q 45.3125 60.0625 41.71875 63.234375 
Q 38.140625 66.40625 31.78125 66.40625 
Q 25.390625 66.40625 21.84375 63.234375 
Q 18.3125 60.0625 18.3125 54.390625 
z
" id="DejaVuSans-56"/>
      </defs>
      <g transform="translate(399.49375 399.078438)scale(0.1 -0.1)">
       <use xlink:href="#DejaVuSans-56"/>
      </g>
     </g>
    </g>
    <g id="xtick_10">
     <g id="line2d_10">
      <g>
       <use style="stroke:#000000;stroke-width:0.8;" x="435.225" xlink:href="#me821efedea" y="384.48"/>
      </g>
     </g>
     <g id="text_10">
      <!-- 9 -->
      <defs>
       <path d="M 10.984375 1.515625 
L 10.984375 10.5 
Q 14.703125 8.734375 18.5 7.8125 
Q 22.3125 6.890625 25.984375 6.890625 
Q 35.75 6.890625 40.890625 13.453125 
Q 46.046875 20.015625 46.78125 33.40625 
Q 43.953125 29.203125 39.59375 26.953125 
Q 35.25 24.703125 29.984375 24.703125 
Q 19.046875 24.703125 12.671875 31.3125 
Q 6.296875 37.9375 6.296875 49.421875 
Q 6.296875 60.640625 12.9375 67.421875 
Q 19.578125 74.21875 30.609375 74.21875 
Q 43.265625 74.21875 49.921875 64.515625 
Q 56.59375 54.828125 56.59375 36.375 
Q 56.59375 19.140625 48.40625 8.859375 
Q 40.234375 -1.421875 26.421875 -1.421875 
Q 22.703125 -1.421875 18.890625 -0.6875 
Q 15.09375 0.046875 10.984375 1.515625 
z
M 30.609375 32.421875 
Q 37.25 32.421875 41.125 36.953125 
Q 45.015625 41.5 45.015625 49.421875 
Q 45.015625 57.28125 41.125 61.84375 
Q 37.25 66.40625 30.609375 66.40625 
Q 23.96875 66.40625 20.09375 61.84375 
Q 16.21875 57.28125 16.21875 49.421875 
Q 16.21875 41.5 20.09375 36.953125 
Q 23.96875 32.421875 30.609375 32.421875 
z
" id="DejaVuSans-57"/>
      </defs>
      <g transform="translate(432.04375 399.078438)scale(0.1 -0.1)">
       <use xlink:href="#DejaVuSans-57"/>
      </g>
     </g>
    </g>
    <g id="xtick_11">
     <g id="line2d_11">
      <g>
       <use style="stroke:#000000;stroke-width:0.8;" x="467.775" xlink:href="#me821efedea" y="384.48"/>
      </g>
     </g>
     <g id="text_11">
      <!-- 10 -->
      <g transform="translate(461.4125 399.078438)scale(0.1 -0.1)">
       <use xlink:href="#DejaVuSans-49"/>
       <use x="63.623047" xlink:href="#DejaVuSans-48"/>
      </g>
     </g>
    </g>
    <g id="xtick_12">
     <g id="line2d_12">
      <g>
       <use style="stroke:#000000;stroke-width:0.8;" x="500.325" xlink:href="#me821efedea" y="384.48"/>
      </g>
     </g>
     <g id="text_12">
      <!-- 11 -->
      <g transform="translate(493.9625 399.078438)scale(0.1 -0.1)">
       <use xlink:href="#DejaVuSans-49"/>
       <use x="63.623047" xlink:href="#DejaVuSans-49"/>
      </g>
     </g>
    </g>
    <g id="xtick_13">
     <g id="line2d_13">
      <g>
       <use style="stroke:#000000;stroke-width:0.8;" x="532.875" xlink:href="#me821efedea" y="384.48"/>
      </g>
     </g>
     <g id="text_13">
      <!-- 12 -->
      <g transform="translate(526.5125 399.078438)scale(0.1 -0.1)">
       <use xlink:href="#DejaVuSans-49"/>
       <use x="63.623047" xlink:href="#DejaVuSans-50"/>
      </g>
     </g>
    </g>
    <g id="xtick_14">
     <g id="line2d_14">
      <g>
       <use style="stroke:#000000;stroke-width:0.8;" x="565.425" xlink:href="#me821efedea" y="384.48"/>
      </g>
     </g>
     <g id="text_14">
      <!-- 13 -->
      <g transform="translate(559.0625 399.078438)scale(0.1 -0.1)">
       <use xlink:href="#DejaVuSans-49"/>
       <use x="63.623047" xlink:href="#DejaVuSans-51"/>
      </g>
     </g>
    </g>
    <g id="xtick_15">
     <g id="line2d_15">
      <g>
       <use style="stroke:#000000;stroke-width:0.8;" x="597.975" xlink:href="#me821efedea" y="384.48"/>
      </g>
     </g>
     <g id="text_15">
      <!-- 14 -->
      <g transform="translate(591.6125 399.078438)scale(0.1 -0.1)">
       <use xlink:href="#DejaVuSans-49"/>
       <use x="63.623047" xlink:href="#DejaVuSans-52"/>
      </g>
     </g>
    </g>
    <g id="xtick_16">
     <g id="line2d_16">
      <g>
       <use style="stroke:#000000;stroke-width:0.8;" x="630.525" xlink:href="#me821efedea" y="384.48"/>
      </g>
     </g>
     <g id="text_16">
      <!-- 15 -->
      <g transform="translate(624.1625 399.078438)scale(0.1 -0.1)">
       <use xlink:href="#DejaVuSans-49"/>
       <use x="63.623047" xlink:href="#DejaVuSans-53"/>
      </g>
     </g>
    </g>
    <g id="xtick_17">
     <g id="line2d_17">
      <g>
       <use style="stroke:#000000;stroke-width:0.8;" x="663.075" xlink:href="#me821efedea" y="384.48"/>
      </g>
     </g>
     <g id="text_17">
      <!-- 16 -->
      <g transform="translate(656.7125 399.078438)scale(0.1 -0.1)">
       <use xlink:href="#DejaVuSans-49"/>
       <use x="63.623047" xlink:href="#DejaVuSans-54"/>
      </g>
     </g>
    </g>
    <g id="xtick_18">
     <g id="line2d_18">
      <g>
       <use style="stroke:#000000;stroke-width:0.8;" x="695.625" xlink:href="#me821efedea" y="384.48"/>
      </g>
     </g>
     <g id="text_18">
      <!-- 17 -->
      <g transform="translate(689.2625 399.078438)scale(0.1 -0.1)">
       <use xlink:href="#DejaVuSans-49"/>
       <use x="63.623047" xlink:href="#DejaVuSans-55"/>
      </g>
     </g>
    </g>
    <g id="xtick_19">
     <g id="line2d_19">
      <g>
       <use style="stroke:#000000;stroke-width:0.8;" x="728.175" xlink:href="#me821efedea" y="384.48"/>
      </g>
     </g>
     <g id="text_19">
      <!-- 18 -->
      <g transform="translate(721.8125 399.078438)scale(0.1 -0.1)">
       <use xlink:href="#DejaVuSans-49"/>
       <use x="63.623047" xlink:href="#DejaVuSans-56"/>
      </g>
     </g>
    </g>
    <g id="xtick_20">
     <g id="line2d_20">
      <g>
       <use style="stroke:#000000;stroke-width:0.8;" x="760.725" xlink:href="#me821efedea" y="384.48"/>
      </g>
     </g>
     <g id="text_20">
      <!-- 19 -->
      <g transform="translate(754.3625 399.078438)scale(0.1 -0.1)">
       <use xlink:href="#DejaVuSans-49"/>
       <use x="63.623047" xlink:href="#DejaVuSans-57"/>
      </g>
     </g>
    </g>
    <g id="xtick_21">
     <g id="line2d_21">
      <g>
       <use style="stroke:#000000;stroke-width:0.8;" x="793.275" xlink:href="#me821efedea" y="384.48"/>
      </g>
     </g>
     <g id="text_21">
      <!-- 20 -->
      <g transform="translate(786.9125 399.078438)scale(0.1 -0.1)">
       <use xlink:href="#DejaVuSans-50"/>
       <use x="63.623047" xlink:href="#DejaVuSans-48"/>
      </g>
     </g>
    </g>
    <g id="xtick_22">
     <g id="line2d_22">
      <g>
       <use style="stroke:#000000;stroke-width:0.8;" x="825.825" xlink:href="#me821efedea" y="384.48"/>
      </g>
     </g>
     <g id="text_22">
      <!-- 21 -->
      <g transform="translate(819.4625 399.078438)scale(0.1 -0.1)">
       <use xlink:href="#DejaVuSans-50"/>
       <use x="63.623047" xlink:href="#DejaVuSans-49"/>
      </g>
     </g>
    </g>
    <g id="xtick_23">
     <g id="line2d_23">
      <g>
       <use style="stroke:#000000;stroke-width:0.8;" x="858.375" xlink:href="#me821efedea" y="384.48"/>
      </g>
     </g>
     <g id="text_23">
      <!-- 22 -->
      <g transform="translate(852.0125 399.078438)scale(0.1 -0.1)">
       <use xlink:href="#DejaVuSans-50"/>
       <use x="63.623047" xlink:href="#DejaVuSans-50"/>
      </g>
     </g>
    </g>
    <g id="xtick_24">
     <g id="line2d_24">
      <g>
       <use style="stroke:#000000;stroke-width:0.8;" x="890.925" xlink:href="#me821efedea" y="384.48"/>
      </g>
     </g>
     <g id="text_24">
      <!-- 23 -->
      <g transform="translate(884.5625 399.078438)scale(0.1 -0.1)">
       <use xlink:href="#DejaVuSans-50"/>
       <use x="63.623047" xlink:href="#DejaVuSans-51"/>
      </g>
     </g>
    </g>
    <g id="text_25">
     <!-- Time (h) -->
     <defs>
      <path d="M -0.296875 72.90625 
L 61.375 72.90625 
L 61.375 64.59375 
L 35.5 64.59375 
L 35.5 0 
L 25.59375 0 
L 25.59375 64.59375 
L -0.296875 64.59375 
z
" id="DejaVuSans-84"/>
      <path d="M 9.421875 54.6875 
L 18.40625 54.6875 
L 18.40625 0 
L 9.421875 0 
z
M 9.421875 75.984375 
L 18.40625 75.984375 
L 18.40625 64.59375 
L 9.421875 64.59375 
z
" id="DejaVuSans-105"/>
      <path d="M 52 44.1875 
Q 55.375 50.25 60.0625 53.125 
Q 64.75 56 71.09375 56 
Q 79.640625 56 84.28125 50.015625 
Q 88.921875 44.046875 88.921875 33.015625 
L 88.921875 0 
L 79.890625 0 
L 79.890625 32.71875 
Q 79.890625 40.578125 77.09375 44.375 
Q 74.3125 48.1875 68.609375 48.1875 
Q 61.625 48.1875 57.5625 43.546875 
Q 53.515625 38.921875 53.515625 30.90625 
L 53.515625 0 
L 44.484375 0 
L 44.484375 32.71875 
Q 44.484375 40.625 41.703125 44.40625 
Q 38.921875 48.1875 33.109375 48.1875 
Q 26.21875 48.1875 22.15625 43.53125 
Q 18.109375 38.875 18.109375 30.90625 
L 18.109375 0 
L 9.078125 0 
L 9.078125 54.6875 
L 18.109375 54.6875 
L 18.109375 46.1875 
Q 21.1875 51.21875 25.484375 53.609375 
Q 29.78125 56 35.6875 56 
Q 41.65625 56 45.828125 52.96875 
Q 50 49.953125 52 44.1875 
z
" id="DejaVuSans-109"/>
      <path d="M 56.203125 29.59375 
L 56.203125 25.203125 
L 14.890625 25.203125 
Q 15.484375 15.921875 20.484375 11.0625 
Q 25.484375 6.203125 34.421875 6.203125 
Q 39.59375 6.203125 44.453125 7.46875 
Q 49.3125 8.734375 54.109375 11.28125 
L 54.109375 2.78125 
Q 49.265625 0.734375 44.1875 -0.34375 
Q 39.109375 -1.421875 33.890625 -1.421875 
Q 20.796875 -1.421875 13.15625 6.1875 
Q 5.515625 13.8125 5.515625 26.8125 
Q 5.515625 40.234375 12.765625 48.109375 
Q 20.015625 56 32.328125 56 
Q 43.359375 56 49.78125 48.890625 
Q 56.203125 41.796875 56.203125 29.59375 
z
M 47.21875 32.234375 
Q 47.125 39.59375 43.09375 43.984375 
Q 39.0625 48.390625 32.421875 48.390625 
Q 24.90625 48.390625 20.390625 44.140625 
Q 15.875 39.890625 15.1875 32.171875 
z
" id="DejaVuSans-101"/>
      <path id="DejaVuSans-32"/>
      <path d="M 31 75.875 
Q 24.46875 64.65625 21.28125 53.65625 
Q 18.109375 42.671875 18.109375 31.390625 
Q 18.109375 20.125 21.3125 9.0625 
Q 24.515625 -2 31 -13.1875 
L 23.1875 -13.1875 
Q 15.875 -1.703125 12.234375 9.375 
Q 8.59375 20.453125 8.59375 31.390625 
Q 8.59375 42.28125 12.203125 53.3125 
Q 15.828125 64.359375 23.1875 75.875 
z
" id="DejaVuSans-40"/>
      <path d="M 54.890625 33.015625 
L 54.890625 0 
L 45.90625 0 
L 45.90625 32.71875 
Q 45.90625 40.484375 42.875 44.328125 
Q 39.84375 48.1875 33.796875 48.1875 
Q 26.515625 48.1875 22.3125 43.546875 
Q 18.109375 38.921875 18.109375 30.90625 
L 18.109375 0 
L 9.078125 0 
L 9.078125 75.984375 
L 18.109375 75.984375 
L 18.109375 46.1875 
Q 21.34375 51.125 25.703125 53.5625 
Q 30.078125 56 35.796875 56 
Q 45.21875 56 50.046875 50.171875 
Q 54.890625 44.34375 54.890625 33.015625 
z
" id="DejaVuSans-104"/>
      <path d="M 8.015625 75.875 
L 15.828125 75.875 
Q 23.140625 64.359375 26.78125 53.3125 
Q 30.421875 42.28125 30.421875 31.390625 
Q 30.421875 20.453125 26.78125 9.375 
Q 23.140625 -1.703125 15.828125 -13.1875 
L 8.015625 -13.1875 
Q 14.5 -2 17.703125 9.0625 
Q 20.90625 20.125 20.90625 31.390625 
Q 20.90625 42.671875 17.703125 53.65625 
Q 14.5 64.65625 8.015625 75.875 
z
" id="DejaVuSans-41"/>
     </defs>
     <g transform="translate(495.707031 412.756563)scale(0.1 -0.1)">
      <use xlink:href="#DejaVuSans-84"/>
      <use x="57.958984" xlink:href="#DejaVuSans-105"/>
      <use x="85.742188" xlink:href="#DejaVuSans-109"/>
      <use x="183.154297" xlink:href="#DejaVuSans-101"/>
      <use x="244.677734" xlink:href="#DejaVuSans-32"/>
      <use x="276.464844" xlink:href="#DejaVuSans-40"/>
      <use x="315.478516" xlink:href="#DejaVuSans-104"/>
      <use x="378.857422" xlink:href="#DejaVuSans-41"/>
     </g>
    </g>
   </g>
   <g id="matplotlib.axis_2">
    <g id="ytick_1">
     <g id="line2d_25">
      <path clip-path="url(#p5783df110b)" d="M 126 367.344 
L 907.2 367.344 
" style="fill:none;stroke:#b0b0b0;stroke-linecap:square;stroke-width:0.8;"/>
     </g>
     <g id="line2d_26">
      <defs>
       <path d="M 0 0 
L -3.5 0 
" id="m11d7209338" style="stroke:#000000;stroke-width:0.8;"/>
      </defs>
      <g>
       <use style="stroke:#000000;stroke-width:0.8;" x="126" xlink:href="#m11d7209338" y="367.344"/>
      </g>
     </g>
     <g id="text_26">
      <!-- 5.5 -->
      <defs>
       <path d="M 10.6875 12.40625 
L 21 12.40625 
L 21 0 
L 10.6875 0 
z
" id="DejaVuSans-46"/>
      </defs>
      <g transform="translate(103.096875 371.143219)scale(0.1 -0.1)">
       <use xlink:href="#DejaVuSans-53"/>
       <use x="63.623047" xlink:href="#DejaVuSans-46"/>
       <use x="95.410156" xlink:href="#DejaVuSans-53"/>
      </g>
     </g>
    </g>
    <g id="ytick_2">
     <g id="line2d_27">
      <path clip-path="url(#p5783df110b)" d="M 126 316.944 
L 907.2 316.944 
" style="fill:none;stroke:#b0b0b0;stroke-linecap:square;stroke-width:0.8;"/>
     </g>
     <g id="line2d_28">
      <g>
       <use style="stroke:#000000;stroke-width:0.8;" x="126" xlink:href="#m11d7209338" y="316.944"/>
      </g>
     </g>
     <g id="text_27">
      <!-- 6.0 -->
      <g transform="translate(103.096875 320.743219)scale(0.1 -0.1)">
       <use xlink:href="#DejaVuSans-54"/>
       <use x="63.623047" xlink:href="#DejaVuSans-46"/>
       <use x="95.410156" xlink:href="#DejaVuSans-48"/>
      </g>
     </g>
    </g>
    <g id="ytick_3">
     <g id="line2d_29">
      <path clip-path="url(#p5783df110b)" d="M 126 266.544 
L 907.2 266.544 
" style="fill:none;stroke:#b0b0b0;stroke-linecap:square;stroke-width:0.8;"/>
     </g>
     <g id="line2d_30">
      <g>
       <use style="stroke:#000000;stroke-width:0.8;" x="126" xlink:href="#m11d7209338" y="266.544"/>
      </g>
     </g>
     <g id="text_28">
      <!-- 6.5 -->
      <g transform="translate(103.096875 270.343219)scale(0.1 -0.1)">
       <use xlink:href="#DejaVuSans-54"/>
       <use x="63.623047" xlink:href="#DejaVuSans-46"/>
       <use x="95.410156" xlink:href="#DejaVuSans-53"/>
      </g>
     </g>
    </g>
    <g id="ytick_4">
     <g id="line2d_31">
      <path clip-path="url(#p5783df110b)" d="M 126 216.144 
L 907.2 216.144 
" style="fill:none;stroke:#b0b0b0;stroke-linecap:square;stroke-width:0.8;"/>
     </g>
     <g id="line2d_32">
      <g>
       <use style="stroke:#000000;stroke-width:0.8;" x="126" xlink:href="#m11d7209338" y="216.144"/>
      </g>
     </g>
     <g id="text_29">
      <!-- 7.0 -->
      <g transform="translate(103.096875 219.943219)scale(0.1 -0.1)">
       <use xlink:href="#DejaVuSans-55"/>
       <use x="63.623047" xlink:href="#DejaVuSans-46"/>
       <use x="95.410156" xlink:href="#DejaVuSans-48"/>
      </g>
     </g>
    </g>
    <g id="ytick_5">
     <g id="line2d_33">
      <path clip-path="url(#p5783df110b)" d="M 126 165.744 
L 907.2 165.744 
" style="fill:none;stroke:#b0b0b0;stroke-linecap:square;stroke-width:0.8;"/>
     </g>
     <g id="line2d_34">
      <g>
       <use style="stroke:#000000;stroke-width:0.8;" x="126" xlink:href="#m11d7209338" y="165.744"/>
      </g>
     </g>
     <g id="text_30">
      <!-- 7.5 -->
      <g transform="translate(103.096875 169.543219)scale(0.1 -0.1)">
       <use xlink:href="#DejaVuSans-55"/>
       <use x="63.623047" xlink:href="#DejaVuSans-46"/>
       <use x="95.410156" xlink:href="#DejaVuSans-53"/>
      </g>
     </g>
    </g>
    <g id="ytick_6">
     <g id="line2d_35">
      <path clip-path="url(#p5783df110b)" d="M 126 115.344 
L 907.2 115.344 
" style="fill:none;stroke:#b0b0b0;stroke-linecap:square;stroke-width:0.8;"/>
     </g>
     <g id="line2d_36">
      <g>
       <use style="stroke:#000000;stroke-width:0.8;" x="126" xlink:href="#m11d7209338" y="115.344"/>
      </g>
     </g>
     <g id="text_31">
      <!-- 8.0 -->
      <g transform="translate(103.096875 119.143219)scale(0.1 -0.1)">
       <use xlink:href="#DejaVuSans-56"/>
       <use x="63.623047" xlink:href="#DejaVuSans-46"/>
       <use x="95.410156" xlink:href="#DejaVuSans-48"/>
      </g>
     </g>
    </g>
    <g id="ytick_7">
     <g id="line2d_37">
      <path clip-path="url(#p5783df110b)" d="M 126 64.944 
L 907.2 64.944 
" style="fill:none;stroke:#b0b0b0;stroke-linecap:square;stroke-width:0.8;"/>
     </g>
     <g id="line2d_38">
      <g>
       <use style="stroke:#000000;stroke-width:0.8;" x="126" xlink:href="#m11d7209338" y="64.944"/>
      </g>
     </g>
     <g id="text_32">
      <!-- 8.5 -->
      <g transform="translate(103.096875 68.743219)scale(0.1 -0.1)">
       <use xlink:href="#DejaVuSans-56"/>
       <use x="63.623047" xlink:href="#DejaVuSans-46"/>
       <use x="95.410156" xlink:href="#DejaVuSans-53"/>
      </g>
     </g>
    </g>
    <g id="text_33">
     <!-- € cents -->
     <defs>
      <path d="M 56.984375 67.28125 
L 56.984375 56.890625 
Q 52.546875 62.015625 48.40625 64.203125 
Q 44.28125 66.40625 39.3125 66.40625 
Q 31.640625 66.40625 26.703125 61.515625 
Q 21.78125 56.640625 20.21875 47.515625 
L 48.390625 47.515625 
L 45.703125 41.5 
L 19.4375 41.5 
Q 19.34375 40.328125 19.3125 39.203125 
Q 19.28125 38.09375 19.28125 36.375 
Q 19.28125 34.8125 19.3125 33.6875 
Q 19.34375 32.5625 19.4375 31.390625 
L 41.21875 31.390625 
L 38.484375 25.390625 
L 20.21875 25.390625 
Q 21.78125 16.265625 26.703125 11.328125 
Q 31.640625 6.390625 39.3125 6.390625 
Q 44.28125 6.390625 48.40625 8.59375 
Q 52.546875 10.796875 56.984375 15.921875 
L 56.984375 5.609375 
Q 52.640625 2.09375 48.125 0.328125 
Q 43.609375 -1.421875 38.921875 -1.421875 
Q 27.34375 -1.421875 19.796875 5.65625 
Q 12.25 12.75 10.296875 25.390625 
L 0 25.390625 
L 2.6875 31.390625 
L 9.46875 31.390625 
Q 9.46875 32.515625 9.4375 33.65625 
Q 9.421875 34.8125 9.421875 36.375 
Q 9.421875 38.09375 9.4375 39.234375 
Q 9.46875 40.375 9.46875 41.5 
L 0 41.5 
L 2.6875 47.515625 
L 10.296875 47.515625 
Q 12.25 60.0625 19.8125 67.140625 
Q 27.390625 74.21875 38.921875 74.21875 
Q 43.703125 74.21875 48.21875 72.484375 
Q 52.734375 70.75 56.984375 67.28125 
z
" id="DejaVuSans-8364"/>
      <path d="M 48.78125 52.59375 
L 48.78125 44.1875 
Q 44.96875 46.296875 41.140625 47.34375 
Q 37.3125 48.390625 33.40625 48.390625 
Q 24.65625 48.390625 19.8125 42.84375 
Q 14.984375 37.3125 14.984375 27.296875 
Q 14.984375 17.28125 19.8125 11.734375 
Q 24.65625 6.203125 33.40625 6.203125 
Q 37.3125 6.203125 41.140625 7.25 
Q 44.96875 8.296875 48.78125 10.40625 
L 48.78125 2.09375 
Q 45.015625 0.34375 40.984375 -0.53125 
Q 36.96875 -1.421875 32.421875 -1.421875 
Q 20.0625 -1.421875 12.78125 6.34375 
Q 5.515625 14.109375 5.515625 27.296875 
Q 5.515625 40.671875 12.859375 48.328125 
Q 20.21875 56 33.015625 56 
Q 37.15625 56 41.109375 55.140625 
Q 45.0625 54.296875 48.78125 52.59375 
z
" id="DejaVuSans-99"/>
      <path d="M 54.890625 33.015625 
L 54.890625 0 
L 45.90625 0 
L 45.90625 32.71875 
Q 45.90625 40.484375 42.875 44.328125 
Q 39.84375 48.1875 33.796875 48.1875 
Q 26.515625 48.1875 22.3125 43.546875 
Q 18.109375 38.921875 18.109375 30.90625 
L 18.109375 0 
L 9.078125 0 
L 9.078125 54.6875 
L 18.109375 54.6875 
L 18.109375 46.1875 
Q 21.34375 51.125 25.703125 53.5625 
Q 30.078125 56 35.796875 56 
Q 45.21875 56 50.046875 50.171875 
Q 54.890625 44.34375 54.890625 33.015625 
z
" id="DejaVuSans-110"/>
      <path d="M 18.3125 70.21875 
L 18.3125 54.6875 
L 36.8125 54.6875 
L 36.8125 47.703125 
L 18.3125 47.703125 
L 18.3125 18.015625 
Q 18.3125 11.328125 20.140625 9.421875 
Q 21.96875 7.515625 27.59375 7.515625 
L 36.8125 7.515625 
L 36.8125 0 
L 27.59375 0 
Q 17.1875 0 13.234375 3.875 
Q 9.28125 7.765625 9.28125 18.015625 
L 9.28125 47.703125 
L 2.6875 47.703125 
L 2.6875 54.6875 
L 9.28125 54.6875 
L 9.28125 70.21875 
z
" id="DejaVuSans-116"/>
      <path d="M 44.28125 53.078125 
L 44.28125 44.578125 
Q 40.484375 46.53125 36.375 47.5 
Q 32.28125 48.484375 27.875 48.484375 
Q 21.1875 48.484375 17.84375 46.4375 
Q 14.5 44.390625 14.5 40.28125 
Q 14.5 37.15625 16.890625 35.375 
Q 19.28125 33.59375 26.515625 31.984375 
L 29.59375 31.296875 
Q 39.15625 29.25 43.1875 25.515625 
Q 47.21875 21.78125 47.21875 15.09375 
Q 47.21875 7.46875 41.1875 3.015625 
Q 35.15625 -1.421875 24.609375 -1.421875 
Q 20.21875 -1.421875 15.453125 -0.5625 
Q 10.6875 0.296875 5.421875 2 
L 5.421875 11.28125 
Q 10.40625 8.6875 15.234375 7.390625 
Q 20.0625 6.109375 24.8125 6.109375 
Q 31.15625 6.109375 34.5625 8.28125 
Q 37.984375 10.453125 37.984375 14.40625 
Q 37.984375 18.0625 35.515625 20.015625 
Q 33.0625 21.96875 24.703125 23.78125 
L 21.578125 24.515625 
Q 13.234375 26.265625 9.515625 29.90625 
Q 5.8125 33.546875 5.8125 39.890625 
Q 5.8125 47.609375 11.28125 51.796875 
Q 16.75 56 26.8125 56 
Q 31.78125 56 36.171875 55.265625 
Q 40.578125 54.546875 44.28125 53.078125 
z
" id="DejaVuSans-115"/>
     </defs>
     <g transform="translate(97.017187 236.489687)rotate(-90)scale(0.1 -0.1)">
      <use xlink:href="#DejaVuSans-8364"/>
      <use x="63.623047" xlink:href="#DejaVuSans-32"/>
      <use x="95.410156" xlink:href="#DejaVuSans-99"/>
      <use x="150.390625" xlink:href="#DejaVuSans-101"/>
      <use x="211.914062" xlink:href="#DejaVuSans-110"/>
      <use x="275.292969" xlink:href="#DejaVuSans-116"/>
      <use x="314.501953" xlink:href="#DejaVuSans-115"/>
     </g>
    </g>
   </g>
   <g id="line2d_39">
    <path clip-path="url(#p5783df110b)" d="M 142.275 369.36 
L 174.825 369.36 
L 207.375 369.36 
L 239.925 369.36 
L 272.475 369.36 
L 305.025 66.96 
L 337.575 66.96 
L 370.125 369.36 
L 402.675 369.36 
L 435.225 369.36 
L 467.775 369.36 
L 500.325 369.36 
L 532.875 369.36 
L 565.425 369.36 
L 597.975 369.36 
L 630.525 369.36 
L 663.075 369.36 
L 695.625 369.36 
L 728.175 369.36 
L 760.725 369.36 
L 793.275 369.36 
L 825.825 369.36 
L 858.375 369.36 
L 890.925 369.36 
" style="fill:none;stroke:#0000ff;stroke-linecap:square;stroke-width:1.5;"/>
   </g>
   <g id="patch_3">
    <path d="M 126 384.48 
L 126 51.84 
" style="fill:none;stroke:#000000;stroke-linecap:square;stroke-linejoin:miter;stroke-width:0.8;"/>
   </g>
   <g id="patch_4">
    <path d="M 907.2 384.48 
L 907.2 51.84 
" style="fill:none;stroke:#000000;stroke-linecap:square;stroke-linejoin:miter;stroke-width:0.8;"/>
   </g>
   <g id="patch_5">
    <path d="M 126 384.48 
L 907.2 384.48 
" style="fill:none;stroke:#000000;stroke-linecap:square;stroke-linejoin:miter;stroke-width:0.8;"/>
   </g>
   <g id="patch_6">
    <path d="M 126 51.84 
L 907.2 51.84 
" style="fill:none;stroke:#000000;stroke-linecap:square;stroke-linejoin:miter;stroke-width:0.8;"/>
   </g>
   <g id="text_34">
    <!-- SALE PRICES -->
    <defs>
     <path d="M 53.515625 70.515625 
L 53.515625 60.890625 
Q 47.90625 63.578125 42.921875 64.890625 
Q 37.9375 66.21875 33.296875 66.21875 
Q 25.25 66.21875 20.875 63.09375 
Q 16.5 59.96875 16.5 54.203125 
Q 16.5 49.359375 19.40625 46.890625 
Q 22.3125 44.4375 30.421875 42.921875 
L 36.375 41.703125 
Q 47.40625 39.59375 52.65625 34.296875 
Q 57.90625 29 57.90625 20.125 
Q 57.90625 9.515625 50.796875 4.046875 
Q 43.703125 -1.421875 29.984375 -1.421875 
Q 24.8125 -1.421875 18.96875 -0.25 
Q 13.140625 0.921875 6.890625 3.21875 
L 6.890625 13.375 
Q 12.890625 10.015625 18.65625 8.296875 
Q 24.421875 6.59375 29.984375 6.59375 
Q 38.421875 6.59375 43.015625 9.90625 
Q 47.609375 13.234375 47.609375 19.390625 
Q 47.609375 24.75 44.3125 27.78125 
Q 41.015625 30.8125 33.5 32.328125 
L 27.484375 33.5 
Q 16.453125 35.6875 11.515625 40.375 
Q 6.59375 45.0625 6.59375 53.421875 
Q 6.59375 63.09375 13.40625 68.65625 
Q 20.21875 74.21875 32.171875 74.21875 
Q 37.3125 74.21875 42.625 73.28125 
Q 47.953125 72.359375 53.515625 70.515625 
z
" id="DejaVuSans-83"/>
     <path d="M 34.1875 63.1875 
L 20.796875 26.90625 
L 47.609375 26.90625 
z
M 28.609375 72.90625 
L 39.796875 72.90625 
L 67.578125 0 
L 57.328125 0 
L 50.6875 18.703125 
L 17.828125 18.703125 
L 11.1875 0 
L 0.78125 0 
z
" id="DejaVuSans-65"/>
     <path d="M 9.8125 72.90625 
L 19.671875 72.90625 
L 19.671875 8.296875 
L 55.171875 8.296875 
L 55.171875 0 
L 9.8125 0 
z
" id="DejaVuSans-76"/>
     <path d="M 9.8125 72.90625 
L 55.90625 72.90625 
L 55.90625 64.59375 
L 19.671875 64.59375 
L 19.671875 43.015625 
L 54.390625 43.015625 
L 54.390625 34.71875 
L 19.671875 34.71875 
L 19.671875 8.296875 
L 56.78125 8.296875 
L 56.78125 0 
L 9.8125 0 
z
" id="DejaVuSans-69"/>
     <path d="M 19.671875 64.796875 
L 19.671875 37.40625 
L 32.078125 37.40625 
Q 38.96875 37.40625 42.71875 40.96875 
Q 46.484375 44.53125 46.484375 51.125 
Q 46.484375 57.671875 42.71875 61.234375 
Q 38.96875 64.796875 32.078125 64.796875 
z
M 9.8125 72.90625 
L 32.078125 72.90625 
Q 44.34375 72.90625 50.609375 67.359375 
Q 56.890625 61.8125 56.890625 51.125 
Q 56.890625 40.328125 50.609375 34.8125 
Q 44.34375 29.296875 32.078125 29.296875 
L 19.671875 29.296875 
L 19.671875 0 
L 9.8125 0 
z
" id="DejaVuSans-80"/>
     <path d="M 44.390625 34.1875 
Q 47.5625 33.109375 50.5625 29.59375 
Q 53.5625 26.078125 56.59375 19.921875 
L 66.609375 0 
L 56 0 
L 46.6875 18.703125 
Q 43.0625 26.03125 39.671875 28.421875 
Q 36.28125 30.8125 30.421875 30.8125 
L 19.671875 30.8125 
L 19.671875 0 
L 9.8125 0 
L 9.8125 72.90625 
L 32.078125 72.90625 
Q 44.578125 72.90625 50.734375 67.671875 
Q 56.890625 62.453125 56.890625 51.90625 
Q 56.890625 45.015625 53.6875 40.46875 
Q 50.484375 35.9375 44.390625 34.1875 
z
M 19.671875 64.796875 
L 19.671875 38.921875 
L 32.078125 38.921875 
Q 39.203125 38.921875 42.84375 42.21875 
Q 46.484375 45.515625 46.484375 51.90625 
Q 46.484375 58.296875 42.84375 61.546875 
Q 39.203125 64.796875 32.078125 64.796875 
z
" id="DejaVuSans-82"/>
     <path d="M 9.8125 72.90625 
L 19.671875 72.90625 
L 19.671875 0 
L 9.8125 0 
z
" id="DejaVuSans-73"/>
     <path d="M 64.40625 67.28125 
L 64.40625 56.890625 
Q 59.421875 61.53125 53.78125 63.8125 
Q 48.140625 66.109375 41.796875 66.109375 
Q 29.296875 66.109375 22.65625 58.46875 
Q 16.015625 50.828125 16.015625 36.375 
Q 16.015625 21.96875 22.65625 14.328125 
Q 29.296875 6.6875 41.796875 6.6875 
Q 48.140625 6.6875 53.78125 8.984375 
Q 59.421875 11.28125 64.40625 15.921875 
L 64.40625 5.609375 
Q 59.234375 2.09375 53.4375 0.328125 
Q 47.65625 -1.421875 41.21875 -1.421875 
Q 24.65625 -1.421875 15.125 8.703125 
Q 5.609375 18.84375 5.609375 36.375 
Q 5.609375 53.953125 15.125 64.078125 
Q 24.65625 74.21875 41.21875 74.21875 
Q 47.75 74.21875 53.53125 72.484375 
Q 59.328125 70.75 64.40625 67.28125 
z
" id="DejaVuSans-67"/>
    </defs>
    <g transform="translate(478.185938 45.84)scale(0.12 -0.12)">
     <use xlink:href="#DejaVuSans-83"/>
     <use x="65.351562" xlink:href="#DejaVuSans-65"/>
     <use x="133.759766" xlink:href="#DejaVuSans-76"/>
     <use x="189.472656" xlink:href="#DejaVuSans-69"/>
     <use x="252.65625" xlink:href="#DejaVuSans-32"/>
     <use x="284.443359" xlink:href="#DejaVuSans-80"/>
     <use x="344.746094" xlink:href="#DejaVuSans-82"/>
     <use x="414.228516" xlink:href="#DejaVuSans-73"/>
     <use x="443.720703" xlink:href="#DejaVuSans-67"/>
     <use x="513.544922" xlink:href="#DejaVuSans-69"/>
     <use x="576.728516" xlink:href="#DejaVuSans-83"/>
    </g>
   </g>
   <g id="legend_1">
    <g id="patch_7">
     <path d="M 133 41.254125 
L 194.604688 41.254125 
Q 196.604688 41.254125 196.604688 39.254125 
L 196.604688 25.576 
Q 196.604688 23.576 194.604688 23.576 
L 133 23.576 
Q 131 23.576 131 25.576 
L 131 39.254125 
Q 131 41.254125 133 41.254125 
z
" style="fill:#ffffff;opacity:0.8;stroke:#cccccc;stroke-linejoin:miter;"/>
    </g>
    <g id="line2d_40">
     <path d="M 135 31.674438 
L 155 31.674438 
" style="fill:none;stroke:#0000ff;stroke-linecap:square;stroke-width:1.5;"/>
    </g>
    <g id="line2d_41"/>
    <g id="text_35">
     <!-- Prices -->
     <defs>
      <path d="M 41.109375 46.296875 
Q 39.59375 47.171875 37.8125 47.578125 
Q 36.03125 48 33.890625 48 
Q 26.265625 48 22.1875 43.046875 
Q 18.109375 38.09375 18.109375 28.8125 
L 18.109375 0 
L 9.078125 0 
L 9.078125 54.6875 
L 18.109375 54.6875 
L 18.109375 46.1875 
Q 20.953125 51.171875 25.484375 53.578125 
Q 30.03125 56 36.53125 56 
Q 37.453125 56 38.578125 55.875 
Q 39.703125 55.765625 41.0625 55.515625 
z
" id="DejaVuSans-114"/>
     </defs>
     <g transform="translate(163 35.174438)scale(0.1 -0.1)">
      <use xlink:href="#DejaVuSans-80"/>
      <use x="58.552734" xlink:href="#DejaVuSans-114"/>
      <use x="99.666016" xlink:href="#DejaVuSans-105"/>
      <use x="127.449219" xlink:href="#DejaVuSans-99"/>
      <use x="182.429688" xlink:href="#DejaVuSans-101"/>
      <use x="243.953125" xlink:href="#DejaVuSans-115"/>
     </g>
    </g>
   </g>
  </g>
  <g id="axes_2">
   <g id="matplotlib.axis_3">
    <g id="ytick_8">
     <g id="line2d_42">
      <defs>
       <path d="M 0 0 
L 3.5 0 
" id="mb91438f8f7" style="stroke:#000000;stroke-width:0.8;"/>
      </defs>
      <g>
       <use style="stroke:#000000;stroke-width:0.8;" x="907.2" xlink:href="#mb91438f8f7" y="369.36"/>
      </g>
     </g>
     <g id="text_36">
      <!-- 0.00 -->
      <g transform="translate(914.2 373.159219)scale(0.1 -0.1)">
       <use xlink:href="#DejaVuSans-48"/>
       <use x="63.623047" xlink:href="#DejaVuSans-46"/>
       <use x="95.410156" xlink:href="#DejaVuSans-48"/>
       <use x="159.033203" xlink:href="#DejaVuSans-48"/>
      </g>
     </g>
    </g>
    <g id="ytick_9">
     <g id="line2d_43">
      <g>
       <use style="stroke:#000000;stroke-width:0.8;" x="907.2" xlink:href="#mb91438f8f7" y="327.328879"/>
      </g>
     </g>
     <g id="text_37">
      <!-- 0.25 -->
      <g transform="translate(914.2 331.128097)scale(0.1 -0.1)">
       <use xlink:href="#DejaVuSans-48"/>
       <use x="63.623047" xlink:href="#DejaVuSans-46"/>
       <use x="95.410156" xlink:href="#DejaVuSans-50"/>
       <use x="159.033203" xlink:href="#DejaVuSans-53"/>
      </g>
     </g>
    </g>
    <g id="ytick_10">
     <g id="line2d_44">
      <g>
       <use style="stroke:#000000;stroke-width:0.8;" x="907.2" xlink:href="#mb91438f8f7" y="285.297757"/>
      </g>
     </g>
     <g id="text_38">
      <!-- 0.50 -->
      <g transform="translate(914.2 289.096976)scale(0.1 -0.1)">
       <use xlink:href="#DejaVuSans-48"/>
       <use x="63.623047" xlink:href="#DejaVuSans-46"/>
       <use x="95.410156" xlink:href="#DejaVuSans-53"/>
       <use x="159.033203" xlink:href="#DejaVuSans-48"/>
      </g>
     </g>
    </g>
    <g id="ytick_11">
     <g id="line2d_45">
      <g>
       <use style="stroke:#000000;stroke-width:0.8;" x="907.2" xlink:href="#mb91438f8f7" y="243.266636"/>
      </g>
     </g>
     <g id="text_39">
      <!-- 0.75 -->
      <g transform="translate(914.2 247.065854)scale(0.1 -0.1)">
       <use xlink:href="#DejaVuSans-48"/>
       <use x="63.623047" xlink:href="#DejaVuSans-46"/>
       <use x="95.410156" xlink:href="#DejaVuSans-55"/>
       <use x="159.033203" xlink:href="#DejaVuSans-53"/>
      </g>
     </g>
    </g>
    <g id="ytick_12">
     <g id="line2d_46">
      <g>
       <use style="stroke:#000000;stroke-width:0.8;" x="907.2" xlink:href="#mb91438f8f7" y="201.235514"/>
      </g>
     </g>
     <g id="text_40">
      <!-- 1.00 -->
      <g transform="translate(914.2 205.034733)scale(0.1 -0.1)">
       <use xlink:href="#DejaVuSans-49"/>
       <use x="63.623047" xlink:href="#DejaVuSans-46"/>
       <use x="95.410156" xlink:href="#DejaVuSans-48"/>
       <use x="159.033203" xlink:href="#DejaVuSans-48"/>
      </g>
     </g>
    </g>
    <g id="ytick_13">
     <g id="line2d_47">
      <g>
       <use style="stroke:#000000;stroke-width:0.8;" x="907.2" xlink:href="#mb91438f8f7" y="159.204393"/>
      </g>
     </g>
     <g id="text_41">
      <!-- 1.25 -->
      <g transform="translate(914.2 163.003612)scale(0.1 -0.1)">
       <use xlink:href="#DejaVuSans-49"/>
       <use x="63.623047" xlink:href="#DejaVuSans-46"/>
       <use x="95.410156" xlink:href="#DejaVuSans-50"/>
       <use x="159.033203" xlink:href="#DejaVuSans-53"/>
      </g>
     </g>
    </g>
    <g id="ytick_14">
     <g id="line2d_48">
      <g>
       <use style="stroke:#000000;stroke-width:0.8;" x="907.2" xlink:href="#mb91438f8f7" y="117.173271"/>
      </g>
     </g>
     <g id="text_42">
      <!-- 1.50 -->
      <g transform="translate(914.2 120.97249)scale(0.1 -0.1)">
       <use xlink:href="#DejaVuSans-49"/>
       <use x="63.623047" xlink:href="#DejaVuSans-46"/>
       <use x="95.410156" xlink:href="#DejaVuSans-53"/>
       <use x="159.033203" xlink:href="#DejaVuSans-48"/>
      </g>
     </g>
    </g>
    <g id="ytick_15">
     <g id="line2d_49">
      <g>
       <use style="stroke:#000000;stroke-width:0.8;" x="907.2" xlink:href="#mb91438f8f7" y="75.14215"/>
      </g>
     </g>
     <g id="text_43">
      <!-- 1.75 -->
      <g transform="translate(914.2 78.941369)scale(0.1 -0.1)">
       <use xlink:href="#DejaVuSans-49"/>
       <use x="63.623047" xlink:href="#DejaVuSans-46"/>
       <use x="95.410156" xlink:href="#DejaVuSans-55"/>
       <use x="159.033203" xlink:href="#DejaVuSans-53"/>
      </g>
     </g>
    </g>
    <g id="text_44">
     <!-- kWh -->
     <defs>
      <path d="M 9.078125 75.984375 
L 18.109375 75.984375 
L 18.109375 31.109375 
L 44.921875 54.6875 
L 56.390625 54.6875 
L 27.390625 29.109375 
L 57.625 0 
L 45.90625 0 
L 18.109375 26.703125 
L 18.109375 0 
L 9.078125 0 
z
" id="DejaVuSans-107"/>
      <path d="M 3.328125 72.90625 
L 13.28125 72.90625 
L 28.609375 11.28125 
L 43.890625 72.90625 
L 54.984375 72.90625 
L 70.3125 11.28125 
L 85.59375 72.90625 
L 95.609375 72.90625 
L 77.296875 0 
L 64.890625 0 
L 49.515625 63.28125 
L 33.984375 0 
L 21.578125 0 
z
" id="DejaVuSans-87"/>
     </defs>
     <g transform="translate(948.064063 229.167812)rotate(-90)scale(0.1 -0.1)">
      <use xlink:href="#DejaVuSans-107"/>
      <use x="57.910156" xlink:href="#DejaVuSans-87"/>
      <use x="156.787109" xlink:href="#DejaVuSans-104"/>
     </g>
    </g>
   </g>
   <g id="line2d_50">
    <path clip-path="url(#p5783df110b)" d="M 142.275 313.223124 
L 142.275 342.759098 
" style="fill:none;stroke:#000000;stroke-linecap:square;"/>
   </g>
   <g id="line2d_51">
    <path clip-path="url(#p5783df110b)" d="M 142.275 288.912825 
L 142.275 260.33997 
" style="fill:none;stroke:#000000;stroke-linecap:square;"/>
   </g>
   <g id="line2d_52">
    <path clip-path="url(#p5783df110b)" d="M 138.20625 342.759098 
L 146.34375 342.759098 
" style="fill:none;stroke:#000000;stroke-linecap:square;"/>
   </g>
   <g id="line2d_53">
    <path clip-path="url(#p5783df110b)" d="M 138.20625 260.33997 
L 146.34375 260.33997 
" style="fill:none;stroke:#000000;stroke-linecap:square;"/>
   </g>
   <g id="line2d_54">
    <defs>
     <path d="M 0 3 
C 0.795609 3 1.55874 2.683901 2.12132 2.12132 
C 2.683901 1.55874 3 0.795609 3 0 
C 3 -0.795609 2.683901 -1.55874 2.12132 -2.12132 
C 1.55874 -2.683901 0.795609 -3 0 -3 
C -0.795609 -3 -1.55874 -2.683901 -2.12132 -2.12132 
C -2.683901 -1.55874 -3 -0.795609 -3 0 
C -3 0.795609 -2.683901 1.55874 -2.12132 2.12132 
C -1.55874 2.683901 -0.795609 3 0 3 
z
" id="mcdc391a91d" style="stroke:#000000;"/>
    </defs>
    <g clip-path="url(#p5783df110b)">
     <use style="fill-opacity:0;stroke:#000000;" x="142.275" xlink:href="#mcdc391a91d" y="357.9367"/>
    </g>
   </g>
   <g id="line2d_55">
    <path clip-path="url(#p5783df110b)" d="M 174.825 328.813669 
L 174.825 356.528526 
" style="fill:none;stroke:#000000;stroke-linecap:square;"/>
   </g>
   <g id="line2d_56">
    <path clip-path="url(#p5783df110b)" d="M 174.825 308.176531 
L 174.825 280.423636 
" style="fill:none;stroke:#000000;stroke-linecap:square;"/>
   </g>
   <g id="line2d_57">
    <path clip-path="url(#p5783df110b)" d="M 170.75625 356.528526 
L 178.89375 356.528526 
" style="fill:none;stroke:#000000;stroke-linecap:square;"/>
   </g>
   <g id="line2d_58">
    <path clip-path="url(#p5783df110b)" d="M 170.75625 280.423636 
L 178.89375 280.423636 
" style="fill:none;stroke:#000000;stroke-linecap:square;"/>
   </g>
   <g id="line2d_59">
    <g clip-path="url(#p5783df110b)">
     <use style="fill-opacity:0;stroke:#000000;" x="174.825" xlink:href="#mcdc391a91d" y="369.36"/>
     <use style="fill-opacity:0;stroke:#000000;" x="174.825" xlink:href="#mcdc391a91d" y="266.186465"/>
     <use style="fill-opacity:0;stroke:#000000;" x="174.825" xlink:href="#mcdc391a91d" y="261.222824"/>
    </g>
   </g>
   <g id="line2d_60">
    <path clip-path="url(#p5783df110b)" d="M 207.375 348.638326 
L 207.375 369.36 
" style="fill:none;stroke:#000000;stroke-linecap:square;"/>
   </g>
   <g id="line2d_61">
    <path clip-path="url(#p5783df110b)" d="M 207.375 323.972946 
L 207.375 293.14232 
" style="fill:none;stroke:#000000;stroke-linecap:square;"/>
   </g>
   <g id="line2d_62">
    <path clip-path="url(#p5783df110b)" d="M 203.30625 369.36 
L 211.44375 369.36 
" style="fill:none;stroke:#000000;stroke-linecap:square;"/>
   </g>
   <g id="line2d_63">
    <path clip-path="url(#p5783df110b)" d="M 203.30625 293.14232 
L 211.44375 293.14232 
" style="fill:none;stroke:#000000;stroke-linecap:square;"/>
   </g>
   <g id="line2d_64"/>
   <g id="line2d_65">
    <path clip-path="url(#p5783df110b)" d="M 239.925 345.103891 
L 239.925 369.05258 
" style="fill:none;stroke:#000000;stroke-linecap:square;"/>
   </g>
   <g id="line2d_66">
    <path clip-path="url(#p5783df110b)" d="M 239.925 324.409854 
L 239.925 296.21762 
" style="fill:none;stroke:#000000;stroke-linecap:square;"/>
   </g>
   <g id="line2d_67">
    <path clip-path="url(#p5783df110b)" d="M 235.85625 369.05258 
L 243.99375 369.05258 
" style="fill:none;stroke:#000000;stroke-linecap:square;"/>
   </g>
   <g id="line2d_68">
    <path clip-path="url(#p5783df110b)" d="M 235.85625 296.21762 
L 243.99375 296.21762 
" style="fill:none;stroke:#000000;stroke-linecap:square;"/>
   </g>
   <g id="line2d_69"/>
   <g id="line2d_70">
    <path clip-path="url(#p5783df110b)" d="M 272.475 346.057854 
L 272.475 369.36 
" style="fill:none;stroke:#000000;stroke-linecap:square;"/>
   </g>
   <g id="line2d_71">
    <path clip-path="url(#p5783df110b)" d="M 272.475 320.596853 
L 272.475 284.597605 
" style="fill:none;stroke:#000000;stroke-linecap:square;"/>
   </g>
   <g id="line2d_72">
    <path clip-path="url(#p5783df110b)" d="M 268.40625 369.36 
L 276.54375 369.36 
" style="fill:none;stroke:#000000;stroke-linecap:square;"/>
   </g>
   <g id="line2d_73">
    <path clip-path="url(#p5783df110b)" d="M 268.40625 284.597605 
L 276.54375 284.597605 
" style="fill:none;stroke:#000000;stroke-linecap:square;"/>
   </g>
   <g id="line2d_74"/>
   <g id="line2d_75">
    <path clip-path="url(#p5783df110b)" d="M 305.025 369.36 
L 305.025 369.36 
" style="fill:none;stroke:#000000;stroke-linecap:square;"/>
   </g>
   <g id="line2d_76">
    <path clip-path="url(#p5783df110b)" d="M 305.025 353.594781 
L 305.025 329.97049 
" style="fill:none;stroke:#000000;stroke-linecap:square;"/>
   </g>
   <g id="line2d_77">
    <path clip-path="url(#p5783df110b)" d="M 300.95625 369.36 
L 309.09375 369.36 
" style="fill:none;stroke:#000000;stroke-linecap:square;"/>
   </g>
   <g id="line2d_78">
    <path clip-path="url(#p5783df110b)" d="M 300.95625 329.97049 
L 309.09375 329.97049 
" style="fill:none;stroke:#000000;stroke-linecap:square;"/>
   </g>
   <g id="line2d_79">
    <g clip-path="url(#p5783df110b)">
     <use style="fill-opacity:0;stroke:#000000;" x="305.025" xlink:href="#mcdc391a91d" y="320.472029"/>
     <use style="fill-opacity:0;stroke:#000000;" x="305.025" xlink:href="#mcdc391a91d" y="315.061743"/>
     <use style="fill-opacity:0;stroke:#000000;" x="305.025" xlink:href="#mcdc391a91d" y="324.327256"/>
     <use style="fill-opacity:0;stroke:#000000;" x="305.025" xlink:href="#mcdc391a91d" y="325.801521"/>
     <use style="fill-opacity:0;stroke:#000000;" x="305.025" xlink:href="#mcdc391a91d" y="328.467813"/>
     <use style="fill-opacity:0;stroke:#000000;" x="305.025" xlink:href="#mcdc391a91d" y="324.766513"/>
     <use style="fill-opacity:0;stroke:#000000;" x="305.025" xlink:href="#mcdc391a91d" y="323.339164"/>
     <use style="fill-opacity:0;stroke:#000000;" x="305.025" xlink:href="#mcdc391a91d" y="323.483365"/>
     <use style="fill-opacity:0;stroke:#000000;" x="305.025" xlink:href="#mcdc391a91d" y="308.859666"/>
    </g>
   </g>
   <g id="line2d_80">
    <path clip-path="url(#p5783df110b)" d="M 337.575 369.36 
L 337.575 369.36 
" style="fill:none;stroke:#000000;stroke-linecap:square;"/>
   </g>
   <g id="line2d_81">
    <path clip-path="url(#p5783df110b)" d="M 337.575 336.418031 
L 337.575 287.660165 
" style="fill:none;stroke:#000000;stroke-linecap:square;"/>
   </g>
   <g id="line2d_82">
    <path clip-path="url(#p5783df110b)" d="M 333.50625 369.36 
L 341.64375 369.36 
" style="fill:none;stroke:#000000;stroke-linecap:square;"/>
   </g>
   <g id="line2d_83">
    <path clip-path="url(#p5783df110b)" d="M 333.50625 287.660165 
L 341.64375 287.660165 
" style="fill:none;stroke:#000000;stroke-linecap:square;"/>
   </g>
   <g id="line2d_84">
    <g clip-path="url(#p5783df110b)">
     <use style="fill-opacity:0;stroke:#000000;" x="337.575" xlink:href="#mcdc391a91d" y="283.875429"/>
    </g>
   </g>
   <g id="line2d_85">
    <path clip-path="url(#p5783df110b)" d="M 370.125 290.039446 
L 370.125 332.765394 
" style="fill:none;stroke:#000000;stroke-linecap:square;"/>
   </g>
   <g id="line2d_86">
    <path clip-path="url(#p5783df110b)" d="M 370.125 255.573536 
L 370.125 204.750284 
" style="fill:none;stroke:#000000;stroke-linecap:square;"/>
   </g>
   <g id="line2d_87">
    <path clip-path="url(#p5783df110b)" d="M 366.05625 332.765394 
L 374.19375 332.765394 
" style="fill:none;stroke:#000000;stroke-linecap:square;"/>
   </g>
   <g id="line2d_88">
    <path clip-path="url(#p5783df110b)" d="M 366.05625 204.750284 
L 374.19375 204.750284 
" style="fill:none;stroke:#000000;stroke-linecap:square;"/>
   </g>
   <g id="line2d_89">
    <g clip-path="url(#p5783df110b)">
     <use style="fill-opacity:0;stroke:#000000;" x="370.125" xlink:href="#mcdc391a91d" y="186.895321"/>
     <use style="fill-opacity:0;stroke:#000000;" x="370.125" xlink:href="#mcdc391a91d" y="90.867873"/>
     <use style="fill-opacity:0;stroke:#000000;" x="370.125" xlink:href="#mcdc391a91d" y="197.984468"/>
     <use style="fill-opacity:0;stroke:#000000;" x="370.125" xlink:href="#mcdc391a91d" y="173.992468"/>
     <use style="fill-opacity:0;stroke:#000000;" x="370.125" xlink:href="#mcdc391a91d" y="135.768937"/>
     <use style="fill-opacity:0;stroke:#000000;" x="370.125" xlink:href="#mcdc391a91d" y="102.127298"/>
     <use style="fill-opacity:0;stroke:#000000;" x="370.125" xlink:href="#mcdc391a91d" y="191.944384"/>
    </g>
   </g>
   <g id="line2d_90">
    <path clip-path="url(#p5783df110b)" d="M 402.675 276.337332 
L 402.675 312.134996 
" style="fill:none;stroke:#000000;stroke-linecap:square;"/>
   </g>
   <g id="line2d_91">
    <path clip-path="url(#p5783df110b)" d="M 402.675 239.966668 
L 402.675 187.418939 
" style="fill:none;stroke:#000000;stroke-linecap:square;"/>
   </g>
   <g id="line2d_92">
    <path clip-path="url(#p5783df110b)" d="M 398.60625 312.134996 
L 406.74375 312.134996 
" style="fill:none;stroke:#000000;stroke-linecap:square;"/>
   </g>
   <g id="line2d_93">
    <path clip-path="url(#p5783df110b)" d="M 398.60625 187.418939 
L 406.74375 187.418939 
" style="fill:none;stroke:#000000;stroke-linecap:square;"/>
   </g>
   <g id="line2d_94">
    <g clip-path="url(#p5783df110b)">
     <use style="fill-opacity:0;stroke:#000000;" x="402.675" xlink:href="#mcdc391a91d" y="162.93166"/>
     <use style="fill-opacity:0;stroke:#000000;" x="402.675" xlink:href="#mcdc391a91d" y="176.143706"/>
     <use style="fill-opacity:0;stroke:#000000;" x="402.675" xlink:href="#mcdc391a91d" y="156.640889"/>
     <use style="fill-opacity:0;stroke:#000000;" x="402.675" xlink:href="#mcdc391a91d" y="184.743948"/>
     <use style="fill-opacity:0;stroke:#000000;" x="402.675" xlink:href="#mcdc391a91d" y="146.090323"/>
     <use style="fill-opacity:0;stroke:#000000;" x="402.675" xlink:href="#mcdc391a91d" y="127.505727"/>
     <use style="fill-opacity:0;stroke:#000000;" x="402.675" xlink:href="#mcdc391a91d" y="170.995378"/>
    </g>
   </g>
   <g id="line2d_95">
    <path clip-path="url(#p5783df110b)" d="M 435.225 276.740343 
L 435.225 306.671802 
" style="fill:none;stroke:#000000;stroke-linecap:square;"/>
   </g>
   <g id="line2d_96">
    <path clip-path="url(#p5783df110b)" d="M 435.225 242.919125 
L 435.225 192.632555 
" style="fill:none;stroke:#000000;stroke-linecap:square;"/>
   </g>
   <g id="line2d_97">
    <path clip-path="url(#p5783df110b)" d="M 431.15625 306.671802 
L 439.29375 306.671802 
" style="fill:none;stroke:#000000;stroke-linecap:square;"/>
   </g>
   <g id="line2d_98">
    <path clip-path="url(#p5783df110b)" d="M 431.15625 192.632555 
L 439.29375 192.632555 
" style="fill:none;stroke:#000000;stroke-linecap:square;"/>
   </g>
   <g id="line2d_99">
    <g clip-path="url(#p5783df110b)">
     <use style="fill-opacity:0;stroke:#000000;" x="435.225" xlink:href="#mcdc391a91d" y="120.029278"/>
     <use style="fill-opacity:0;stroke:#000000;" x="435.225" xlink:href="#mcdc391a91d" y="179.12222"/>
     <use style="fill-opacity:0;stroke:#000000;" x="435.225" xlink:href="#mcdc391a91d" y="183.596003"/>
     <use style="fill-opacity:0;stroke:#000000;" x="435.225" xlink:href="#mcdc391a91d" y="66.96"/>
     <use style="fill-opacity:0;stroke:#000000;" x="435.225" xlink:href="#mcdc391a91d" y="162.949856"/>
     <use style="fill-opacity:0;stroke:#000000;" x="435.225" xlink:href="#mcdc391a91d" y="140.60275"/>
     <use style="fill-opacity:0;stroke:#000000;" x="435.225" xlink:href="#mcdc391a91d" y="189.349807"/>
    </g>
   </g>
   <g id="line2d_100">
    <path clip-path="url(#p5783df110b)" d="M 467.775 292.305894 
L 467.775 332.189723 
" style="fill:none;stroke:#000000;stroke-linecap:square;"/>
   </g>
   <g id="line2d_101">
    <path clip-path="url(#p5783df110b)" d="M 467.775 263.578805 
L 467.775 224.849677 
" style="fill:none;stroke:#000000;stroke-linecap:square;"/>
   </g>
   <g id="line2d_102">
    <path clip-path="url(#p5783df110b)" d="M 463.70625 332.189723 
L 471.84375 332.189723 
" style="fill:none;stroke:#000000;stroke-linecap:square;"/>
   </g>
   <g id="line2d_103">
    <path clip-path="url(#p5783df110b)" d="M 463.70625 224.849677 
L 471.84375 224.849677 
" style="fill:none;stroke:#000000;stroke-linecap:square;"/>
   </g>
   <g id="line2d_104">
    <g clip-path="url(#p5783df110b)">
     <use style="fill-opacity:0;stroke:#000000;" x="467.775" xlink:href="#mcdc391a91d" y="195.36614"/>
     <use style="fill-opacity:0;stroke:#000000;" x="467.775" xlink:href="#mcdc391a91d" y="216.385744"/>
     <use style="fill-opacity:0;stroke:#000000;" x="467.775" xlink:href="#mcdc391a91d" y="136.70655"/>
     <use style="fill-opacity:0;stroke:#000000;" x="467.775" xlink:href="#mcdc391a91d" y="164.371895"/>
     <use style="fill-opacity:0;stroke:#000000;" x="467.775" xlink:href="#mcdc391a91d" y="165.160294"/>
     <use style="fill-opacity:0;stroke:#000000;" x="467.775" xlink:href="#mcdc391a91d" y="216.227256"/>
     <use style="fill-opacity:0;stroke:#000000;" x="467.775" xlink:href="#mcdc391a91d" y="211.515807"/>
     <use style="fill-opacity:0;stroke:#000000;" x="467.775" xlink:href="#mcdc391a91d" y="198.374738"/>
     <use style="fill-opacity:0;stroke:#000000;" x="467.775" xlink:href="#mcdc391a91d" y="206.8627"/>
     <use style="fill-opacity:0;stroke:#000000;" x="467.775" xlink:href="#mcdc391a91d" y="217.055881"/>
    </g>
   </g>
   <g id="line2d_105">
    <path clip-path="url(#p5783df110b)" d="M 500.325 292.822365 
L 500.325 332.358076 
" style="fill:none;stroke:#000000;stroke-linecap:square;"/>
   </g>
   <g id="line2d_106">
    <path clip-path="url(#p5783df110b)" d="M 500.325 265.930124 
L 500.325 231.381138 
" style="fill:none;stroke:#000000;stroke-linecap:square;"/>
   </g>
   <g id="line2d_107">
    <path clip-path="url(#p5783df110b)" d="M 496.25625 332.358076 
L 504.39375 332.358076 
" style="fill:none;stroke:#000000;stroke-linecap:square;"/>
   </g>
   <g id="line2d_108">
    <path clip-path="url(#p5783df110b)" d="M 496.25625 231.381138 
L 504.39375 231.381138 
" style="fill:none;stroke:#000000;stroke-linecap:square;"/>
   </g>
   <g id="line2d_109">
    <g clip-path="url(#p5783df110b)">
     <use style="fill-opacity:0;stroke:#000000;" x="500.325" xlink:href="#mcdc391a91d" y="336.274182"/>
     <use style="fill-opacity:0;stroke:#000000;" x="500.325" xlink:href="#mcdc391a91d" y="202.78257"/>
     <use style="fill-opacity:0;stroke:#000000;" x="500.325" xlink:href="#mcdc391a91d" y="185.3003"/>
     <use style="fill-opacity:0;stroke:#000000;" x="500.325" xlink:href="#mcdc391a91d" y="203.266589"/>
     <use style="fill-opacity:0;stroke:#000000;" x="500.325" xlink:href="#mcdc391a91d" y="215.286996"/>
     <use style="fill-opacity:0;stroke:#000000;" x="500.325" xlink:href="#mcdc391a91d" y="213.997327"/>
     <use style="fill-opacity:0;stroke:#000000;" x="500.325" xlink:href="#mcdc391a91d" y="221.353875"/>
     <use style="fill-opacity:0;stroke:#000000;" x="500.325" xlink:href="#mcdc391a91d" y="201.766686"/>
    </g>
   </g>
   <g id="line2d_110">
    <path clip-path="url(#p5783df110b)" d="M 532.875 293.061952 
L 532.875 323.116019 
" style="fill:none;stroke:#000000;stroke-linecap:square;"/>
   </g>
   <g id="line2d_111">
    <path clip-path="url(#p5783df110b)" d="M 532.875 266.31854 
L 532.875 230.010955 
" style="fill:none;stroke:#000000;stroke-linecap:square;"/>
   </g>
   <g id="line2d_112">
    <path clip-path="url(#p5783df110b)" d="M 528.80625 323.116019 
L 536.94375 323.116019 
" style="fill:none;stroke:#000000;stroke-linecap:square;"/>
   </g>
   <g id="line2d_113">
    <path clip-path="url(#p5783df110b)" d="M 528.80625 230.010955 
L 536.94375 230.010955 
" style="fill:none;stroke:#000000;stroke-linecap:square;"/>
   </g>
   <g id="line2d_114">
    <g clip-path="url(#p5783df110b)">
     <use style="fill-opacity:0;stroke:#000000;" x="532.875" xlink:href="#mcdc391a91d" y="136.720881"/>
     <use style="fill-opacity:0;stroke:#000000;" x="532.875" xlink:href="#mcdc391a91d" y="168.977117"/>
     <use style="fill-opacity:0;stroke:#000000;" x="532.875" xlink:href="#mcdc391a91d" y="223.857403"/>
     <use style="fill-opacity:0;stroke:#000000;" x="532.875" xlink:href="#mcdc391a91d" y="196.541751"/>
     <use style="fill-opacity:0;stroke:#000000;" x="532.875" xlink:href="#mcdc391a91d" y="199.2696"/>
    </g>
   </g>
   <g id="line2d_115">
    <path clip-path="url(#p5783df110b)" d="M 565.425 313.386442 
L 565.425 342.950978 
" style="fill:none;stroke:#000000;stroke-linecap:square;"/>
   </g>
   <g id="line2d_116">
    <path clip-path="url(#p5783df110b)" d="M 565.425 289.923337 
L 565.425 262.049741 
" style="fill:none;stroke:#000000;stroke-linecap:square;"/>
   </g>
   <g id="line2d_117">
    <path clip-path="url(#p5783df110b)" d="M 561.35625 342.950978 
L 569.49375 342.950978 
" style="fill:none;stroke:#000000;stroke-linecap:square;"/>
   </g>
   <g id="line2d_118">
    <path clip-path="url(#p5783df110b)" d="M 561.35625 262.049741 
L 569.49375 262.049741 
" style="fill:none;stroke:#000000;stroke-linecap:square;"/>
   </g>
   <g id="line2d_119">
    <g clip-path="url(#p5783df110b)">
     <use style="fill-opacity:0;stroke:#000000;" x="565.425" xlink:href="#mcdc391a91d" y="366.313271"/>
     <use style="fill-opacity:0;stroke:#000000;" x="565.425" xlink:href="#mcdc391a91d" y="234.041647"/>
     <use style="fill-opacity:0;stroke:#000000;" x="565.425" xlink:href="#mcdc391a91d" y="234.164056"/>
     <use style="fill-opacity:0;stroke:#000000;" x="565.425" xlink:href="#mcdc391a91d" y="246.680139"/>
    </g>
   </g>
   <g id="line2d_120">
    <path clip-path="url(#p5783df110b)" d="M 597.975 313.262104 
L 597.975 348.07254 
" style="fill:none;stroke:#000000;stroke-linecap:square;"/>
   </g>
   <g id="line2d_121">
    <path clip-path="url(#p5783df110b)" d="M 597.975 288.881202 
L 597.975 264.833956 
" style="fill:none;stroke:#000000;stroke-linecap:square;"/>
   </g>
   <g id="line2d_122">
    <path clip-path="url(#p5783df110b)" d="M 593.90625 348.07254 
L 602.04375 348.07254 
" style="fill:none;stroke:#000000;stroke-linecap:square;"/>
   </g>
   <g id="line2d_123">
    <path clip-path="url(#p5783df110b)" d="M 593.90625 264.833956 
L 602.04375 264.833956 
" style="fill:none;stroke:#000000;stroke-linecap:square;"/>
   </g>
   <g id="line2d_124">
    <g clip-path="url(#p5783df110b)">
     <use style="fill-opacity:0;stroke:#000000;" x="597.975" xlink:href="#mcdc391a91d" y="224.242465"/>
     <use style="fill-opacity:0;stroke:#000000;" x="597.975" xlink:href="#mcdc391a91d" y="233.998356"/>
     <use style="fill-opacity:0;stroke:#000000;" x="597.975" xlink:href="#mcdc391a91d" y="163.035571"/>
    </g>
   </g>
   <g id="line2d_125">
    <path clip-path="url(#p5783df110b)" d="M 630.525 280.221042 
L 630.525 311.797653 
" style="fill:none;stroke:#000000;stroke-linecap:square;"/>
   </g>
   <g id="line2d_126">
    <path clip-path="url(#p5783df110b)" d="M 630.525 259.13675 
L 630.525 231.089986 
" style="fill:none;stroke:#000000;stroke-linecap:square;"/>
   </g>
   <g id="line2d_127">
    <path clip-path="url(#p5783df110b)" d="M 626.45625 311.797653 
L 634.59375 311.797653 
" style="fill:none;stroke:#000000;stroke-linecap:square;"/>
   </g>
   <g id="line2d_128">
    <path clip-path="url(#p5783df110b)" d="M 626.45625 231.089986 
L 634.59375 231.089986 
" style="fill:none;stroke:#000000;stroke-linecap:square;"/>
   </g>
   <g id="line2d_129">
    <g clip-path="url(#p5783df110b)">
     <use style="fill-opacity:0;stroke:#000000;" x="630.525" xlink:href="#mcdc391a91d" y="221.112963"/>
    </g>
   </g>
   <g id="line2d_130">
    <path clip-path="url(#p5783df110b)" d="M 663.075 244.956432 
L 663.075 269.905911 
" style="fill:none;stroke:#000000;stroke-linecap:square;"/>
   </g>
   <g id="line2d_131">
    <path clip-path="url(#p5783df110b)" d="M 663.075 226.037161 
L 663.075 203.255039 
" style="fill:none;stroke:#000000;stroke-linecap:square;"/>
   </g>
   <g id="line2d_132">
    <path clip-path="url(#p5783df110b)" d="M 659.00625 269.905911 
L 667.14375 269.905911 
" style="fill:none;stroke:#000000;stroke-linecap:square;"/>
   </g>
   <g id="line2d_133">
    <path clip-path="url(#p5783df110b)" d="M 659.00625 203.255039 
L 667.14375 203.255039 
" style="fill:none;stroke:#000000;stroke-linecap:square;"/>
   </g>
   <g id="line2d_134">
    <g clip-path="url(#p5783df110b)">
     <use style="fill-opacity:0;stroke:#000000;" x="663.075" xlink:href="#mcdc391a91d" y="276.86191"/>
     <use style="fill-opacity:0;stroke:#000000;" x="663.075" xlink:href="#mcdc391a91d" y="194.979868"/>
    </g>
   </g>
   <g id="line2d_135">
    <path clip-path="url(#p5783df110b)" d="M 695.625 146.628509 
L 695.625 177.925788 
" style="fill:none;stroke:#000000;stroke-linecap:square;"/>
   </g>
   <g id="line2d_136">
    <path clip-path="url(#p5783df110b)" d="M 695.625 124.929883 
L 695.625 95.743773 
" style="fill:none;stroke:#000000;stroke-linecap:square;"/>
   </g>
   <g id="line2d_137">
    <path clip-path="url(#p5783df110b)" d="M 691.55625 177.925788 
L 699.69375 177.925788 
" style="fill:none;stroke:#000000;stroke-linecap:square;"/>
   </g>
   <g id="line2d_138">
    <path clip-path="url(#p5783df110b)" d="M 691.55625 95.743773 
L 699.69375 95.743773 
" style="fill:none;stroke:#000000;stroke-linecap:square;"/>
   </g>
   <g id="line2d_139">
    <g clip-path="url(#p5783df110b)">
     <use style="fill-opacity:0;stroke:#000000;" x="695.625" xlink:href="#mcdc391a91d" y="189.061858"/>
    </g>
   </g>
   <g id="line2d_140">
    <path clip-path="url(#p5783df110b)" d="M 728.175 176.838536 
L 728.175 204.59136 
" style="fill:none;stroke:#000000;stroke-linecap:square;"/>
   </g>
   <g id="line2d_141">
    <path clip-path="url(#p5783df110b)" d="M 728.175 156.890056 
L 728.175 133.723475 
" style="fill:none;stroke:#000000;stroke-linecap:square;"/>
   </g>
   <g id="line2d_142">
    <path clip-path="url(#p5783df110b)" d="M 724.10625 204.59136 
L 732.24375 204.59136 
" style="fill:none;stroke:#000000;stroke-linecap:square;"/>
   </g>
   <g id="line2d_143">
    <path clip-path="url(#p5783df110b)" d="M 724.10625 133.723475 
L 732.24375 133.723475 
" style="fill:none;stroke:#000000;stroke-linecap:square;"/>
   </g>
   <g id="line2d_144">
    <g clip-path="url(#p5783df110b)">
     <use style="fill-opacity:0;stroke:#000000;" x="728.175" xlink:href="#mcdc391a91d" y="121.905178"/>
     <use style="fill-opacity:0;stroke:#000000;" x="728.175" xlink:href="#mcdc391a91d" y="126.835745"/>
    </g>
   </g>
   <g id="line2d_145">
    <path clip-path="url(#p5783df110b)" d="M 760.725 229.542007 
L 760.725 260.831909 
" style="fill:none;stroke:#000000;stroke-linecap:square;"/>
   </g>
   <g id="line2d_146">
    <path clip-path="url(#p5783df110b)" d="M 760.725 206.52336 
L 760.725 174.351135 
" style="fill:none;stroke:#000000;stroke-linecap:square;"/>
   </g>
   <g id="line2d_147">
    <path clip-path="url(#p5783df110b)" d="M 756.65625 260.831909 
L 764.79375 260.831909 
" style="fill:none;stroke:#000000;stroke-linecap:square;"/>
   </g>
   <g id="line2d_148">
    <path clip-path="url(#p5783df110b)" d="M 756.65625 174.351135 
L 764.79375 174.351135 
" style="fill:none;stroke:#000000;stroke-linecap:square;"/>
   </g>
   <g id="line2d_149">
    <g clip-path="url(#p5783df110b)">
     <use style="fill-opacity:0;stroke:#000000;" x="760.725" xlink:href="#mcdc391a91d" y="265.506169"/>
     <use style="fill-opacity:0;stroke:#000000;" x="760.725" xlink:href="#mcdc391a91d" y="153.370703"/>
     <use style="fill-opacity:0;stroke:#000000;" x="760.725" xlink:href="#mcdc391a91d" y="168.782295"/>
    </g>
   </g>
   <g id="line2d_150">
    <path clip-path="url(#p5783df110b)" d="M 793.275 246.21422 
L 793.275 274.58956 
" style="fill:none;stroke:#000000;stroke-linecap:square;"/>
   </g>
   <g id="line2d_151">
    <path clip-path="url(#p5783df110b)" d="M 793.275 224.322977 
L 793.275 196.839704 
" style="fill:none;stroke:#000000;stroke-linecap:square;"/>
   </g>
   <g id="line2d_152">
    <path clip-path="url(#p5783df110b)" d="M 789.20625 274.58956 
L 797.34375 274.58956 
" style="fill:none;stroke:#000000;stroke-linecap:square;"/>
   </g>
   <g id="line2d_153">
    <path clip-path="url(#p5783df110b)" d="M 789.20625 196.839704 
L 797.34375 196.839704 
" style="fill:none;stroke:#000000;stroke-linecap:square;"/>
   </g>
   <g id="line2d_154">
    <g clip-path="url(#p5783df110b)">
     <use style="fill-opacity:0;stroke:#000000;" x="793.275" xlink:href="#mcdc391a91d" y="189.908523"/>
     <use style="fill-opacity:0;stroke:#000000;" x="793.275" xlink:href="#mcdc391a91d" y="180.561896"/>
    </g>
   </g>
   <g id="line2d_155">
    <path clip-path="url(#p5783df110b)" d="M 825.825 284.482977 
L 825.825 313.386368 
" style="fill:none;stroke:#000000;stroke-linecap:square;"/>
   </g>
   <g id="line2d_156">
    <path clip-path="url(#p5783df110b)" d="M 825.825 259.326838 
L 825.825 233.382537 
" style="fill:none;stroke:#000000;stroke-linecap:square;"/>
   </g>
   <g id="line2d_157">
    <path clip-path="url(#p5783df110b)" d="M 821.75625 313.386368 
L 829.89375 313.386368 
" style="fill:none;stroke:#000000;stroke-linecap:square;"/>
   </g>
   <g id="line2d_158">
    <path clip-path="url(#p5783df110b)" d="M 821.75625 233.382537 
L 829.89375 233.382537 
" style="fill:none;stroke:#000000;stroke-linecap:square;"/>
   </g>
   <g id="line2d_159">
    <g clip-path="url(#p5783df110b)">
     <use style="fill-opacity:0;stroke:#000000;" x="825.825" xlink:href="#mcdc391a91d" y="324.041869"/>
     <use style="fill-opacity:0;stroke:#000000;" x="825.825" xlink:href="#mcdc391a91d" y="215.472825"/>
    </g>
   </g>
   <g id="line2d_160">
    <path clip-path="url(#p5783df110b)" d="M 858.375 298.928286 
L 858.375 335.217294 
" style="fill:none;stroke:#000000;stroke-linecap:square;"/>
   </g>
   <g id="line2d_161">
    <path clip-path="url(#p5783df110b)" d="M 858.375 273.886476 
L 858.375 239.854496 
" style="fill:none;stroke:#000000;stroke-linecap:square;"/>
   </g>
   <g id="line2d_162">
    <path clip-path="url(#p5783df110b)" d="M 854.30625 335.217294 
L 862.44375 335.217294 
" style="fill:none;stroke:#000000;stroke-linecap:square;"/>
   </g>
   <g id="line2d_163">
    <path clip-path="url(#p5783df110b)" d="M 854.30625 239.854496 
L 862.44375 239.854496 
" style="fill:none;stroke:#000000;stroke-linecap:square;"/>
   </g>
   <g id="line2d_164"/>
   <g id="line2d_165">
    <path clip-path="url(#p5783df110b)" d="M 890.925 312.499294 
L 890.925 340.260092 
" style="fill:none;stroke:#000000;stroke-linecap:square;"/>
   </g>
   <g id="line2d_166">
    <path clip-path="url(#p5783df110b)" d="M 890.925 288.378337 
L 890.925 256.114991 
" style="fill:none;stroke:#000000;stroke-linecap:square;"/>
   </g>
   <g id="line2d_167">
    <path clip-path="url(#p5783df110b)" d="M 886.85625 340.260092 
L 894.99375 340.260092 
" style="fill:none;stroke:#000000;stroke-linecap:square;"/>
   </g>
   <g id="line2d_168">
    <path clip-path="url(#p5783df110b)" d="M 886.85625 256.114991 
L 894.99375 256.114991 
" style="fill:none;stroke:#000000;stroke-linecap:square;"/>
   </g>
   <g id="line2d_169"/>
   <g id="patch_8">
    <path clip-path="url(#p5783df110b)" d="M 134.1375 313.223124 
L 150.4125 313.223124 
L 150.4125 288.912825 
L 134.1375 288.912825 
L 134.1375 313.223124 
z
" style="fill:#ffa500;stroke:#000000;stroke-linejoin:miter;"/>
   </g>
   <g id="patch_9">
    <path clip-path="url(#p5783df110b)" d="M 166.6875 328.813669 
L 182.9625 328.813669 
L 182.9625 308.176531 
L 166.6875 308.176531 
L 166.6875 328.813669 
z
" style="fill:#ffa500;stroke:#000000;stroke-linejoin:miter;"/>
   </g>
   <g id="patch_10">
    <path clip-path="url(#p5783df110b)" d="M 199.2375 348.638326 
L 215.5125 348.638326 
L 215.5125 323.972946 
L 199.2375 323.972946 
L 199.2375 348.638326 
z
" style="fill:#ffa500;stroke:#000000;stroke-linejoin:miter;"/>
   </g>
   <g id="patch_11">
    <path clip-path="url(#p5783df110b)" d="M 231.7875 345.103891 
L 248.0625 345.103891 
L 248.0625 324.409854 
L 231.7875 324.409854 
L 231.7875 345.103891 
z
" style="fill:#ffa500;stroke:#000000;stroke-linejoin:miter;"/>
   </g>
   <g id="patch_12">
    <path clip-path="url(#p5783df110b)" d="M 264.3375 346.057854 
L 280.6125 346.057854 
L 280.6125 320.596853 
L 264.3375 320.596853 
L 264.3375 346.057854 
z
" style="fill:#ffa500;stroke:#000000;stroke-linejoin:miter;"/>
   </g>
   <g id="patch_13">
    <path clip-path="url(#p5783df110b)" d="M 296.8875 369.36 
L 313.1625 369.36 
L 313.1625 353.594781 
L 296.8875 353.594781 
L 296.8875 369.36 
z
" style="fill:#ffa500;stroke:#000000;stroke-linejoin:miter;"/>
   </g>
   <g id="patch_14">
    <path clip-path="url(#p5783df110b)" d="M 329.4375 369.36 
L 345.7125 369.36 
L 345.7125 336.418031 
L 329.4375 336.418031 
L 329.4375 369.36 
z
" style="fill:#ffa500;stroke:#000000;stroke-linejoin:miter;"/>
   </g>
   <g id="patch_15">
    <path clip-path="url(#p5783df110b)" d="M 361.9875 290.039446 
L 378.2625 290.039446 
L 378.2625 255.573536 
L 361.9875 255.573536 
L 361.9875 290.039446 
z
" style="fill:#ffa500;stroke:#000000;stroke-linejoin:miter;"/>
   </g>
   <g id="patch_16">
    <path clip-path="url(#p5783df110b)" d="M 394.5375 276.337332 
L 410.8125 276.337332 
L 410.8125 239.966668 
L 394.5375 239.966668 
L 394.5375 276.337332 
z
" style="fill:#ffa500;stroke:#000000;stroke-linejoin:miter;"/>
   </g>
   <g id="patch_17">
    <path clip-path="url(#p5783df110b)" d="M 427.0875 276.740343 
L 443.3625 276.740343 
L 443.3625 242.919125 
L 427.0875 242.919125 
L 427.0875 276.740343 
z
" style="fill:#ffa500;stroke:#000000;stroke-linejoin:miter;"/>
   </g>
   <g id="patch_18">
    <path clip-path="url(#p5783df110b)" d="M 459.6375 292.305894 
L 475.9125 292.305894 
L 475.9125 263.578805 
L 459.6375 263.578805 
L 459.6375 292.305894 
z
" style="fill:#ffa500;stroke:#000000;stroke-linejoin:miter;"/>
   </g>
   <g id="patch_19">
    <path clip-path="url(#p5783df110b)" d="M 492.1875 292.822365 
L 508.4625 292.822365 
L 508.4625 265.930124 
L 492.1875 265.930124 
L 492.1875 292.822365 
z
" style="fill:#ffa500;stroke:#000000;stroke-linejoin:miter;"/>
   </g>
   <g id="patch_20">
    <path clip-path="url(#p5783df110b)" d="M 524.7375 293.061952 
L 541.0125 293.061952 
L 541.0125 266.31854 
L 524.7375 266.31854 
L 524.7375 293.061952 
z
" style="fill:#ffa500;stroke:#000000;stroke-linejoin:miter;"/>
   </g>
   <g id="patch_21">
    <path clip-path="url(#p5783df110b)" d="M 557.2875 313.386442 
L 573.5625 313.386442 
L 573.5625 289.923337 
L 557.2875 289.923337 
L 557.2875 313.386442 
z
" style="fill:#ffa500;stroke:#000000;stroke-linejoin:miter;"/>
   </g>
   <g id="patch_22">
    <path clip-path="url(#p5783df110b)" d="M 589.8375 313.262104 
L 606.1125 313.262104 
L 606.1125 288.881202 
L 589.8375 288.881202 
L 589.8375 313.262104 
z
" style="fill:#ffa500;stroke:#000000;stroke-linejoin:miter;"/>
   </g>
   <g id="patch_23">
    <path clip-path="url(#p5783df110b)" d="M 622.3875 280.221042 
L 638.6625 280.221042 
L 638.6625 259.13675 
L 622.3875 259.13675 
L 622.3875 280.221042 
z
" style="fill:#ffa500;stroke:#000000;stroke-linejoin:miter;"/>
   </g>
   <g id="patch_24">
    <path clip-path="url(#p5783df110b)" d="M 654.9375 244.956432 
L 671.2125 244.956432 
L 671.2125 226.037161 
L 654.9375 226.037161 
L 654.9375 244.956432 
z
" style="fill:#ffa500;stroke:#000000;stroke-linejoin:miter;"/>
   </g>
   <g id="patch_25">
    <path clip-path="url(#p5783df110b)" d="M 687.4875 146.628509 
L 703.7625 146.628509 
L 703.7625 124.929883 
L 687.4875 124.929883 
L 687.4875 146.628509 
z
" style="fill:#ffa500;stroke:#000000;stroke-linejoin:miter;"/>
   </g>
   <g id="patch_26">
    <path clip-path="url(#p5783df110b)" d="M 720.0375 176.838536 
L 736.3125 176.838536 
L 736.3125 156.890056 
L 720.0375 156.890056 
L 720.0375 176.838536 
z
" style="fill:#ffa500;stroke:#000000;stroke-linejoin:miter;"/>
   </g>
   <g id="patch_27">
    <path clip-path="url(#p5783df110b)" d="M 752.5875 229.542007 
L 768.8625 229.542007 
L 768.8625 206.52336 
L 752.5875 206.52336 
L 752.5875 229.542007 
z
" style="fill:#ffa500;stroke:#000000;stroke-linejoin:miter;"/>
   </g>
   <g id="patch_28">
    <path clip-path="url(#p5783df110b)" d="M 785.1375 246.21422 
L 801.4125 246.21422 
L 801.4125 224.322977 
L 785.1375 224.322977 
L 785.1375 246.21422 
z
" style="fill:#ffa500;stroke:#000000;stroke-linejoin:miter;"/>
   </g>
   <g id="patch_29">
    <path clip-path="url(#p5783df110b)" d="M 817.6875 284.482977 
L 833.9625 284.482977 
L 833.9625 259.326838 
L 817.6875 259.326838 
L 817.6875 284.482977 
z
" style="fill:#ffa500;stroke:#000000;stroke-linejoin:miter;"/>
   </g>
   <g id="patch_30">
    <path clip-path="url(#p5783df110b)" d="M 850.2375 298.928286 
L 866.5125 298.928286 
L 866.5125 273.886476 
L 850.2375 273.886476 
L 850.2375 298.928286 
z
" style="fill:#ffa500;stroke:#000000;stroke-linejoin:miter;"/>
   </g>
   <g id="patch_31">
    <path clip-path="url(#p5783df110b)" d="M 882.7875 312.499294 
L 899.0625 312.499294 
L 899.0625 288.378337 
L 882.7875 288.378337 
L 882.7875 312.499294 
z
" style="fill:#ffa500;stroke:#000000;stroke-linejoin:miter;"/>
   </g>
   <g id="line2d_170">
    <path clip-path="url(#p5783df110b)" d="M 134.1375 299.863305 
L 150.4125 299.863305 
" style="fill:none;stroke:#000000;stroke-linecap:square;"/>
   </g>
   <g id="line2d_171">
    <path clip-path="url(#p5783df110b)" d="M 166.6875 319.424197 
L 182.9625 319.424197 
" style="fill:none;stroke:#000000;stroke-linecap:square;"/>
   </g>
   <g id="line2d_172">
    <path clip-path="url(#p5783df110b)" d="M 199.2375 336.715144 
L 215.5125 336.715144 
" style="fill:none;stroke:#000000;stroke-linecap:square;"/>
   </g>
   <g id="line2d_173">
    <path clip-path="url(#p5783df110b)" d="M 231.7875 336.400487 
L 248.0625 336.400487 
" style="fill:none;stroke:#000000;stroke-linecap:square;"/>
   </g>
   <g id="line2d_174">
    <path clip-path="url(#p5783df110b)" d="M 264.3375 333.985064 
L 280.6125 333.985064 
" style="fill:none;stroke:#000000;stroke-linecap:square;"/>
   </g>
   <g id="line2d_175">
    <path clip-path="url(#p5783df110b)" d="M 296.8875 366.290367 
L 313.1625 366.290367 
" style="fill:none;stroke:#000000;stroke-linecap:square;"/>
   </g>
   <g id="line2d_176">
    <path clip-path="url(#p5783df110b)" d="M 329.4375 361.396292 
L 345.7125 361.396292 
" style="fill:none;stroke:#000000;stroke-linecap:square;"/>
   </g>
   <g id="line2d_177">
    <path clip-path="url(#p5783df110b)" d="M 361.9875 277.737759 
L 378.2625 277.737759 
" style="fill:none;stroke:#000000;stroke-linecap:square;"/>
   </g>
   <g id="line2d_178">
    <path clip-path="url(#p5783df110b)" d="M 394.5375 260.923448 
L 410.8125 260.923448 
" style="fill:none;stroke:#000000;stroke-linecap:square;"/>
   </g>
   <g id="line2d_179">
    <path clip-path="url(#p5783df110b)" d="M 427.0875 263.727106 
L 443.3625 263.727106 
" style="fill:none;stroke:#000000;stroke-linecap:square;"/>
   </g>
   <g id="line2d_180">
    <path clip-path="url(#p5783df110b)" d="M 459.6375 277.81072 
L 475.9125 277.81072 
" style="fill:none;stroke:#000000;stroke-linecap:square;"/>
   </g>
   <g id="line2d_181">
    <path clip-path="url(#p5783df110b)" d="M 492.1875 278.510874 
L 508.4625 278.510874 
" style="fill:none;stroke:#000000;stroke-linecap:square;"/>
   </g>
   <g id="line2d_182">
    <path clip-path="url(#p5783df110b)" d="M 524.7375 281.398201 
L 541.0125 281.398201 
" style="fill:none;stroke:#000000;stroke-linecap:square;"/>
   </g>
   <g id="line2d_183">
    <path clip-path="url(#p5783df110b)" d="M 557.2875 300.329772 
L 573.5625 300.329772 
" style="fill:none;stroke:#000000;stroke-linecap:square;"/>
   </g>
   <g id="line2d_184">
    <path clip-path="url(#p5783df110b)" d="M 589.8375 300.708442 
L 606.1125 300.708442 
" style="fill:none;stroke:#000000;stroke-linecap:square;"/>
   </g>
   <g id="line2d_185">
    <path clip-path="url(#p5783df110b)" d="M 622.3875 271.195742 
L 638.6625 271.195742 
" style="fill:none;stroke:#000000;stroke-linecap:square;"/>
   </g>
   <g id="line2d_186">
    <path clip-path="url(#p5783df110b)" d="M 654.9375 233.627316 
L 671.2125 233.627316 
" style="fill:none;stroke:#000000;stroke-linecap:square;"/>
   </g>
   <g id="line2d_187">
    <path clip-path="url(#p5783df110b)" d="M 687.4875 132.222852 
L 703.7625 132.222852 
" style="fill:none;stroke:#000000;stroke-linecap:square;"/>
   </g>
   <g id="line2d_188">
    <path clip-path="url(#p5783df110b)" d="M 720.0375 167.474555 
L 736.3125 167.474555 
" style="fill:none;stroke:#000000;stroke-linecap:square;"/>
   </g>
   <g id="line2d_189">
    <path clip-path="url(#p5783df110b)" d="M 752.5875 218.330995 
L 768.8625 218.330995 
" style="fill:none;stroke:#000000;stroke-linecap:square;"/>
   </g>
   <g id="line2d_190">
    <path clip-path="url(#p5783df110b)" d="M 785.1375 235.136701 
L 801.4125 235.136701 
" style="fill:none;stroke:#000000;stroke-linecap:square;"/>
   </g>
   <g id="line2d_191">
    <path clip-path="url(#p5783df110b)" d="M 817.6875 272.031867 
L 833.9625 272.031867 
" style="fill:none;stroke:#000000;stroke-linecap:square;"/>
   </g>
   <g id="line2d_192">
    <path clip-path="url(#p5783df110b)" d="M 850.2375 286.086061 
L 866.5125 286.086061 
" style="fill:none;stroke:#000000;stroke-linecap:square;"/>
   </g>
   <g id="line2d_193">
    <path clip-path="url(#p5783df110b)" d="M 882.7875 303.142555 
L 899.0625 303.142555 
" style="fill:none;stroke:#000000;stroke-linecap:square;"/>
   </g>
   <g id="patch_32">
    <path d="M 126 384.48 
L 126 51.84 
" style="fill:none;stroke:#000000;stroke-linecap:square;stroke-linejoin:miter;stroke-width:0.8;"/>
   </g>
   <g id="patch_33">
    <path d="M 907.2 384.48 
L 907.2 51.84 
" style="fill:none;stroke:#000000;stroke-linecap:square;stroke-linejoin:miter;stroke-width:0.8;"/>
   </g>
   <g id="patch_34">
    <path d="M 126 384.48 
L 907.2 384.48 
" style="fill:none;stroke:#000000;stroke-linecap:square;stroke-linejoin:miter;stroke-width:0.8;"/>
   </g>
   <g id="patch_35">
    <path d="M 126 51.84 
L 907.2 51.84 
" style="fill:none;stroke:#000000;stroke-linecap:square;stroke-linejoin:miter;stroke-width:0.8;"/>
   </g>
   <g id="legend_2">
    <g id="patch_36">
     <path d="M 681.926563 41.254125 
L 900.2 41.254125 
Q 902.2 41.254125 902.2 39.254125 
L 902.2 25.576 
Q 902.2 23.576 900.2 23.576 
L 681.926563 23.576 
Q 679.926563 23.576 679.926563 25.576 
L 679.926563 39.254125 
Q 679.926563 41.254125 681.926563 41.254125 
z
" style="fill:#ffffff;opacity:0.8;stroke:#cccccc;stroke-linejoin:miter;"/>
    </g>
    <g id="patch_37">
     <path d="M 683.926563 35.174438 
L 703.926563 35.174438 
L 703.926563 28.174438 
L 683.926563 28.174438 
z
" style="fill:#ffa500;stroke:#000000;stroke-linejoin:miter;"/>
    </g>
    <g id="text_45">
     <!-- Distribution of price responsive loads -->
     <defs>
      <path d="M 19.671875 64.796875 
L 19.671875 8.109375 
L 31.59375 8.109375 
Q 46.6875 8.109375 53.6875 14.9375 
Q 60.6875 21.78125 60.6875 36.53125 
Q 60.6875 51.171875 53.6875 57.984375 
Q 46.6875 64.796875 31.59375 64.796875 
z
M 9.8125 72.90625 
L 30.078125 72.90625 
Q 51.265625 72.90625 61.171875 64.09375 
Q 71.09375 55.28125 71.09375 36.53125 
Q 71.09375 17.671875 61.125 8.828125 
Q 51.171875 0 30.078125 0 
L 9.8125 0 
z
" id="DejaVuSans-68"/>
      <path d="M 48.6875 27.296875 
Q 48.6875 37.203125 44.609375 42.84375 
Q 40.53125 48.484375 33.40625 48.484375 
Q 26.265625 48.484375 22.1875 42.84375 
Q 18.109375 37.203125 18.109375 27.296875 
Q 18.109375 17.390625 22.1875 11.75 
Q 26.265625 6.109375 33.40625 6.109375 
Q 40.53125 6.109375 44.609375 11.75 
Q 48.6875 17.390625 48.6875 27.296875 
z
M 18.109375 46.390625 
Q 20.953125 51.265625 25.265625 53.625 
Q 29.59375 56 35.59375 56 
Q 45.5625 56 51.78125 48.09375 
Q 58.015625 40.1875 58.015625 27.296875 
Q 58.015625 14.40625 51.78125 6.484375 
Q 45.5625 -1.421875 35.59375 -1.421875 
Q 29.59375 -1.421875 25.265625 0.953125 
Q 20.953125 3.328125 18.109375 8.203125 
L 18.109375 0 
L 9.078125 0 
L 9.078125 75.984375 
L 18.109375 75.984375 
z
" id="DejaVuSans-98"/>
      <path d="M 8.5 21.578125 
L 8.5 54.6875 
L 17.484375 54.6875 
L 17.484375 21.921875 
Q 17.484375 14.15625 20.5 10.265625 
Q 23.53125 6.390625 29.59375 6.390625 
Q 36.859375 6.390625 41.078125 11.03125 
Q 45.3125 15.671875 45.3125 23.6875 
L 45.3125 54.6875 
L 54.296875 54.6875 
L 54.296875 0 
L 45.3125 0 
L 45.3125 8.40625 
Q 42.046875 3.421875 37.71875 1 
Q 33.40625 -1.421875 27.6875 -1.421875 
Q 18.265625 -1.421875 13.375 4.4375 
Q 8.5 10.296875 8.5 21.578125 
z
M 31.109375 56 
z
" id="DejaVuSans-117"/>
      <path d="M 30.609375 48.390625 
Q 23.390625 48.390625 19.1875 42.75 
Q 14.984375 37.109375 14.984375 27.296875 
Q 14.984375 17.484375 19.15625 11.84375 
Q 23.34375 6.203125 30.609375 6.203125 
Q 37.796875 6.203125 41.984375 11.859375 
Q 46.1875 17.53125 46.1875 27.296875 
Q 46.1875 37.015625 41.984375 42.703125 
Q 37.796875 48.390625 30.609375 48.390625 
z
M 30.609375 56 
Q 42.328125 56 49.015625 48.375 
Q 55.71875 40.765625 55.71875 27.296875 
Q 55.71875 13.875 49.015625 6.21875 
Q 42.328125 -1.421875 30.609375 -1.421875 
Q 18.84375 -1.421875 12.171875 6.21875 
Q 5.515625 13.875 5.515625 27.296875 
Q 5.515625 40.765625 12.171875 48.375 
Q 18.84375 56 30.609375 56 
z
" id="DejaVuSans-111"/>
      <path d="M 37.109375 75.984375 
L 37.109375 68.5 
L 28.515625 68.5 
Q 23.6875 68.5 21.796875 66.546875 
Q 19.921875 64.59375 19.921875 59.515625 
L 19.921875 54.6875 
L 34.71875 54.6875 
L 34.71875 47.703125 
L 19.921875 47.703125 
L 19.921875 0 
L 10.890625 0 
L 10.890625 47.703125 
L 2.296875 47.703125 
L 2.296875 54.6875 
L 10.890625 54.6875 
L 10.890625 58.5 
Q 10.890625 67.625 15.140625 71.796875 
Q 19.390625 75.984375 28.609375 75.984375 
z
" id="DejaVuSans-102"/>
      <path d="M 18.109375 8.203125 
L 18.109375 -20.796875 
L 9.078125 -20.796875 
L 9.078125 54.6875 
L 18.109375 54.6875 
L 18.109375 46.390625 
Q 20.953125 51.265625 25.265625 53.625 
Q 29.59375 56 35.59375 56 
Q 45.5625 56 51.78125 48.09375 
Q 58.015625 40.1875 58.015625 27.296875 
Q 58.015625 14.40625 51.78125 6.484375 
Q 45.5625 -1.421875 35.59375 -1.421875 
Q 29.59375 -1.421875 25.265625 0.953125 
Q 20.953125 3.328125 18.109375 8.203125 
z
M 48.6875 27.296875 
Q 48.6875 37.203125 44.609375 42.84375 
Q 40.53125 48.484375 33.40625 48.484375 
Q 26.265625 48.484375 22.1875 42.84375 
Q 18.109375 37.203125 18.109375 27.296875 
Q 18.109375 17.390625 22.1875 11.75 
Q 26.265625 6.109375 33.40625 6.109375 
Q 40.53125 6.109375 44.609375 11.75 
Q 48.6875 17.390625 48.6875 27.296875 
z
" id="DejaVuSans-112"/>
      <path d="M 2.984375 54.6875 
L 12.5 54.6875 
L 29.59375 8.796875 
L 46.6875 54.6875 
L 56.203125 54.6875 
L 35.6875 0 
L 23.484375 0 
z
" id="DejaVuSans-118"/>
      <path d="M 9.421875 75.984375 
L 18.40625 75.984375 
L 18.40625 0 
L 9.421875 0 
z
" id="DejaVuSans-108"/>
      <path d="M 34.28125 27.484375 
Q 23.390625 27.484375 19.1875 25 
Q 14.984375 22.515625 14.984375 16.5 
Q 14.984375 11.71875 18.140625 8.90625 
Q 21.296875 6.109375 26.703125 6.109375 
Q 34.1875 6.109375 38.703125 11.40625 
Q 43.21875 16.703125 43.21875 25.484375 
L 43.21875 27.484375 
z
M 52.203125 31.203125 
L 52.203125 0 
L 43.21875 0 
L 43.21875 8.296875 
Q 40.140625 3.328125 35.546875 0.953125 
Q 30.953125 -1.421875 24.3125 -1.421875 
Q 15.921875 -1.421875 10.953125 3.296875 
Q 6 8.015625 6 15.921875 
Q 6 25.140625 12.171875 29.828125 
Q 18.359375 34.515625 30.609375 34.515625 
L 43.21875 34.515625 
L 43.21875 35.40625 
Q 43.21875 41.609375 39.140625 45 
Q 35.0625 48.390625 27.6875 48.390625 
Q 23 48.390625 18.546875 47.265625 
Q 14.109375 46.140625 10.015625 43.890625 
L 10.015625 52.203125 
Q 14.9375 54.109375 19.578125 55.046875 
Q 24.21875 56 28.609375 56 
Q 40.484375 56 46.34375 49.84375 
Q 52.203125 43.703125 52.203125 31.203125 
z
" id="DejaVuSans-97"/>
      <path d="M 45.40625 46.390625 
L 45.40625 75.984375 
L 54.390625 75.984375 
L 54.390625 0 
L 45.40625 0 
L 45.40625 8.203125 
Q 42.578125 3.328125 38.25 0.953125 
Q 33.9375 -1.421875 27.875 -1.421875 
Q 17.96875 -1.421875 11.734375 6.484375 
Q 5.515625 14.40625 5.515625 27.296875 
Q 5.515625 40.1875 11.734375 48.09375 
Q 17.96875 56 27.875 56 
Q 33.9375 56 38.25 53.625 
Q 42.578125 51.265625 45.40625 46.390625 
z
M 14.796875 27.296875 
Q 14.796875 17.390625 18.875 11.75 
Q 22.953125 6.109375 30.078125 6.109375 
Q 37.203125 6.109375 41.296875 11.75 
Q 45.40625 17.390625 45.40625 27.296875 
Q 45.40625 37.203125 41.296875 42.84375 
Q 37.203125 48.484375 30.078125 48.484375 
Q 22.953125 48.484375 18.875 42.84375 
Q 14.796875 37.203125 14.796875 27.296875 
z
" id="DejaVuSans-100"/>
     </defs>
     <g transform="translate(711.926563 35.174438)scale(0.1 -0.1)">
      <use xlink:href="#DejaVuSans-68"/>
      <use x="77.001953" xlink:href="#DejaVuSans-105"/>
      <use x="104.785156" xlink:href="#DejaVuSans-115"/>
      <use x="156.884766" xlink:href="#DejaVuSans-116"/>
      <use x="196.09375" xlink:href="#DejaVuSans-114"/>
      <use x="237.207031" xlink:href="#DejaVuSans-105"/>
      <use x="264.990234" xlink:href="#DejaVuSans-98"/>
      <use x="328.466797" xlink:href="#DejaVuSans-117"/>
      <use x="391.845703" xlink:href="#DejaVuSans-116"/>
      <use x="431.054688" xlink:href="#DejaVuSans-105"/>
      <use x="458.837891" xlink:href="#DejaVuSans-111"/>
      <use x="520.019531" xlink:href="#DejaVuSans-110"/>
      <use x="583.398438" xlink:href="#DejaVuSans-32"/>
      <use x="615.185547" xlink:href="#DejaVuSans-111"/>
      <use x="676.367188" xlink:href="#DejaVuSans-102"/>
      <use x="711.572266" xlink:href="#DejaVuSans-32"/>
      <use x="743.359375" xlink:href="#DejaVuSans-112"/>
      <use x="806.835938" xlink:href="#DejaVuSans-114"/>
      <use x="847.949219" xlink:href="#DejaVuSans-105"/>
      <use x="875.732422" xlink:href="#DejaVuSans-99"/>
      <use x="930.712891" xlink:href="#DejaVuSans-101"/>
      <use x="992.236328" xlink:href="#DejaVuSans-32"/>
      <use x="1024.023438" xlink:href="#DejaVuSans-114"/>
      <use x="1062.886719" xlink:href="#DejaVuSans-101"/>
      <use x="1124.410156" xlink:href="#DejaVuSans-115"/>
      <use x="1176.509766" xlink:href="#DejaVuSans-112"/>
      <use x="1239.986328" xlink:href="#DejaVuSans-111"/>
      <use x="1301.167969" xlink:href="#DejaVuSans-110"/>
      <use x="1364.546875" xlink:href="#DejaVuSans-115"/>
      <use x="1416.646484" xlink:href="#DejaVuSans-105"/>
      <use x="1444.429688" xlink:href="#DejaVuSans-118"/>
      <use x="1503.609375" xlink:href="#DejaVuSans-101"/>
      <use x="1565.132812" xlink:href="#DejaVuSans-32"/>
      <use x="1596.919922" xlink:href="#DejaVuSans-108"/>
      <use x="1624.703125" xlink:href="#DejaVuSans-111"/>
      <use x="1685.884766" xlink:href="#DejaVuSans-97"/>
      <use x="1747.164062" xlink:href="#DejaVuSans-100"/>
      <use x="1810.640625" xlink:href="#DejaVuSans-115"/>
     </g>
    </g>
   </g>
  </g>
 </g>
 <defs>
  <clipPath id="p5783df110b">
   <rect height="332.64" width="781.2" x="126" y="51.84"/>
  </clipPath>
 </defs>
</svg>
